Catamaran-Light.ufo
<glyph name="exclam" format="2">
  <advance width="156"/>
  <unicode hex="0021"/>
  <outline>
    <contour>
      <point x="58" y="217" type="line"/>
      <point x="42" y="702" type="line"/>
      <point x="116" y="702" type="line"/>
      <point x="100" y="196" type="line"/>
    </contour>
    <contour>
      <point x="79" y="94" type="curve" smooth="yes"/>
      <point x="106" y="94"/>
      <point x="126" y="73"/>
      <point x="126" y="48" type="curve" smooth="yes"/>
      <point x="126" y="21"/>
      <point x="106" y="0"/>
      <point x="79" y="0" type="curve" smooth="yes"/>
      <point x="54" y="0"/>
      <point x="30" y="21"/>
      <point x="30" y="48" type="curve" smooth="yes"/>
      <point x="30" y="73"/>
      <point x="54" y="94"/>
    </contour>
  </outline>
</glyph>
<glyph name="numbersign" format="2">
  <advance width="497"/>
  <unicode hex="0023"/>
  <outline>
    <contour>
      <point x="375" y="502" type="line"/>
      <point x="427" y="502" type="line"/>
      <point x="395" y="371" type="line"/>
      <point x="460" y="371" type="line"/>
      <point x="467" y="322" type="line"/>
      <point x="382" y="322" type="line"/>
      <point x="351" y="190" type="line"/>
      <point x="460" y="190" type="line"/>
      <point x="467" y="140" type="line"/>
      <point x="339" y="140" type="line"/>
      <point x="306" y="1" type="line"/>
      <point x="257" y="6" type="line"/>
      <point x="289" y="140" type="line"/>
      <point x="152" y="140" type="line"/>
      <point x="119" y="1" type="line"/>
      <point x="69" y="6" type="line"/>
      <point x="101" y="140" type="line"/>
      <point x="38" y="140" type="line"/>
      <point x="30" y="190" type="line"/>
      <point x="113" y="190" type="line"/>
      <point x="144" y="322" type="line"/>
      <point x="38" y="322" type="line"/>
      <point x="30" y="371" type="line"/>
      <point x="157" y="371" type="line"/>
      <point x="188" y="502" type="line"/>
      <point x="239" y="502" type="line"/>
      <point x="207" y="371" type="line"/>
      <point x="344" y="371" type="line"/>
    </contour>
    <contour>
      <point x="332" y="322" type="line"/>
      <point x="196" y="322" type="line"/>
      <point x="164" y="190" type="line"/>
      <point x="300" y="190" type="line"/>
    </contour>
  </outline>
</glyph>
<glyph name="dollar" format="2">
  <advance width="508"/>
  <unicode hex="0024"/>
  <outline>
    <contour>
      <point x="180" y="-111" type="line"/>
      <point x="226" y="-111" type="line"/>
      <point x="226" y="-13" type="line"/>
      <point x="238" y="-13" type="line" smooth="yes"/>
      <point x="257" y="-13"/>
      <point x="276" y="-12"/>
      <point x="293" y="-9" type="curve"/>
      <point x="293" y="-111" type="line"/>
      <point x="340" y="-111" type="line"/>
      <point x="340" y="1" type="line"/>
      <point x="425" y="27"/>
      <point x="473" y="86"/>
      <point x="473" y="160" type="curve" smooth="yes"/>
      <point x="473" y="259"/>
      <point x="411" y="303"/>
      <point x="290" y="360" type="curve" smooth="yes"/>
      <point x="169" y="417"/>
      <point x="103" y="451"/>
      <point x="103" y="530" type="curve" smooth="yes"/>
      <point x="103" y="599"/>
      <point x="163" y="644"/>
      <point x="259" y="644" type="curve" smooth="yes"/>
      <point x="328" y="644"/>
      <point x="368" y="626"/>
      <point x="403" y="610" type="curve"/>
      <point x="425" y="657" type="line"/>
      <point x="402" y="668"/>
      <point x="373" y="679"/>
      <point x="340" y="687" type="curve"/>
      <point x="340" y="800" type="line"/>
      <point x="293" y="790" type="line"/>
      <point x="293" y="694" type="line"/>
      <point x="281" y="695"/>
      <point x="269" y="696"/>
      <point x="257" y="696" type="curve" smooth="yes"/>
      <point x="246" y="696"/>
      <point x="236" y="695"/>
      <point x="226" y="695" type="curve"/>
      <point x="226" y="797" type="line"/>
      <point x="180" y="787" type="line"/>
      <point x="180" y="686" type="line"/>
      <point x="96" y="663"/>
      <point x="45" y="603"/>
      <point x="45" y="530" type="curve" smooth="yes"/>
      <point x="45" y="445"/>
      <point x="109" y="378"/>
      <point x="229" y="327" type="curve" smooth="yes"/>
      <point x="349" y="276"/>
      <point x="414" y="238"/>
      <point x="414" y="160" type="curve" smooth="yes"/>
      <point x="414" y="91"/>
      <point x="352" y="38"/>
      <point x="237" y="38" type="curve" smooth="yes"/>
      <point x="170" y="38"/>
      <point x="106" y="60"/>
      <point x="71" y="77" type="curve"/>
      <point x="56" y="29" type="line"/>
      <point x="86" y="12"/>
      <point x="134" y="-1"/>
      <point x="180" y="-8" type="curve"/>
    </contour>
  </outline>
</glyph>
<glyph name="ampersand" format="2">
  <advance width="663"/>
  <unicode hex="0026"/>
  <outline>
    <contour>
      <point x="474" y="115" type="curve"/>
      <point x="222" y="345" type="line" smooth="yes"/>
      <point x="210" y="356"/>
      <point x="199" y="366"/>
      <point x="190" y="375" type="curve"/>
      <point x="137" y="346"/>
      <point x="108" y="284"/>
      <point x="107" y="209" type="curve" smooth="yes"/>
      <point x="107" y="92"/>
      <point x="203" y="39"/>
      <point x="299" y="39" type="curve" smooth="yes"/>
      <point x="375" y="39"/>
      <point x="434" y="66"/>
    </contour>
    <contour>
      <point x="599" y="0" type="line"/>
      <point x="516" y="75" type="line"/>
      <point x="469" y="20"/>
      <point x="399" y="-13"/>
      <point x="299" y="-13" type="curve" smooth="yes"/>
      <point x="156" y="-12"/>
      <point x="45" y="63"/>
      <point x="45" y="207" type="curve" smooth="yes"/>
      <point x="46" y="298"/>
      <point x="92" y="375"/>
      <point x="157" y="415" type="curve"/>
      <point x="137" y="444"/>
      <point x="126" y="476"/>
      <point x="126" y="520" type="curve" smooth="yes"/>
      <point x="126" y="615"/>
      <point x="190" y="696"/>
      <point x="307" y="696" type="curve" smooth="yes"/>
      <point x="374" y="696"/>
      <point x="418" y="677"/>
      <point x="458" y="657" type="curve"/>
      <point x="436" y="610" type="line"/>
      <point x="403" y="626"/>
      <point x="376" y="644"/>
      <point x="307" y="644" type="curve" smooth="yes"/>
      <point x="232" y="644"/>
      <point x="185" y="585"/>
      <point x="185" y="526" type="curve" smooth="yes"/>
      <point x="185" y="454"/>
      <point x="223" y="419"/>
      <point x="292" y="354" type="curve" smooth="yes"/>
      <point x="502" y="156" type="line"/>
      <point x="529" y="205"/>
      <point x="544" y="268"/>
      <point x="549" y="339" type="curve"/>
      <point x="595" y="321" type="line"/>
      <point x="591" y="241"/>
      <point x="576" y="173"/>
      <point x="545" y="118" type="curve"/>
      <point x="628" y="41" type="line"/>
    </contour>
  </outline>
</glyph>
<glyph name="quotesingle" format="2">
  <advance width="160"/>
  <unicode hex="0027"/>
  <outline>
    <contour>
      <point x="83" y="702" type="curve" smooth="yes"/>
      <point x="108" y="702"/>
      <point x="130" y="680"/>
      <point x="130" y="647" type="curve" smooth="yes"/>
      <point x="130" y="587"/>
      <point x="87" y="523"/>
      <point x="38" y="498" type="curve"/>
      <point x="20" y="527" type="line"/>
      <point x="51" y="548"/>
      <point x="73" y="571"/>
      <point x="76" y="606" type="curve"/>
      <point x="51" y="609"/>
      <point x="34" y="630"/>
      <point x="34" y="654" type="curve" smooth="yes"/>
      <point x="34" y="679"/>
      <point x="55" y="702"/>
    </contour>
  </outline>
</glyph>
<glyph name="parenright" format="2">
  <advance width="251"/>
  <unicode hex="0029"/>
  <outline>
    <contour>
      <point x="30" y="657" type="curve"/>
      <point x="82" y="675" type="line"/>
      <point x="163" y="568"/>
      <point x="201" y="425"/>
      <point x="201" y="320" type="curve" smooth="yes"/>
      <point x="201" y="213"/>
      <point x="163" y="71"/>
      <point x="82" y="-37" type="curve"/>
      <point x="30" y="-19" type="line"/>
      <point x="87" y="42"/>
      <point x="138" y="223"/>
      <point x="138" y="319" type="curve" smooth="yes"/>
      <point x="138" y="415"/>
      <point x="87" y="594"/>
    </contour>
  </outline>
</glyph>
<glyph name="asterisk" format="2">
  <advance width="339"/>
  <unicode hex="002A"/>
  <outline>
    <contour>
      <point x="193" y="774" type="line"/>
      <point x="194" y="659" type="line"/>
      <point x="316" y="685" type="line"/>
      <point x="329" y="646" type="line"/>
      <point x="206" y="622" type="line"/>
      <point x="292" y="498" type="line"/>
      <point x="257" y="472" type="line"/>
      <point x="170" y="590" type="line"/>
      <point x="82" y="472" type="line"/>
      <point x="46" y="498" type="line"/>
      <point x="133" y="622" type="line"/>
      <point x="10" y="646" type="line"/>
      <point x="22" y="685" type="line"/>
      <point x="144" y="659" type="line"/>
      <point x="145" y="774" type="line"/>
    </contour>
  </outline>
</glyph>
<glyph name="plus" format="2">
  <advance width="535"/>
  <unicode hex="002B"/>
  <outline>
    <contour>
      <point x="495" y="298" type="line"/>
      <point x="505" y="248" type="line"/>
      <point x="295" y="248" type="line"/>
      <point x="295" y="4" type="line"/>
      <point x="238" y="8" type="line"/>
      <point x="238" y="248" type="line"/>
      <point x="38" y="248" type="line"/>
      <point x="30" y="298" type="line"/>
      <point x="238" y="298" type="line"/>
      <point x="238" y="534" type="line"/>
      <point x="295" y="531" type="line"/>
      <point x="295" y="298" type="line"/>
    </contour>
  </outline>
</glyph>
<glyph name="comma" format="2">
  <advance width="160"/>
  <unicode hex="002C"/>
  <outline>
    <contour>
      <point x="82" y="94" type="curve" smooth="yes"/>
      <point x="109" y="94"/>
      <point x="130" y="74"/>
      <point x="130" y="41" type="curve" smooth="yes"/>
      <point x="130" y="-20"/>
      <point x="89" y="-83"/>
      <point x="38" y="-108" type="curve"/>
      <point x="20" y="-79" type="line"/>
      <point x="52" y="-58"/>
      <point x="76" y="-35"/>
      <point x="77" y="1" type="curve"/>
      <point x="52" y="2"/>
      <point x="34" y="24"/>
      <point x="34" y="48" type="curve" smooth="yes"/>
      <point x="34" y="73"/>
      <point x="57" y="94"/>
    </contour>
  </outline>
</glyph>
<glyph name="hyphen" format="2">
  <advance width="316"/>
  <unicode hex="002D"/>
  <outline>
    <contour>
      <point x="278" y="298" type="line"/>
      <point x="286" y="248" type="line"/>
      <point x="38" y="248" type="line"/>
      <point x="30" y="298" type="line"/>
    </contour>
  </outline>
</glyph>
<glyph name="period" format="2">
  <advance width="155"/>
  <unicode hex="002E"/>
  <outline>
    <contour>
      <point x="78" y="0" type="curve" smooth="yes"/>
      <point x="51" y="0"/>
      <point x="30" y="21"/>
      <point x="30" y="48" type="curve" smooth="yes"/>
      <point x="30" y="73"/>
      <point x="51" y="94"/>
      <point x="78" y="94" type="curve" smooth="yes"/>
      <point x="103" y="94"/>
      <point x="125" y="73"/>
      <point x="125" y="48" type="curve" smooth="yes"/>
      <point x="125" y="21"/>
      <point x="103" y="0"/>
    </contour>
  </outline>
</glyph>
<glyph name="zero" format="2">
  <advance width="588"/>
  <unicode hex="0030"/>
  <outline>
    <contour>
      <point x="35" y="288" type="curve" smooth="yes"/>
      <point x="35" y="457"/>
      <point x="144" y="579"/>
      <point x="295" y="579" type="curve" smooth="yes"/>
      <point x="445" y="579"/>
      <point x="553" y="457"/>
      <point x="553" y="289" type="curve" smooth="yes"/>
      <point x="553" y="114"/>
      <point x="445" y="-13"/>
      <point x="295" y="-13" type="curve" smooth="yes"/>
      <point x="144" y="-13"/>
      <point x="35" y="113"/>
    </contour>
    <contour>
      <point x="100" y="291" type="curve" smooth="yes"/>
      <point x="100" y="146"/>
      <point x="182" y="41"/>
      <point x="295" y="41" type="curve" smooth="yes"/>
      <point x="407" y="41"/>
      <point x="488" y="144"/>
      <point x="488" y="286" type="curve" smooth="yes"/>
      <point x="488" y="425"/>
      <point x="407" y="526"/>
      <point x="295" y="526" type="curve" smooth="yes"/>
      <point x="182" y="526"/>
      <point x="100" y="427"/>
    </contour>
  </outline>
</glyph>
<glyph name="one" format="2">
  <advance width="299"/>
  <unicode hex="0031"/>
  <outline>
    <contour>
      <point x="224" y="0" type="line"/>
      <point x="161" y="0" type="line"/>
      <point x="161" y="489" type="line"/>
      <point x="36" y="438" type="line"/>
      <point x="10" y="489" type="line"/>
      <point x="182" y="566" type="line"/>
      <point x="224" y="566" type="line"/>
    </contour>
  </outline>
</glyph>
<glyph name="two" format="2">
  <advance width="476"/>
  <unicode hex="0032"/>
  <outline>
    <contour>
      <point x="219" y="579" type="curve" smooth="yes"/>
      <point x="347" y="579"/>
      <point x="425" y="511"/>
      <point x="425" y="418" type="curve" smooth="yes"/>
      <point x="425" y="343"/>
      <point x="374" y="277"/>
      <point x="276" y="194" type="curve" smooth="yes"/>
      <point x="106" y="50" type="line"/>
      <point x="448" y="49" type="line"/>
      <point x="456" y="0" type="line"/>
      <point x="25" y="0" type="line"/>
      <point x="25" y="50" type="line"/>
      <point x="237" y="233" type="line" smooth="yes"/>
      <point x="326" y="309"/>
      <point x="360" y="350"/>
      <point x="360" y="415" type="curve" smooth="yes"/>
      <point x="360" y="486"/>
      <point x="305" y="527"/>
      <point x="218" y="527" type="curve" smooth="yes"/>
      <point x="145" y="527"/>
      <point x="96" y="496"/>
      <point x="61" y="476" type="curve"/>
      <point x="38" y="527" type="line"/>
      <point x="75" y="549"/>
      <point x="134" y="579"/>
    </contour>
  </outline>
</glyph>
<glyph name="three" format="2">
  <advance width="456"/>
  <unicode hex="0033"/>
  <outline>
    <contour>
      <point x="205" y="579" type="curve" smooth="yes"/>
      <point x="338" y="579"/>
      <point x="404" y="501"/>
      <point x="404" y="417" type="curve" smooth="yes"/>
      <point x="404" y="345"/>
      <point x="353" y="288"/>
      <point x="290" y="268" type="curve"/>
      <point x="365" y="251"/>
      <point x="416" y="187"/>
      <point x="416" y="106" type="curve" smooth="yes"/>
      <point x="416" y="3"/>
      <point x="329" y="-76"/>
      <point x="190" y="-76" type="curve" smooth="yes"/>
      <point x="115" y="-76"/>
      <point x="45" y="-49"/>
      <point x="0" y="-24" type="curve"/>
      <point x="33" y="20" type="line"/>
      <point x="80" y="-8"/>
      <point x="120" y="-25"/>
      <point x="193" y="-25" type="curve" smooth="yes"/>
      <point x="273" y="-25"/>
      <point x="351" y="23"/>
      <point x="351" y="104" type="curve" smooth="yes"/>
      <point x="351" y="189"/>
      <point x="293" y="244"/>
      <point x="154" y="244" type="curve" smooth="yes"/>
      <point x="136" y="244" type="line"/>
      <point x="126" y="289" type="line"/>
      <point x="160" y="289" type="line" smooth="yes"/>
      <point x="272" y="289"/>
      <point x="339" y="340"/>
      <point x="339" y="416" type="curve" smooth="yes"/>
      <point x="339" y="475"/>
      <point x="286" y="528"/>
      <point x="202" y="528" type="curve" smooth="yes"/>
      <point x="130" y="528"/>
      <point x="74" y="500"/>
      <point x="42" y="479" type="curve"/>
      <point x="11" y="520" type="line"/>
      <point x="63" y="553"/>
      <point x="125" y="579"/>
    </contour>
  </outline>
</glyph>
<glyph name="four" format="2">
  <advance width="512"/>
  <unicode hex="0034"/>
  <outline>
    <contour>
      <point x="492" y="125" type="line"/>
      <point x="484" y="74" type="line"/>
      <point x="388" y="74" type="line"/>
      <point x="388" y="-69" type="line"/>
      <point x="326" y="-69" type="line"/>
      <point x="326" y="74" type="line"/>
      <point x="19" y="74" type="line"/>
      <point x="10" y="125" type="line"/>
      <point x="347" y="571" type="line"/>
      <point x="388" y="571" type="line"/>
      <point x="388" y="125" type="line"/>
    </contour>
    <contour>
      <point x="326" y="456" type="line"/>
      <point x="77" y="125" type="line"/>
      <point x="326" y="125" type="line"/>
    </contour>
  </outline>
</glyph>
<glyph name="five" format="2">
  <advance width="490"/>
  <unicode hex="0035"/>
  <outline>
    <contour>
      <point x="131" y="230" type="curve"/>
      <point x="68" y="230" type="line"/>
      <point x="83" y="566" type="line"/>
      <point x="416" y="566" type="line"/>
      <point x="408" y="514" type="line"/>
      <point x="143" y="514" type="line"/>
      <point x="133" y="293" type="line"/>
      <point x="168" y="316"/>
      <point x="210" y="330"/>
      <point x="247" y="330" type="curve" smooth="yes"/>
      <point x="394" y="330"/>
      <point x="454" y="238"/>
      <point x="455" y="130" type="curve" smooth="yes"/>
      <point x="455" y="19"/>
      <point x="375" y="-76"/>
      <point x="224" y="-76" type="curve" smooth="yes"/>
      <point x="151" y="-76"/>
      <point x="82" y="-49"/>
      <point x="35" y="-24" type="curve"/>
      <point x="68" y="20" type="line"/>
      <point x="115" y="-8"/>
      <point x="156" y="-25"/>
      <point x="228" y="-25" type="curve" smooth="yes"/>
      <point x="325" y="-25"/>
      <point x="389" y="34"/>
      <point x="389" y="130" type="curve" smooth="yes"/>
      <point x="389" y="226"/>
      <point x="332" y="279"/>
      <point x="251" y="279" type="curve" smooth="yes"/>
      <point x="198" y="279"/>
      <point x="152" y="247"/>
    </contour>
  </outline>
</glyph>
<glyph name="six" format="2">
  <advance width="502"/>
  <unicode hex="0036"/>
  <outline>
    <contour>
      <point x="70" y="285" type="line"/>
      <point x="99" y="322"/>
      <point x="161" y="387"/>
      <point x="258" y="387" type="curve" smooth="yes"/>
      <point x="397" y="387"/>
      <point x="467" y="291"/>
      <point x="467" y="190" type="curve" smooth="yes"/>
      <point x="467" y="75"/>
      <point x="376" y="-13"/>
      <point x="259" y="-13" type="curve" smooth="yes"/>
      <point x="132" y="-13"/>
      <point x="35" y="85"/>
      <point x="35" y="260" type="curve" smooth="yes"/>
      <point x="35" y="485"/>
      <point x="219" y="613"/>
      <point x="380" y="634" type="curve"/>
      <point x="398" y="586" type="line"/>
      <point x="268" y="580"/>
      <point x="97" y="462"/>
      <point x="97" y="270" type="curve" smooth="yes"/>
      <point x="97" y="118"/>
      <point x="150" y="40"/>
      <point x="257" y="40" type="curve" smooth="yes"/>
      <point x="352" y="40"/>
      <point x="406" y="109"/>
      <point x="406" y="185" type="curve" smooth="yes"/>
      <point x="406" y="274"/>
      <point x="351" y="337"/>
      <point x="258" y="337" type="curve" smooth="yes"/>
      <point x="185" y="337"/>
      <point x="116" y="286"/>
      <point x="87" y="239" type="curve"/>
    </contour>
  </outline>
</glyph>
<glyph name="seven" format="2">
  <advance width="429"/>
  <unicode hex="0037"/>
  <outline>
    <contour>
      <point x="179" y="-69" type="line"/>
      <point x="119" y="-49" type="line"/>
      <point x="341" y="514" type="line"/>
      <point x="18" y="514" type="line"/>
      <point x="10" y="566" type="line"/>
      <point x="387" y="566" type="line"/>
      <point x="409" y="537" type="line"/>
    </contour>
  </outline>
</glyph>
<glyph name="eight" format="2">
  <advance width="517"/>
  <unicode hex="0038"/>
  <outline>
    <contour>
      <point x="259" y="643" type="curve" smooth="yes"/>
      <point x="388" y="643"/>
      <point x="454" y="565"/>
      <point x="454" y="481" type="curve" smooth="yes"/>
      <point x="454" y="413"/>
      <point x="399" y="363"/>
      <point x="346" y="339" type="curve"/>
      <point x="417" y="322"/>
      <point x="482" y="253"/>
      <point x="482" y="169" type="curve" smooth="yes"/>
      <point x="482" y="73"/>
      <point x="404" y="-13"/>
      <point x="259" y="-13" type="curve" smooth="yes"/>
      <point x="112" y="-13"/>
      <point x="35" y="69"/>
      <point x="35" y="169" type="curve" smooth="yes"/>
      <point x="35" y="241"/>
      <point x="96" y="322"/>
      <point x="172" y="339" type="curve"/>
      <point x="111" y="363"/>
      <point x="63" y="414"/>
      <point x="63" y="481" type="curve" smooth="yes"/>
      <point x="63" y="565"/>
      <point x="131" y="643"/>
    </contour>
    <contour>
      <point x="256" y="593" type="curve" smooth="yes"/>
      <point x="167" y="593"/>
      <point x="126" y="538"/>
      <point x="126" y="479" type="curve" smooth="yes"/>
      <point x="126" y="423"/>
      <point x="174" y="372"/>
      <point x="259" y="360" type="curve"/>
      <point x="343" y="372"/>
      <point x="392" y="426"/>
      <point x="392" y="479" type="curve" smooth="yes"/>
      <point x="392" y="540"/>
      <point x="349" y="593"/>
    </contour>
    <contour>
      <point x="259" y="316" type="curve"/>
      <point x="152" y="303"/>
      <point x="99" y="243"/>
      <point x="99" y="167" type="curve" smooth="yes"/>
      <point x="99" y="91"/>
      <point x="168" y="38"/>
      <point x="259" y="38" type="curve" smooth="yes"/>
      <point x="346" y="38"/>
      <point x="418" y="90"/>
      <point x="418" y="167" type="curve" smooth="yes"/>
      <point x="418" y="243"/>
      <point x="364" y="303"/>
    </contour>
  </outline>
</glyph>
<glyph name="nine" format="2">
  <advance width="502"/>
  <unicode hex="0039"/>
  <outline>
    <contour>
      <point x="432" y="281" type="line"/>
      <point x="403" y="244"/>
      <point x="341" y="179"/>
      <point x="244" y="179" type="curve" smooth="yes"/>
      <point x="105" y="179"/>
      <point x="35" y="275"/>
      <point x="35" y="376" type="curve" smooth="yes"/>
      <point x="35" y="491"/>
      <point x="126" y="579"/>
      <point x="243" y="579" type="curve" smooth="yes"/>
      <point x="370" y="579"/>
      <point x="467" y="481"/>
      <point x="467" y="306" type="curve" smooth="yes"/>
      <point x="467" y="81"/>
      <point x="283" y="-47"/>
      <point x="122" y="-68" type="curve"/>
      <point x="104" y="-20" type="line"/>
      <point x="234" y="-14"/>
      <point x="405" y="104"/>
      <point x="405" y="296" type="curve" smooth="yes"/>
      <point x="405" y="448"/>
      <point x="352" y="526"/>
      <point x="245" y="526" type="curve" smooth="yes"/>
      <point x="150" y="526"/>
      <point x="96" y="457"/>
      <point x="96" y="381" type="curve" smooth="yes"/>
      <point x="96" y="292"/>
      <point x="151" y="229"/>
      <point x="244" y="229" type="curve" smooth="yes"/>
      <point x="317" y="229"/>
      <point x="386" y="280"/>
      <point x="415" y="327" type="curve"/>
    </contour>
  </outline>
</glyph>
<glyph name="colon" format="2">
  <advance width="155"/>
  <unicode hex="003A"/>
  <outline>
    <contour>
      <point x="77" y="355" type="curve" smooth="yes"/>
      <point x="52" y="355"/>
      <point x="30" y="377"/>
      <point x="30" y="402" type="curve" smooth="yes"/>
      <point x="30" y="427"/>
      <point x="52" y="451"/>
      <point x="77" y="451" type="curve" smooth="yes"/>
      <point x="104" y="451"/>
      <point x="125" y="427"/>
      <point x="125" y="402" type="curve" smooth="yes"/>
      <point x="125" y="377"/>
      <point x="104" y="355"/>
    </contour>
    <contour>
      <point x="77" y="36" type="curve" smooth="yes"/>
      <point x="52" y="36"/>
      <point x="30" y="57"/>
      <point x="30" y="84" type="curve" smooth="yes"/>
      <point x="30" y="111"/>
      <point x="52" y="132"/>
      <point x="77" y="132" type="curve" smooth="yes"/>
      <point x="104" y="132"/>
      <point x="125" y="111"/>
      <point x="125" y="84" type="curve" smooth="yes"/>
      <point x="125" y="57"/>
      <point x="104" y="36"/>
    </contour>
  </outline>
</glyph>
<glyph name="semicolon" format="2">
  <advance width="161"/>
  <unicode hex="003B"/>
  <outline>
    <contour>
      <point x="83" y="355" type="curve" smooth="yes"/>
      <point x="56" y="355"/>
      <point x="35" y="377"/>
      <point x="35" y="402" type="curve" smooth="yes"/>
      <point x="35" y="427"/>
      <point x="56" y="451"/>
      <point x="83" y="451" type="curve" smooth="yes"/>
      <point x="110" y="451"/>
      <point x="131" y="427"/>
      <point x="131" y="402" type="curve" smooth="yes"/>
      <point x="131" y="377"/>
      <point x="110" y="355"/>
    </contour>
    <contour>
      <point x="82" y="132" type="curve" smooth="yes"/>
      <point x="109" y="132"/>
      <point x="130" y="111"/>
      <point x="130" y="76" type="curve" smooth="yes"/>
      <point x="130" y="17"/>
      <point x="89" y="-48"/>
      <point x="38" y="-72" type="curve"/>
      <point x="20" y="-43" type="line"/>
      <point x="52" y="-22"/>
      <point x="76" y="2"/>
      <point x="77" y="37" type="curve"/>
      <point x="52" y="40"/>
      <point x="34" y="59"/>
      <point x="34" y="84" type="curve" smooth="yes"/>
      <point x="34" y="111"/>
      <point x="57" y="132"/>
    </contour>
  </outline>
</glyph>
<glyph name="less" format="2">
  <advance width="322"/>
  <unicode hex="003C"/>
  <outline>
    <contour>
      <point x="302" y="64" type="line"/>
      <point x="279" y="19" type="line"/>
      <point x="30" y="221" type="line"/>
      <point x="30" y="269" type="line"/>
      <point x="279" y="470" type="line"/>
      <point x="302" y="426" type="line"/>
      <point x="86" y="245" type="line"/>
    </contour>
  </outline>
</glyph>
<glyph name="greater" format="2">
  <advance width="323"/>
  <unicode hex="003E"/>
  <outline>
    <contour>
      <point x="293" y="269" type="line"/>
      <point x="293" y="221" type="line"/>
      <point x="43" y="19" type="line"/>
      <point x="20" y="64" type="line"/>
      <point x="236" y="245" type="line"/>
      <point x="20" y="426" type="line"/>
      <point x="43" y="470" type="line"/>
    </contour>
  </outline>
</glyph>
<glyph name="question" format="2">
  <advance width="404"/>
  <unicode hex="003F"/>
  <outline>
    <contour>
      <point x="186" y="702" type="curve" smooth="yes"/>
      <point x="318" y="702"/>
      <point x="374" y="634"/>
      <point x="374" y="538" type="curve" smooth="yes"/>
      <point x="374" y="462"/>
      <point x="304" y="381"/>
      <point x="193" y="332" type="curve"/>
      <point x="185" y="139" type="line"/>
      <point x="139" y="157" type="line"/>
      <point x="131" y="363" type="line"/>
      <point x="235" y="396"/>
      <point x="309" y="461"/>
      <point x="309" y="537" type="curve" smooth="yes"/>
      <point x="309" y="617"/>
      <point x="268" y="648"/>
      <point x="184" y="648" type="curve" smooth="yes"/>
      <point x="112" y="648"/>
      <point x="70" y="624"/>
      <point x="18" y="587" type="curve"/>
      <point x="10" y="641" type="line"/>
      <point x="63" y="674"/>
      <point x="107" y="702"/>
    </contour>
    <contour>
      <point x="161" y="94" type="curve" smooth="yes"/>
      <point x="188" y="94"/>
      <point x="209" y="73"/>
      <point x="209" y="48" type="curve" smooth="yes"/>
      <point x="209" y="21"/>
      <point x="188" y="0"/>
      <point x="161" y="0" type="curve" smooth="yes"/>
      <point x="134" y="0"/>
      <point x="114" y="21"/>
      <point x="114" y="48" type="curve" smooth="yes"/>
      <point x="114" y="73"/>
      <point x="134" y="94"/>
    </contour>
  </outline>
</glyph>
<glyph name="at" format="2">
  <advance width="764"/>
  <unicode hex="0040"/>
  <outline>
    <contour>
      <point x="538" y="384" type="line"/>
      <point x="514" y="183" type="line" smooth="yes"/>
      <point x="509" y="127"/>
      <point x="544" y="112"/>
      <point x="572" y="112" type="curve" smooth="yes"/>
      <point x="633" y="112"/>
      <point x="675" y="182"/>
      <point x="675" y="297" type="curve" smooth="yes"/>
      <point x="675" y="442"/>
      <point x="576" y="546"/>
      <point x="420" y="546" type="curve" smooth="yes"/>
      <point x="249" y="546"/>
      <point x="97" y="418"/>
      <point x="97" y="214" type="curve" smooth="yes"/>
      <point x="97" y="47"/>
      <point x="216" y="-55"/>
      <point x="365" y="-55" type="curve" smooth="yes"/>
      <point x="422" y="-55"/>
      <point x="487" y="-43"/>
      <point x="528" y="-20" type="curve"/>
      <point x="544" y="-66" type="line"/>
      <point x="488" y="-95"/>
      <point x="419" y="-107"/>
      <point x="354" y="-107" type="curve" smooth="yes"/>
      <point x="190" y="-107"/>
      <point x="35" y="21"/>
      <point x="35" y="213" type="curve" smooth="yes"/>
      <point x="35" y="420"/>
      <point x="180" y="594"/>
      <point x="423" y="594" type="curve" smooth="yes"/>
      <point x="603" y="594"/>
      <point x="729" y="471"/>
      <point x="729" y="304" type="curve" smooth="yes"/>
      <point x="729" y="145"/>
      <point x="664" y="65"/>
      <point x="564" y="65" type="curve" smooth="yes"/>
      <point x="532" y="65"/>
      <point x="502" y="76"/>
      <point x="483" y="100" type="curve"/>
      <point x="459" y="83"/>
      <point x="422" y="66"/>
      <point x="386" y="66" type="curve" smooth="yes"/>
      <point x="275" y="66"/>
      <point x="224" y="126"/>
      <point x="224" y="211" type="curve" smooth="yes"/>
      <point x="224" y="331"/>
      <point x="330" y="409"/>
      <point x="446" y="409" type="curve" smooth="yes"/>
      <point x="517" y="409" type="line"/>
    </contour>
    <contour>
      <point x="385" y="112" type="curve" smooth="yes"/>
      <point x="418" y="112"/>
      <point x="447" y="123"/>
      <point x="464" y="140" type="curve"/>
      <point x="461" y="153"/>
      <point x="460" y="171"/>
      <point x="463" y="190" type="curve" smooth="yes"/>
      <point x="486" y="367" type="line"/>
      <point x="441" y="367" type="line" smooth="yes"/>
      <point x="357" y="367"/>
      <point x="284" y="307"/>
      <point x="284" y="211" type="curve" smooth="yes"/>
      <point x="284" y="164"/>
      <point x="312" y="112"/>
    </contour>
  </outline>
</glyph>
<glyph name="A" format="2">
  <advance width="592"/>
  <unicode hex="0041"/>
  <anchor x="552" y="5" name="bottom"/>
  <anchor x="290" y="680" name="topU"/>
  <outline>
    <contour>
      <point x="423" y="254" type="line"/>
      <point x="290" y="600" type="line"/>
      <point x="161" y="254" type="line"/>
    </contour>
    <contour>
      <point x="257" y="680" type="line"/>
      <point x="322" y="680" type="line"/>
      <point x="582" y="5" type="line"/>
      <point x="521" y="-5" type="line"/>
      <point x="441" y="204" type="line"/>
      <point x="144" y="204" type="line"/>
      <point x="69" y="0" type="line"/>
      <point x="10" y="0" type="line"/>
    </contour>
  </outline>
</glyph>
<glyph name="B" format="2">
  <advance width="577"/>
  <unicode hex="0042"/>
  <outline>
    <contour>
      <point x="286" y="0" type="curve" smooth="yes"/>
      <point x="95" y="0" type="line"/>
      <point x="95" y="680" type="line"/>
      <point x="259" y="680" type="line" smooth="yes"/>
      <point x="402" y="680"/>
      <point x="504" y="639"/>
      <point x="504" y="503" type="curve" smooth="yes"/>
      <point x="504" y="435"/>
      <point x="458" y="389"/>
      <point x="403" y="362" type="curve"/>
      <point x="486" y="337"/>
      <point x="542" y="283"/>
      <point x="542" y="188" type="curve" smooth="yes"/>
      <point x="542" y="45"/>
      <point x="426" y="0"/>
    </contour>
    <contour>
      <point x="261" y="627" type="curve" smooth="yes"/>
      <point x="157" y="627" type="line"/>
      <point x="157" y="378" type="line"/>
      <point x="248" y="378" type="line" smooth="yes"/>
      <point x="352" y="379"/>
      <point x="442" y="406"/>
      <point x="442" y="502" type="curve" smooth="yes"/>
      <point x="442" y="606"/>
      <point x="370" y="627"/>
    </contour>
    <contour>
      <point x="299" y="327" type="curve" smooth="yes"/>
      <point x="157" y="327" type="line"/>
      <point x="157" y="52" type="line"/>
      <point x="288" y="52" type="line" smooth="yes"/>
      <point x="395" y="52"/>
      <point x="480" y="81"/>
      <point x="480" y="186" type="curve" smooth="yes"/>
      <point x="480" y="287"/>
      <point x="408" y="327"/>
    </contour>
  </outline>
</glyph>
<glyph name="C" format="2">
  <advance width="554"/>
  <unicode hex="0043"/>
  <anchor x="356" y="0" name="bottom"/>
  <anchor x="363" y="680" name="topU"/>
  <outline>
    <contour>
      <point x="529" y="657" type="curve"/>
      <point x="509" y="611" type="line"/>
      <point x="468" y="628"/>
      <point x="436" y="640"/>
      <point x="364" y="640" type="curve" smooth="yes"/>
      <point x="221" y="639"/>
      <point x="111" y="512"/>
      <point x="111" y="337" type="curve" smooth="yes"/>
      <point x="111" y="174"/>
      <point x="200" y="41"/>
      <point x="355" y="41" type="curve" smooth="yes"/>
      <point x="427" y="41"/>
      <point x="469" y="55"/>
      <point x="505" y="71" type="curve"/>
      <point x="529" y="23" type="line"/>
      <point x="492" y="3"/>
      <point x="414" y="-14"/>
      <point x="357" y="-14" type="curve" smooth="yes"/>
      <point x="149" y="-14"/>
      <point x="45" y="151"/>
      <point x="45" y="336" type="curve" smooth="yes"/>
      <point x="45" y="535"/>
      <point x="167" y="694"/>
      <point x="363" y="694" type="curve" smooth="yes"/>
      <point x="404" y="694"/>
      <point x="492" y="682"/>
    </contour>
  </outline>
</glyph>
<glyph name="D" format="2">
  <advance width="664"/>
  <unicode hex="0044"/>
  <anchor x="318" y="680" name="topU"/>
  <outline>
    <contour>
      <point x="318" y="0" type="curve" smooth="yes"/>
      <point x="95" y="0" type="line"/>
      <point x="95" y="680" type="line"/>
      <point x="327" y="680" type="line" smooth="yes"/>
      <point x="536" y="680"/>
      <point x="619" y="529"/>
      <point x="619" y="344" type="curve" smooth="yes"/>
      <point x="619" y="155"/>
      <point x="517" y="0"/>
    </contour>
    <contour>
      <point x="330" y="627" type="curve" smooth="yes"/>
      <point x="157" y="627" type="line"/>
      <point x="157" y="52" type="line"/>
      <point x="320" y="52" type="line" smooth="yes"/>
      <point x="463" y="52"/>
      <point x="559" y="168"/>
      <point x="559" y="343" type="curve" smooth="yes"/>
      <point x="559" y="504"/>
      <point x="485" y="627"/>
    </contour>
  </outline>
</glyph>
<glyph name="E" format="2">
  <advance width="503"/>
  <unicode hex="0045"/>
  <anchor x="393" y="0" name="bottom"/>
  <anchor x="278" y="680" name="topU"/>
  <outline>
    <contour>
      <point x="483" y="0" type="line"/>
      <point x="95" y="0" type="line"/>
      <point x="95" y="680" type="line"/>
      <point x="455" y="680" type="line"/>
      <point x="460" y="635" type="line"/>
      <point x="157" y="635" type="line"/>
      <point x="157" y="371" type="line"/>
      <point x="397" y="371" type="line"/>
      <point x="402" y="326" type="line"/>
      <point x="157" y="326" type="line"/>
      <point x="157" y="50" type="line"/>
      <point x="477" y="50" type="line"/>
    </contour>
  </outline>
</glyph>
<glyph name="F" format="2">
  <advance width="471"/>
  <unicode hex="0046"/>
  <outline>
    <contour>
      <point x="386" y="367" type="line"/>
      <point x="392" y="322" type="line"/>
      <point x="157" y="322" type="line"/>
      <point x="157" y="0" type="line"/>
      <point x="95" y="0" type="line"/>
      <point x="95" y="680" type="line"/>
      <point x="444" y="680" type="line"/>
      <point x="451" y="635" type="line"/>
      <point x="157" y="635" type="line"/>
      <point x="157" y="367" type="line"/>
    </contour>
  </outline>
</glyph>
<glyph name="G" format="2">
  <advance width="626"/>
  <unicode hex="0047"/>
  <anchor x="388" y="0" name="bottom"/>
  <anchor x="373" y="680" name="topU"/>
  <outline>
    <contour>
      <point x="356" y="297" type="line"/>
      <point x="362" y="342" type="line"/>
      <point x="571" y="342" type="line"/>
      <point x="571" y="32" type="line"/>
      <point x="530" y="4"/>
      <point x="449" y="-14"/>
      <point x="388" y="-14" type="curve" smooth="yes"/>
      <point x="181" y="-14"/>
      <point x="45" y="137"/>
      <point x="45" y="336" type="curve" smooth="yes"/>
      <point x="45" y="551"/>
      <point x="199" y="694"/>
      <point x="394" y="694" type="curve" smooth="yes"/>
      <point x="435" y="694"/>
      <point x="523" y="682"/>
      <point x="560" y="657" type="curve"/>
      <point x="541" y="611" type="line"/>
      <point x="500" y="628"/>
      <point x="467" y="640"/>
      <point x="396" y="640" type="curve" smooth="yes"/>
      <point x="253" y="639"/>
      <point x="111" y="530"/>
      <point x="111" y="337" type="curve" smooth="yes"/>
      <point x="111" y="154"/>
      <point x="232" y="41"/>
      <point x="387" y="41" type="curve" smooth="yes"/>
      <point x="435" y="41"/>
      <point x="476" y="52"/>
      <point x="509" y="64" type="curve"/>
      <point x="509" y="297" type="line"/>
    </contour>
  </outline>
</glyph>
<glyph name="H" format="2">
  <advance width="651"/>
  <unicode hex="0048"/>
  <outline>
    <contour>
      <point x="556" y="0" type="line"/>
      <point x="494" y="0" type="line"/>
      <point x="494" y="319" type="line"/>
      <point x="157" y="319" type="line"/>
      <point x="157" y="0" type="line"/>
      <point x="95" y="0" type="line"/>
      <point x="95" y="680" type="line"/>
      <point x="157" y="685" type="line"/>
      <point x="157" y="369" type="line"/>
      <point x="494" y="369" type="line"/>
      <point x="494" y="680" type="line"/>
      <point x="556" y="680" type="line"/>
    </contour>
  </outline>
</glyph>
<glyph name="I" format="2">
  <advance width="252"/>
  <unicode hex="0049"/>
  <anchor x="128" y="0" name="bottom"/>
  <anchor x="127" y="680" name="topU"/>
  <outline>
    <contour>
      <point x="157" y="0" type="line"/>
      <point x="95" y="0" type="line"/>
      <point x="95" y="680" type="line"/>
      <point x="157" y="680" type="line"/>
    </contour>
  </outline>
</glyph>
<glyph name="J" format="2">
  <advance width="242"/>
  <unicode hex="004A"/>
  <outline>
    <contour>
      <point x="95" y="59" type="curve" smooth="yes"/>
      <point x="95" y="680" type="line"/>
      <point x="157" y="680" type="line"/>
      <point x="157" y="42" type="line" smooth="yes"/>
      <point x="157" y="-38"/>
      <point x="130" y="-73"/>
      <point x="34" y="-102" type="curve"/>
      <point x="10" y="-60" type="line"/>
      <point x="77" y="-35"/>
      <point x="96" y="-21"/>
    </contour>
  </outline>
</glyph>
<glyph name="K" format="2">
  <advance width="593"/>
  <unicode hex="004B"/>
  <anchor x="337" y="0" name="bottom"/>
  <outline>
    <contour>
      <point x="509" y="0" type="line"/>
      <point x="583" y="0" type="line"/>
      <point x="279.003" y="383.428" type="line"/>
      <point x="543" y="657" type="line"/>
      <point x="503" y="695" type="line"/>
      <point x="157" y="335" type="line"/>
      <point x="157" y="680" type="line"/>
      <point x="95" y="680" type="line"/>
      <point x="95" y="0" type="line"/>
      <point x="157" y="0" type="line"/>
      <point x="157" y="257" type="line"/>
      <point x="238.013" y="340.951" type="line"/>
    </contour>
  </outline>
</glyph>
<glyph name="L" format="2">
  <advance width="497"/>
  <unicode hex="004C"/>
  <anchor x="346" y="0" name="bottom"/>
  <anchor x="187" y="680" name="topU"/>
  <outline>
    <contour>
      <point x="482" y="50" type="line"/>
      <point x="487" y="0" type="line"/>
      <point x="95" y="0" type="line"/>
      <point x="95" y="680" type="line"/>
      <point x="157" y="680" type="line"/>
      <point x="157" y="50" type="line"/>
    </contour>
  </outline>
</glyph>
<glyph name="M" format="2">
  <advance width="760"/>
  <unicode hex="004D"/>
  <outline>
    <contour>
      <point x="391" y="234" type="line"/>
      <point x="371" y="230" type="line"/>
      <point x="157" y="547" type="line"/>
      <point x="157" y="0" type="line"/>
      <point x="95" y="0" type="line"/>
      <point x="95" y="680" type="line"/>
      <point x="130" y="680" type="line"/>
      <point x="379" y="322" type="line"/>
      <point x="624" y="680" type="line"/>
      <point x="665" y="680" type="line"/>
      <point x="665" y="0" type="line"/>
      <point x="602" y="0" type="line"/>
      <point x="602" y="552" type="line"/>
    </contour>
  </outline>
</glyph>
<glyph name="N" format="2">
  <advance width="685"/>
  <unicode hex="004E"/>
  <anchor x="353" y="0" name="bottom"/>
  <anchor x="341" y="680" name="topU"/>
  <outline>
    <contour>
      <point x="157" y="0" type="line"/>
      <point x="95" y="0" type="line"/>
      <point x="95" y="680" type="line"/>
      <point x="136" y="680" type="line"/>
      <point x="493" y="188" type="line"/>
      <point x="527" y="129" type="line"/>
      <point x="527" y="680" type="line"/>
      <point x="590" y="680" type="line"/>
      <point x="590" y="0" type="line"/>
      <point x="549" y="0" type="line"/>
      <point x="171" y="531" type="line"/>
      <point x="157" y="560" type="line"/>
    </contour>
  </outline>
</glyph>
<glyph name="O" format="2">
  <advance width="721"/>
  <unicode hex="004F"/>
  <anchor x="363" y="680" name="topU"/>
  <outline>
    <contour>
      <point x="357" y="-14" type="curve" smooth="yes"/>
      <point x="542" y="-11"/>
      <point x="676" y="140"/>
      <point x="676" y="345" type="curve" smooth="yes"/>
      <point x="676" y="549"/>
      <point x="545" y="696"/>
      <point x="363" y="696" type="curve" smooth="yes"/>
      <point x="179" y="692"/>
      <point x="45" y="541"/>
      <point x="45" y="337" type="curve" smooth="yes"/>
      <point x="45" y="133"/>
      <point x="176" y="-14"/>
    </contour>
    <contour>
      <point x="355" y="41" type="curve" smooth="yes"/>
      <point x="213" y="41"/>
      <point x="111" y="166"/>
      <point x="111" y="338" type="curve" smooth="yes"/>
      <point x="111" y="513"/>
      <point x="217" y="640"/>
      <point x="364" y="640" type="curve" smooth="yes"/>
      <point x="506" y="640"/>
      <point x="608" y="516"/>
      <point x="608" y="344" type="curve" smooth="yes"/>
      <point x="608" y="168"/>
      <point x="502" y="41"/>
    </contour>
  </outline>
</glyph>
<glyph name="P" format="2">
  <advance width="551"/>
  <unicode hex="0050"/>
  <outline>
    <contour>
      <point x="157" y="0" type="line"/>
      <point x="95" y="0" type="line"/>
      <point x="95" y="680" type="line"/>
      <point x="271" y="680" type="line" smooth="yes"/>
      <point x="412" y="680"/>
      <point x="516" y="623"/>
      <point x="516" y="475" type="curve" smooth="yes"/>
      <point x="515" y="328"/>
      <point x="401" y="264"/>
      <point x="260" y="264" type="curve" smooth="yes"/>
      <point x="157" y="264" type="line"/>
    </contour>
    <contour>
      <point x="273" y="627" type="curve" smooth="yes"/>
      <point x="157" y="627" type="line"/>
      <point x="157" y="317" type="line"/>
      <point x="262" y="317" type="line" smooth="yes"/>
      <point x="369" y="317"/>
      <point x="452" y="361"/>
      <point x="453" y="474" type="curve" smooth="yes"/>
      <point x="453" y="591"/>
      <point x="382" y="627"/>
    </contour>
  </outline>
</glyph>
<glyph name="R" format="2">
  <advance width="580"/>
  <unicode hex="0052"/>
  <anchor x="327" y="0" name="bottom"/>
  <anchor x="271" y="680" name="topU"/>
  <outline>
    <contour>
      <point x="273" y="627" type="curve" smooth="yes"/>
      <point x="157" y="627" type="line"/>
      <point x="157" y="337" type="line"/>
      <point x="262" y="337" type="line" smooth="yes"/>
      <point x="363" y="337"/>
      <point x="452" y="371"/>
      <point x="453" y="484" type="curve" smooth="yes"/>
      <point x="453" y="600"/>
      <point x="377" y="627"/>
    </contour>
    <contour>
      <point x="95" y="680" type="line"/>
      <point x="271" y="680" type="line" smooth="yes"/>
      <point x="412" y="680"/>
      <point x="516" y="629"/>
      <point x="516" y="486" type="curve" smooth="yes"/>
      <point x="515" y="391"/>
      <point x="465" y="336"/>
      <point x="394" y="308" type="curve"/>
      <point x="570" y="0" type="line"/>
      <point x="500" y="0" type="line"/>
      <point x="339" y="291" type="line"/>
      <point x="314" y="288"/>
      <point x="287" y="286"/>
      <point x="260" y="286" type="curve" smooth="yes"/>
      <point x="157" y="286" type="line"/>
      <point x="157" y="0" type="line"/>
      <point x="95" y="0" type="line"/>
    </contour>
  </outline>
</glyph>
<glyph name="S" format="2">
  <advance width="508"/>
  <unicode hex="0053"/>
  <anchor x="238" y="0" name="bottom"/>
  <anchor x="257" y="680" name="topU"/>
  <outline>
    <contour>
      <point x="56" y="29" type="curve"/>
      <point x="71" y="77" type="line"/>
      <point x="106" y="60"/>
      <point x="170" y="38"/>
      <point x="237" y="38" type="curve" smooth="yes"/>
      <point x="352" y="38"/>
      <point x="414" y="91"/>
      <point x="414" y="160" type="curve" smooth="yes"/>
      <point x="414" y="238"/>
      <point x="349" y="276"/>
      <point x="229" y="327" type="curve" smooth="yes"/>
      <point x="109" y="378"/>
      <point x="45" y="445"/>
      <point x="45" y="530" type="curve" smooth="yes"/>
      <point x="45" y="623"/>
      <point x="129" y="696"/>
      <point x="257" y="696" type="curve" smooth="yes"/>
      <point x="324" y="696"/>
      <point x="385" y="677"/>
      <point x="425" y="657" type="curve"/>
      <point x="403" y="610" type="line"/>
      <point x="368" y="626"/>
      <point x="328" y="644"/>
      <point x="259" y="644" type="curve" smooth="yes"/>
      <point x="163" y="644"/>
      <point x="103" y="599"/>
      <point x="103" y="530" type="curve" smooth="yes"/>
      <point x="103" y="451"/>
      <point x="169" y="417"/>
      <point x="290" y="360" type="curve" smooth="yes"/>
      <point x="411" y="303"/>
      <point x="473" y="259"/>
      <point x="473" y="160" type="curve" smooth="yes"/>
      <point x="473" y="60"/>
      <point x="386" y="-13"/>
      <point x="238" y="-13" type="curve" smooth="yes"/>
      <point x="181" y="-13"/>
      <point x="100" y="5"/>
    </contour>
  </outline>
</glyph>
<glyph name="T" format="2">
  <advance width="553"/>
  <unicode hex="0054"/>
  <anchor x="279" y="0" name="bottom"/>
  <anchor x="278" y="680" name="topU"/>
  <outline>
    <contour>
      <point x="538" y="680" type="line"/>
      <point x="543" y="631" type="line"/>
      <point x="308" y="631" type="line"/>
      <point x="308" y="0" type="line"/>
      <point x="245" y="0" type="line"/>
      <point x="245" y="631" type="line"/>
      <point x="10" y="631" type="line"/>
      <point x="10" y="680" type="line"/>
    </contour>
  </outline>
</glyph>
<glyph name="U" format="2">
  <advance width="673"/>
  <unicode hex="0055"/>
  <anchor x="336" y="0" name="bottom"/>
  <anchor x="336" y="680" name="topU"/>
  <outline>
    <contour>
      <point x="147" y="680" type="line"/>
      <point x="147" y="248" type="line" smooth="yes"/>
      <point x="147" y="132"/>
      <point x="221" y="41"/>
      <point x="336" y="41" type="curve" smooth="yes"/>
      <point x="455" y="41"/>
      <point x="525" y="132"/>
      <point x="525" y="248" type="curve" smooth="yes"/>
      <point x="525" y="680" type="line"/>
      <point x="588" y="680" type="line"/>
      <point x="588" y="239" type="line" smooth="yes"/>
      <point x="588" y="94"/>
      <point x="491" y="-12"/>
      <point x="336" y="-12" type="curve" smooth="yes"/>
      <point x="183" y="-11"/>
      <point x="85" y="94"/>
      <point x="85" y="239" type="curve" smooth="yes"/>
      <point x="85" y="680" type="line"/>
    </contour>
  </outline>
</glyph>
<glyph name="V" format="2">
  <advance width="592"/>
  <unicode hex="0056"/>
  <outline>
    <contour>
      <point x="71" y="685" type="line"/>
      <point x="302" y="80" type="line"/>
      <point x="523" y="680" type="line"/>
      <point x="582" y="680" type="line"/>
      <point x="335" y="0" type="line"/>
      <point x="270" y="0" type="line"/>
      <point x="10" y="675" type="line"/>
    </contour>
  </outline>
</glyph>
<glyph name="W" format="2">
  <advance width="821"/>
  <unicode hex="0057"/>
  <outline>
    <contour>
      <point x="811" y="680" type="line"/>
      <point x="752" y="680" type="line"/>
      <point x="601" y="86" type="line"/>
      <point x="442" y="680" type="line"/>
      <point x="383" y="680" type="line"/>
      <point x="232" y="86" type="line"/>
      <point x="71" y="685" type="line"/>
      <point x="10" y="675" type="line"/>
      <point x="200" y="0" type="line"/>
      <point x="265" y="0" type="line"/>
      <point x="411" y="581" type="line"/>
      <point x="569" y="0" type="line"/>
      <point x="634" y="0" type="line"/>
    </contour>
  </outline>
</glyph>
<glyph name="X" format="2">
  <advance width="573"/>
  <unicode hex="0058"/>
  <outline>
    <contour>
      <point x="79" y="0" type="line"/>
      <point x="10" y="0" type="line"/>
      <point x="255" y="344" type="line"/>
      <point x="33" y="668" type="line"/>
      <point x="87" y="694" type="line"/>
      <point x="302" y="377" type="line"/>
      <point x="495" y="680" type="line"/>
      <point x="563" y="680" type="line"/>
      <point x="335" y="331" type="line"/>
      <point x="549" y="0" type="line"/>
      <point x="480" y="0" type="line"/>
      <point x="289" y="297" type="line"/>
    </contour>
  </outline>
</glyph>
<glyph name="Y" format="2">
  <advance width="546"/>
  <unicode hex="0059"/>
  <anchor x="266" y="680" name="topU"/>
  <outline>
    <contour>
      <point x="297" y="0" type="line"/>
      <point x="234" y="0" type="line"/>
      <point x="235" y="276" type="line"/>
      <point x="10" y="664" type="line"/>
      <point x="65" y="695" type="line"/>
      <point x="266" y="336" type="line"/>
      <point x="469" y="680" type="line"/>
      <point x="536" y="680" type="line"/>
      <point x="298" y="283" type="line"/>
    </contour>
  </outline>
</glyph>
<glyph name="Z" format="2">
  <advance width="559"/>
  <unicode hex="005A"/>
  <anchor x="286" y="680" name="topU"/>
  <outline>
    <contour>
      <point x="514" y="50" type="line"/>
      <point x="519" y="0" type="line"/>
      <point x="31" y="0" type="line"/>
      <point x="25" y="50" type="line"/>
      <point x="467" y="631" type="line"/>
      <point x="62" y="631" type="line"/>
      <point x="52" y="680" type="line"/>
      <point x="529" y="680" type="line"/>
      <point x="534" y="631" type="line"/>
      <point x="94" y="50" type="line"/>
    </contour>
  </outline>
</glyph>
<glyph name="backslash" format="2">
  <advance width="385"/>
  <unicode hex="005C"/>
  <outline>
    <contour>
      <point x="375" y="0" type="line"/>
      <point x="318" y="-4" type="line"/>
      <point x="10" y="706" type="line"/>
      <point x="67" y="710" type="line"/>
    </contour>
  </outline>
</glyph>
<glyph name="bracketright" format="2">
  <advance width="272"/>
  <unicode hex="005D"/>
  <outline>
    <contour>
      <point x="172" y="696" type="line"/>
      <point x="172" y="-88" type="line"/>
      <point x="10" y="-88" type="line"/>
      <point x="18" y="-44" type="line"/>
      <point x="115" y="-44" type="line"/>
      <point x="115" y="651" type="line"/>
      <point x="18" y="651" type="line"/>
      <point x="10" y="696" type="line"/>
    </contour>
  </outline>
</glyph>
<glyph name="asciicircum" format="2">
  <advance width="411"/>
  <unicode hex="005E"/>
  <outline>
    <contour>
      <point x="206" y="344" type="line"/>
      <point x="70" y="143" type="line"/>
      <point x="10" y="143" type="line"/>
      <point x="176" y="390" type="line"/>
      <point x="235" y="390" type="line"/>
      <point x="401" y="143" type="line"/>
      <point x="341" y="143" type="line"/>
    </contour>
  </outline>
</glyph>
<glyph name="underscore" format="2">
  <advance width="439"/>
  <unicode hex="005F"/>
  <outline>
    <contour>
      <point x="401" y="50" type="line"/>
      <point x="409" y="0" type="line"/>
      <point x="38" y="0" type="line"/>
      <point x="30" y="50" type="line"/>
    </contour>
  </outline>
</glyph>
<glyph name="grave" format="2">
  <advance width="145"/>
  <unicode hex="0060"/>
  <outline>
    <contour>
      <point x="95" y="589" type="line"/>
      <point x="10" y="742" type="line"/>
      <point x="81" y="742" type="line"/>
      <point x="135" y="602" type="line"/>
    </contour>
  </outline>
</glyph>
<glyph name="a" format="2">
  <advance width="483"/>
  <unicode hex="0061"/>
  <anchor x="394" y="0" name="bottom"/>
  <anchor x="250" y="485" name="top"/>
  <outline>
    <contour>
      <point x="113" y="136" type="curve" smooth="yes"/>
      <point x="113" y="91"/>
      <point x="141" y="38"/>
      <point x="213" y="38" type="curve" smooth="yes"/>
      <point x="276" y="38"/>
      <point x="327" y="76"/>
      <point x="360" y="117" type="curve"/>
      <point x="360" y="240" type="line"/>
      <point x="223" y="240" type="line" smooth="yes"/>
      <point x="151" y="240"/>
      <point x="113" y="192"/>
    </contour>
    <contour>
      <point x="105" y="412" type="curve"/>
      <point x="86" y="456" type="line"/>
      <point x="123" y="481"/>
      <point x="201" y="498"/>
      <point x="241" y="498" type="curve" smooth="yes"/>
      <point x="352" y="498"/>
      <point x="422" y="435"/>
      <point x="422" y="340" type="curve" smooth="yes"/>
      <point x="422" y="0" type="line"/>
      <point x="371" y="0" type="line"/>
      <point x="363" y="52" type="line"/>
      <point x="332" y="20"/>
      <point x="272" y="-13"/>
      <point x="215" y="-13" type="curve" smooth="yes"/>
      <point x="106" y="-13"/>
      <point x="52" y="52"/>
      <point x="52" y="136" type="curve" smooth="yes"/>
      <point x="52" y="228"/>
      <point x="124" y="282"/>
      <point x="225" y="281" type="curve" smooth="yes"/>
      <point x="360" y="281" type="line"/>
      <point x="360" y="330" type="line" smooth="yes"/>
      <point x="360" y="397"/>
      <point x="323" y="446"/>
      <point x="244" y="446" type="curve" smooth="yes"/>
      <point x="173" y="446"/>
      <point x="140" y="428"/>
    </contour>
  </outline>
</glyph>
<glyph name="b" format="2">
  <advance width="520"/>
  <unicode hex="0062"/>
  <outline>
    <contour>
      <point x="116" y="0" type="line"/>
      <point x="75" y="0" type="line"/>
      <point x="75" y="696" type="line"/>
      <point x="137" y="706" type="line"/>
      <point x="137" y="67" type="line"/>
    </contour>
    <contour>
      <point x="125" y="376" type="curve"/>
      <point x="105" y="421" type="line"/>
      <point x="145" y="467"/>
      <point x="202" y="498"/>
      <point x="264" y="498" type="curve" smooth="yes"/>
      <point x="407" y="498"/>
      <point x="485" y="393"/>
      <point x="485" y="242" type="curve" smooth="yes"/>
      <point x="484" y="97"/>
      <point x="403" y="-13"/>
      <point x="260" y="-13" type="curve" smooth="yes"/>
      <point x="194" y="-13"/>
      <point x="143" y="27"/>
      <point x="104" y="63" type="curve"/>
      <point x="124" y="103" type="line"/>
      <point x="157" y="72"/>
      <point x="194" y="39"/>
      <point x="263" y="39" type="curve" smooth="yes"/>
      <point x="370" y="39"/>
      <point x="421" y="128"/>
      <point x="422" y="241" type="curve" smooth="yes"/>
      <point x="422" y="360"/>
      <point x="374" y="446"/>
      <point x="265" y="446" type="curve" smooth="yes"/>
      <point x="201" y="446"/>
      <point x="160" y="416"/>
    </contour>
  </outline>
</glyph>
<glyph name="c" format="2">
  <advance width="451"/>
  <unicode hex="0063"/>
  <anchor x="262" y="0" name="bottom"/>
  <anchor x="267" y="485" name="top"/>
  <outline>
    <contour>
      <point x="395" y="73" type="curve"/>
      <point x="415" y="28" type="line"/>
      <point x="375" y="3"/>
      <point x="303" y="-13"/>
      <point x="262" y="-13" type="curve" smooth="yes"/>
      <point x="119" y="-13"/>
      <point x="35" y="94"/>
      <point x="35" y="245" type="curve" smooth="yes"/>
      <point x="36" y="390"/>
      <point x="126" y="498"/>
      <point x="269" y="498" type="curve" smooth="yes"/>
      <point x="308" y="498"/>
      <point x="381" y="481"/>
      <point x="420" y="456" type="curve"/>
      <point x="400" y="412" type="line"/>
      <point x="367" y="428"/>
      <point x="335" y="446"/>
      <point x="266" y="446" type="curve" smooth="yes"/>
      <point x="159" y="446"/>
      <point x="99" y="359"/>
      <point x="98" y="246" type="curve" smooth="yes"/>
      <point x="98" y="127"/>
      <point x="152" y="39"/>
      <point x="261" y="39" type="curve" smooth="yes"/>
      <point x="332" y="39"/>
      <point x="360" y="56"/>
    </contour>
  </outline>
</glyph>
<glyph name="f" format="2">
  <advance width="274"/>
  <unicode hex="0066"/>
  <outline>
    <contour>
      <point x="18" y="428" type="line"/>
      <point x="17" y="475" type="line"/>
      <point x="90" y="475" type="line"/>
      <point x="90" y="563" type="line" smooth="yes"/>
      <point x="90" y="647"/>
      <point x="136" y="702"/>
      <point x="208" y="702" type="curve" smooth="yes"/>
      <point x="235" y="702"/>
      <point x="261" y="694"/>
      <point x="274" y="689" type="curve"/>
      <point x="262" y="636" type="line"/>
      <point x="254" y="640"/>
      <point x="234" y="645"/>
      <point x="221" y="645" type="curve" smooth="yes"/>
      <point x="170" y="645"/>
      <point x="152" y="611"/>
      <point x="152" y="563" type="curve" smooth="yes"/>
      <point x="152" y="475" type="line"/>
      <point x="240" y="475" type="line"/>
      <point x="261" y="428" type="line"/>
      <point x="152" y="428" type="line"/>
      <point x="152" y="0" type="line"/>
      <point x="90" y="0" type="line"/>
      <point x="90" y="428" type="line"/>
    </contour>
  </outline>
</glyph>
<glyph name="g" format="2">
  <advance width="512"/>
  <unicode hex="0067"/>
  <anchor x="258" y="485" name="top"/>
  <outline>
    <contour>
      <point x="441" y="485" type="line"/>
      <point x="441" y="-62" type="line" smooth="yes"/>
      <point x="441" y="-158"/>
      <point x="362" y="-230"/>
      <point x="235" y="-230" type="curve" smooth="yes"/>
      <point x="196" y="-230"/>
      <point x="111" y="-214"/>
      <point x="70" y="-189" type="curve"/>
      <point x="89" y="-143" type="line"/>
      <point x="122" y="-159"/>
      <point x="165" y="-177"/>
      <point x="233" y="-178" type="curve" smooth="yes"/>
      <point x="314" y="-178"/>
      <point x="378" y="-141"/>
      <point x="378" y="-61" type="curve" smooth="yes"/>
      <point x="378" y="429" type="line"/>
      <point x="400" y="485" type="line"/>
    </contour>
    <contour>
      <point x="395" y="109" type="curve"/>
      <point x="415" y="64" type="line"/>
      <point x="375" y="18"/>
      <point x="318" y="-13"/>
      <point x="256" y="-13" type="curve" smooth="yes"/>
      <point x="113" y="-13"/>
      <point x="35" y="92"/>
      <point x="35" y="243" type="curve" smooth="yes"/>
      <point x="36" y="388"/>
      <point x="117" y="498"/>
      <point x="260" y="498" type="curve" smooth="yes"/>
      <point x="326" y="498"/>
      <point x="377" y="458"/>
      <point x="416" y="422" type="curve"/>
      <point x="396" y="382" type="line"/>
      <point x="363" y="413"/>
      <point x="326" y="446"/>
      <point x="257" y="446" type="curve" smooth="yes"/>
      <point x="150" y="446"/>
      <point x="99" y="357"/>
      <point x="98" y="244" type="curve" smooth="yes"/>
      <point x="98" y="125"/>
      <point x="146" y="39"/>
      <point x="255" y="39" type="curve" smooth="yes"/>
      <point x="319" y="39"/>
      <point x="360" y="69"/>
    </contour>
  </outline>
</glyph>
<glyph name="h" format="2">
  <advance width="526"/>
  <unicode hex="0068"/>
  <outline>
    <contour>
      <point x="137" y="346" type="curve"/>
      <point x="136" y="411" type="line"/>
      <point x="177" y="459"/>
      <point x="256" y="498"/>
      <point x="316" y="498" type="curve" smooth="yes"/>
      <point x="420" y="498"/>
      <point x="465" y="430"/>
      <point x="465" y="337" type="curve" smooth="yes"/>
      <point x="465" y="1" type="line"/>
      <point x="403" y="1" type="line"/>
      <point x="403" y="325" type="line" smooth="yes"/>
      <point x="403" y="392"/>
      <point x="380" y="445"/>
      <point x="309" y="445" type="curve" smooth="yes"/>
      <point x="259" y="445"/>
      <point x="182" y="403"/>
    </contour>
    <contour>
      <point x="137" y="0" type="line"/>
      <point x="75" y="0" type="line"/>
      <point x="75" y="696" type="line"/>
      <point x="137" y="706" type="line"/>
    </contour>
  </outline>
</glyph>
<glyph name="i" format="2">
  <advance width="193"/>
  <unicode hex="0069"/>
  <anchor x="98" y="0" name="bottom"/>
  <outline>
    <contour>
      <point x="128" y="0" type="line"/>
      <point x="65" y="0" type="line"/>
      <point x="65" y="485" type="line"/>
      <point x="128" y="485" type="line"/>
    </contour>
    <contour>
      <point x="96" y="591" type="curve" smooth="yes"/>
      <point x="68" y="591"/>
      <point x="49" y="611"/>
      <point x="49" y="638" type="curve" smooth="yes"/>
      <point x="49" y="665"/>
      <point x="68" y="685"/>
      <point x="96" y="685" type="curve" smooth="yes"/>
      <point x="121" y="685"/>
      <point x="144" y="665"/>
      <point x="144" y="638" type="curve" smooth="yes"/>
      <point x="144" y="611"/>
      <point x="121" y="591"/>
    </contour>
  </outline>
</glyph>
<glyph name="j" format="2">
  <advance width="215"/>
  <unicode hex="006A"/>
  <outline>
    <contour>
      <point x="106" y="591" type="curve" smooth="yes"/>
      <point x="131" y="591"/>
      <point x="154" y="611"/>
      <point x="154" y="638" type="curve" smooth="yes"/>
      <point x="154" y="665"/>
      <point x="131" y="685"/>
      <point x="106" y="685" type="curve" smooth="yes"/>
      <point x="78" y="685"/>
      <point x="59" y="665"/>
      <point x="59" y="638" type="curve" smooth="yes"/>
      <point x="59" y="611"/>
      <point x="78" y="591"/>
    </contour>
    <contour>
      <point x="138" y="485" type="line"/>
      <point x="75" y="485" type="line"/>
      <point x="75" y="-47" type="line" smooth="yes"/>
      <point x="76" y="-127"/>
      <point x="67" y="-151"/>
      <point x="0" y="-176" type="curve"/>
      <point x="24" y="-219" type="line"/>
      <point x="120" y="-188"/>
      <point x="138" y="-146"/>
      <point x="138" y="-62" type="curve" smooth="yes"/>
    </contour>
  </outline>
</glyph>
<glyph name="k" format="2">
  <advance width="457"/>
  <unicode hex="006B"/>
  <anchor x="254" y="0" name="bottom"/>
  <outline>
    <contour>
      <point x="137" y="0" type="line"/>
      <point x="75" y="0" type="line"/>
      <point x="75" y="696" type="line"/>
      <point x="137" y="706" type="line"/>
      <point x="137" y="266" type="line"/>
      <point x="362" y="498" type="line"/>
      <point x="401" y="461" type="line"/>
      <point x="249" y="305" type="line"/>
      <point x="457" y="0" type="line"/>
      <point x="382" y="0" type="line"/>
      <point x="209" y="264" type="line"/>
      <point x="137" y="190" type="line"/>
    </contour>
  </outline>
</glyph>
<glyph name="l" format="2">
  <advance width="212"/>
  <unicode hex="006C"/>
  <anchor x="105" y="0" name="bottom"/>
  <outline>
    <contour>
      <point x="137" y="0" type="line"/>
      <point x="75" y="0" type="line"/>
      <point x="75" y="696" type="line"/>
      <point x="137" y="706" type="line"/>
    </contour>
  </outline>
</glyph>
<glyph name="m" format="2">
  <advance width="794"/>
  <unicode hex="006D"/>
  <outline>
    <contour>
      <point x="127" y="0" type="line"/>
      <point x="65" y="0" type="line"/>
      <point x="65" y="485" type="line"/>
      <point x="116" y="485" type="line"/>
      <point x="126" y="411" type="line"/>
      <point x="167" y="459"/>
      <point x="241" y="498"/>
      <point x="296" y="498" type="curve" smooth="yes"/>
      <point x="396" y="498"/>
      <point x="435" y="430"/>
      <point x="435" y="337" type="curve" smooth="yes"/>
      <point x="435" y="1" type="line"/>
      <point x="373" y="1" type="line"/>
      <point x="373" y="325" type="line" smooth="yes"/>
      <point x="373" y="392"/>
      <point x="356" y="445"/>
      <point x="289" y="445" type="curve" smooth="yes"/>
      <point x="244" y="445"/>
      <point x="172" y="403"/>
      <point x="127" y="346" type="curve"/>
    </contour>
    <contour>
      <point x="425" y="346" type="curve"/>
      <point x="424" y="411" type="line"/>
      <point x="465" y="459"/>
      <point x="539" y="498"/>
      <point x="594" y="498" type="curve" smooth="yes"/>
      <point x="694" y="498"/>
      <point x="733" y="430"/>
      <point x="733" y="337" type="curve" smooth="yes"/>
      <point x="733" y="1" type="line"/>
      <point x="671" y="1" type="line"/>
      <point x="671" y="325" type="line" smooth="yes"/>
      <point x="671" y="392"/>
      <point x="654" y="445"/>
      <point x="587" y="445" type="curve" smooth="yes"/>
      <point x="542" y="445"/>
      <point x="470" y="403"/>
    </contour>
  </outline>
</glyph>
<glyph name="n" format="2">
  <advance width="516"/>
  <unicode hex="006E"/>
  <anchor x="265" y="0" name="bottom"/>
  <anchor x="270" y="485" name="top"/>
  <outline>
    <contour>
      <point x="127" y="0" type="line"/>
      <point x="65" y="0" type="line"/>
      <point x="65" y="485" type="line"/>
      <point x="116" y="485" type="line"/>
      <point x="126" y="411" type="line"/>
      <point x="167" y="459"/>
      <point x="246" y="498"/>
      <point x="306" y="498" type="curve" smooth="yes"/>
      <point x="410" y="498"/>
      <point x="455" y="430"/>
      <point x="455" y="337" type="curve" smooth="yes"/>
      <point x="455" y="1" type="line"/>
      <point x="393" y="1" type="line"/>
      <point x="393" y="325" type="line" smooth="yes"/>
      <point x="393" y="392"/>
      <point x="370" y="445"/>
      <point x="299" y="445" type="curve" smooth="yes"/>
      <point x="249" y="445"/>
      <point x="172" y="403"/>
      <point x="127" y="346" type="curve"/>
    </contour>
  </outline>
</glyph>
<glyph name="p" format="2">
  <advance width="516"/>
  <unicode hex="0070"/>
  <outline>
    <contour>
      <point x="133" y="-208" type="line"/>
      <point x="71" y="-219" type="line"/>
      <point x="71" y="485" type="line"/>
      <point x="112" y="485" type="line"/>
      <point x="133" y="419" type="line"/>
    </contour>
    <contour>
      <point x="121" y="376" type="curve"/>
      <point x="101" y="421" type="line"/>
      <point x="141" y="467"/>
      <point x="198" y="498"/>
      <point x="260" y="498" type="curve" smooth="yes"/>
      <point x="403" y="498"/>
      <point x="481" y="393"/>
      <point x="481" y="242" type="curve" smooth="yes"/>
      <point x="480" y="97"/>
      <point x="399" y="-13"/>
      <point x="256" y="-13" type="curve" smooth="yes"/>
      <point x="190" y="-13"/>
      <point x="139" y="27"/>
      <point x="100" y="63" type="curve"/>
      <point x="120" y="103" type="line"/>
      <point x="153" y="72"/>
      <point x="190" y="39"/>
      <point x="259" y="39" type="curve" smooth="yes"/>
      <point x="366" y="39"/>
      <point x="417" y="128"/>
      <point x="418" y="241" type="curve" smooth="yes"/>
      <point x="418" y="360"/>
      <point x="370" y="446"/>
      <point x="261" y="446" type="curve" smooth="yes"/>
      <point x="197" y="446"/>
      <point x="156" y="416"/>
    </contour>
  </outline>
</glyph>
<glyph name="r" format="2">
  <advance width="310"/>
  <unicode hex="0072"/>
  <anchor x="97" y="0" name="bottom"/>
  <anchor x="156" y="485" name="top"/>
  <outline>
    <contour>
      <point x="127" y="0" type="line"/>
      <point x="65" y="0" type="line"/>
      <point x="65" y="485" type="line"/>
      <point x="106" y="485" type="line"/>
      <point x="124" y="408" type="line"/>
      <point x="159" y="437"/>
      <point x="232" y="485"/>
      <point x="283" y="485" type="curve"/>
      <point x="300" y="436" type="line"/>
      <point x="239" y="436"/>
      <point x="164" y="387"/>
      <point x="127" y="346" type="curve"/>
    </contour>
  </outline>
</glyph>
<glyph name="s" format="2">
  <advance width="419"/>
  <unicode hex="0073"/>
  <anchor x="197" y="0" name="bottom"/>
  <anchor x="216" y="485" name="top"/>
  <outline>
    <contour>
      <point x="41" y="25" type="curve"/>
      <point x="61" y="71" type="line"/>
      <point x="96" y="54"/>
      <point x="143" y="37"/>
      <point x="194" y="37" type="curve" smooth="yes"/>
      <point x="274" y="37"/>
      <point x="326" y="64"/>
      <point x="326" y="119" type="curve" smooth="yes"/>
      <point x="326" y="166"/>
      <point x="263" y="199"/>
      <point x="194" y="223" type="curve" smooth="yes"/>
      <point x="118" y="248"/>
      <point x="37" y="288"/>
      <point x="37" y="364" type="curve" smooth="yes"/>
      <point x="37" y="448"/>
      <point x="106" y="498"/>
      <point x="215" y="498" type="curve" smooth="yes"/>
      <point x="256" y="498"/>
      <point x="328" y="482"/>
      <point x="361" y="458" type="curve"/>
      <point x="341" y="414" type="line"/>
      <point x="314" y="427"/>
      <point x="273" y="448"/>
      <point x="213" y="448" type="curve" smooth="yes"/>
      <point x="145" y="448"/>
      <point x="96" y="415"/>
      <point x="96" y="368" type="curve" smooth="yes"/>
      <point x="97" y="323"/>
      <point x="154" y="297"/>
      <point x="222" y="274" type="curve" smooth="yes"/>
      <point x="301" y="246"/>
      <point x="384" y="201"/>
      <point x="384" y="124" type="curve" smooth="yes"/>
      <point x="384" y="39"/>
      <point x="316" y="-13"/>
      <point x="192" y="-13" type="curve" smooth="yes"/>
      <point x="152" y="-13"/>
      <point x="78" y="0"/>
    </contour>
  </outline>
</glyph>
<glyph name="t" format="2">
  <advance width="298"/>
  <unicode hex="0074"/>
  <anchor x="176" y="0" name="bottom"/>
  <outline>
    <contour>
      <point x="240" y="475" type="line"/>
      <point x="261" y="428" type="line"/>
      <point x="152" y="428" type="line"/>
      <point x="152" y="123" type="line" smooth="yes"/>
      <point x="152" y="75"/>
      <point x="171" y="41"/>
      <point x="220" y="41" type="curve" smooth="yes"/>
      <point x="235" y="41"/>
      <point x="254" y="47"/>
      <point x="261" y="50" type="curve"/>
      <point x="273" y="-1" type="line"/>
      <point x="266" y="-2"/>
      <point x="257" y="-5"/>
      <point x="246" y="-8" type="curve" smooth="yes"/>
      <point x="234" y="-11"/>
      <point x="221" y="-13"/>
      <point x="207" y="-13" type="curve" smooth="yes"/>
      <point x="136" y="-13"/>
      <point x="89" y="32"/>
      <point x="89" y="116" type="curve" smooth="yes"/>
      <point x="89" y="428" type="line"/>
      <point x="18" y="428" type="line"/>
      <point x="17" y="475" type="line"/>
      <point x="89" y="475" type="line"/>
      <point x="89" y="601" type="line"/>
      <point x="152" y="623" type="line"/>
      <point x="152" y="475" type="line"/>
    </contour>
  </outline>
</glyph>
<glyph name="u" format="2">
  <advance width="516"/>
  <unicode hex="0075"/>
  <anchor x="425" y="0" name="bottom"/>
  <anchor x="252" y="485" name="top"/>
  <outline>
    <contour>
      <point x="389" y="486" type="line"/>
      <point x="451" y="486" type="line"/>
      <point x="451" y="0" type="line"/>
      <point x="400" y="0" type="line"/>
      <point x="390" y="75" type="line"/>
      <point x="349" y="27"/>
      <point x="270" y="-12"/>
      <point x="210" y="-12" type="curve" smooth="yes"/>
      <point x="106" y="-12"/>
      <point x="61" y="56"/>
      <point x="61" y="149" type="curve" smooth="yes"/>
      <point x="61" y="485" type="line"/>
      <point x="123" y="485" type="line"/>
      <point x="123" y="161" type="line" smooth="yes"/>
      <point x="123" y="94"/>
      <point x="146" y="41"/>
      <point x="217" y="41" type="curve" smooth="yes"/>
      <point x="267" y="41"/>
      <point x="344" y="83"/>
      <point x="389" y="140" type="curve"/>
    </contour>
  </outline>
</glyph>
<glyph name="v" format="2">
  <advance width="438"/>
  <unicode hex="0076"/>
  <outline>
    <contour>
      <point x="251" y="0" type="line"/>
      <point x="185" y="0" type="line"/>
      <point x="10" y="472" type="line"/>
      <point x="62" y="498" type="line"/>
      <point x="218" y="79" type="line"/>
      <point x="368" y="485" type="line"/>
      <point x="428" y="485" type="line"/>
    </contour>
  </outline>
</glyph>
<glyph name="w" format="2">
  <advance width="642"/>
  <unicode hex="0077"/>
  <outline>
    <contour>
      <point x="496" y="0" type="line"/>
      <point x="429" y="0" type="line"/>
      <point x="315" y="393" type="line"/>
      <point x="211" y="0" type="line"/>
      <point x="144" y="0" type="line"/>
      <point x="10" y="471" type="line"/>
      <point x="62" y="497" type="line"/>
      <point x="177" y="83" type="line"/>
      <point x="287" y="485" type="line"/>
      <point x="346" y="485" type="line"/>
      <point x="461" y="83" type="line"/>
      <point x="571" y="485" type="line"/>
      <point x="632" y="485" type="line"/>
    </contour>
  </outline>
</glyph>
<glyph name="x" format="2">
  <advance width="429"/>
  <unicode hex="0078"/>
  <outline>
    <contour>
      <point x="80" y="0" type="line"/>
      <point x="10" y="0" type="line"/>
      <point x="173" y="245" type="line"/>
      <point x="26" y="470" type="line"/>
      <point x="81" y="495" type="line"/>
      <point x="219" y="279" type="line"/>
      <point x="351" y="485" type="line"/>
      <point x="419" y="485" type="line"/>
      <point x="253" y="233" type="line"/>
      <point x="405" y="0" type="line"/>
      <point x="337" y="0" type="line"/>
      <point x="207" y="199" type="line"/>
    </contour>
  </outline>
</glyph>
<glyph name="y" format="2">
  <advance width="438"/>
  <unicode hex="0079"/>
  <anchor x="218" y="485" name="top"/>
  <outline>
    <contour>
      <point x="160" y="-98" type="curve" smooth="yes"/>
      <point x="192" y="-7" type="line"/>
      <point x="10" y="471" type="line"/>
      <point x="59" y="497" type="line"/>
      <point x="218" y="83" type="line"/>
      <point x="368" y="485" type="line"/>
      <point x="428" y="485" type="line"/>
      <point x="215" y="-112" type="line" smooth="yes"/>
      <point x="195" y="-167"/>
      <point x="146" y="-206"/>
      <point x="82" y="-219" type="curve"/>
      <point x="65" y="-179" type="line"/>
      <point x="114" y="-156"/>
      <point x="143" y="-143"/>
    </contour>
  </outline>
</glyph>
<glyph name="z" format="2">
  <advance width="432"/>
  <unicode hex="007A"/>
  <anchor x="228" y="485" name="top"/>
  <outline>
    <contour>
      <point x="406" y="485" type="line"/>
      <point x="409" y="453" type="line"/>
      <point x="98" y="48" type="line"/>
      <point x="393" y="48" type="line"/>
      <point x="403" y="0" type="line"/>
      <point x="31" y="0" type="line"/>
      <point x="23" y="31" type="line"/>
      <point x="330" y="436" type="line"/>
      <point x="68" y="436" type="line"/>
      <point x="52" y="485" type="line"/>
    </contour>
  </outline>
</glyph>
<glyph name="braceleft" format="2">
  <advance width="265"/>
  <unicode hex="007B"/>
  <outline>
    <contour>
      <point x="133" y="311" type="curve"/>
      <point x="174" y="294"/>
      <point x="197" y="254"/>
      <point x="197" y="199" type="curve" smooth="yes"/>
      <point x="197" y="180"/>
      <point x="191" y="157"/>
      <point x="178" y="128" type="curve" smooth="yes"/>
      <point x="165" y="99"/>
      <point x="159" y="75"/>
      <point x="159" y="58" type="curve" smooth="yes"/>
      <point x="159" y="29"/>
      <point x="182" y="3"/>
      <point x="231" y="3" type="curve" smooth="yes"/>
      <point x="250" y="3" type="line"/>
      <point x="255" y="-42" type="line"/>
      <point x="229" y="-42" type="line" smooth="yes"/>
      <point x="145" y="-42"/>
      <point x="105" y="-1"/>
      <point x="105" y="64" type="curve" smooth="yes"/>
      <point x="105" y="85"/>
      <point x="111" y="109"/>
      <point x="123" y="136" type="curve" smooth="yes"/>
      <point x="135" y="163"/>
      <point x="141" y="186"/>
      <point x="141" y="207" type="curve" smooth="yes"/>
      <point x="141" y="258"/>
      <point x="103" y="288"/>
      <point x="63" y="288" type="curve" smooth="yes"/>
      <point x="30" y="288" type="line"/>
      <point x="30" y="328" type="line"/>
      <point x="63" y="328" type="line" smooth="yes"/>
      <point x="103" y="328"/>
      <point x="141" y="361"/>
      <point x="141" y="410" type="curve" smooth="yes"/>
      <point x="141" y="431"/>
      <point x="135" y="455"/>
      <point x="123" y="482" type="curve" smooth="yes"/>
      <point x="111" y="509"/>
      <point x="105" y="533"/>
      <point x="105" y="554" type="curve" smooth="yes"/>
      <point x="105" y="618"/>
      <point x="145" y="659"/>
      <point x="229" y="659" type="curve" smooth="yes"/>
      <point x="255" y="659" type="line"/>
      <point x="250" y="614" type="line"/>
      <point x="231" y="614" type="line" smooth="yes"/>
      <point x="182" y="614"/>
      <point x="159" y="588"/>
      <point x="159" y="560" type="curve" smooth="yes"/>
      <point x="159" y="542"/>
      <point x="165" y="518"/>
      <point x="178" y="489" type="curve" smooth="yes"/>
      <point x="191" y="460"/>
      <point x="197" y="436"/>
      <point x="197" y="419" type="curve" smooth="yes"/>
      <point x="197" y="360"/>
      <point x="178" y="326"/>
    </contour>
  </outline>
</glyph>
<glyph name="bar" format="2">
  <advance width="252"/>
  <unicode hex="007C"/>
  <outline>
    <contour>
      <point x="95" y="710" type="line"/>
      <point x="157" y="706" type="line"/>
      <point x="157" y="-4" type="line"/>
      <point x="95" y="0" type="line"/>
    </contour>
  </outline>
</glyph>
<glyph name="braceright" format="2">
  <advance width="264"/>
  <unicode hex="007D"/>
  <outline>
    <contour>
      <point x="133" y="306" type="curve"/>
      <point x="90" y="323"/>
      <point x="67" y="363"/>
      <point x="67" y="419" type="curve" smooth="yes"/>
      <point x="67" y="436"/>
      <point x="73" y="460"/>
      <point x="86" y="489" type="curve" smooth="yes"/>
      <point x="99" y="518"/>
      <point x="105" y="542"/>
      <point x="105" y="560" type="curve" smooth="yes"/>
      <point x="105" y="588"/>
      <point x="82" y="614"/>
      <point x="34" y="614" type="curve" smooth="yes"/>
      <point x="15" y="614" type="line"/>
      <point x="10" y="659" type="line"/>
      <point x="35" y="659" type="line" smooth="yes"/>
      <point x="120" y="659"/>
      <point x="160" y="618"/>
      <point x="160" y="554" type="curve" smooth="yes"/>
      <point x="160" y="533"/>
      <point x="154" y="509"/>
      <point x="142" y="482" type="curve" smooth="yes"/>
      <point x="129" y="455"/>
      <point x="123" y="431"/>
      <point x="123" y="410" type="curve" smooth="yes"/>
      <point x="123" y="361"/>
      <point x="161" y="329"/>
      <point x="201" y="329" type="curve" smooth="yes"/>
      <point x="234" y="329" type="line"/>
      <point x="234" y="290" type="line"/>
      <point x="201" y="290" type="line" smooth="yes"/>
      <point x="161" y="290"/>
      <point x="123" y="258"/>
      <point x="123" y="207" type="curve" smooth="yes"/>
      <point x="123" y="186"/>
      <point x="129" y="163"/>
      <point x="142" y="136" type="curve" smooth="yes"/>
      <point x="154" y="109"/>
      <point x="160" y="85"/>
      <point x="160" y="64" type="curve" smooth="yes"/>
      <point x="160" y="-1"/>
      <point x="120" y="-42"/>
      <point x="35" y="-42" type="curve" smooth="yes"/>
      <point x="10" y="-42" type="line"/>
      <point x="15" y="3" type="line"/>
      <point x="34" y="3" type="line" smooth="yes"/>
      <point x="82" y="3"/>
      <point x="105" y="29"/>
      <point x="105" y="58" type="curve" smooth="yes"/>
      <point x="105" y="75"/>
      <point x="99" y="99"/>
      <point x="86" y="128" type="curve" smooth="yes"/>
      <point x="73" y="157"/>
      <point x="67" y="180"/>
      <point x="67" y="199" type="curve" smooth="yes"/>
      <point x="67" y="256"/>
      <point x="88" y="291"/>
    </contour>
  </outline>
</glyph>
<glyph name="asciitilde" format="2">
  <advance width="382"/>
  <unicode hex="007E"/>
  <outline>
    <contour>
      <point x="30" y="205" type="line"/>
      <point x="30" y="273"/>
      <point x="72" y="295"/>
      <point x="124" y="295" type="curve" smooth="yes"/>
      <point x="152" y="295"/>
      <point x="177" y="287"/>
      <point x="199" y="271" type="curve" smooth="yes"/>
      <point x="220" y="255"/>
      <point x="240" y="247"/>
      <point x="257" y="247" type="curve" smooth="yes"/>
      <point x="282" y="247"/>
      <point x="304" y="259"/>
      <point x="305" y="290" type="curve"/>
      <point x="352" y="290" type="line"/>
      <point x="352" y="221"/>
      <point x="309" y="199"/>
      <point x="258" y="199" type="curve" smooth="yes"/>
      <point x="235" y="199"/>
      <point x="212" y="207"/>
      <point x="187" y="223" type="curve" smooth="yes"/>
      <point x="162" y="239"/>
      <point x="141" y="247"/>
      <point x="124" y="247" type="curve" smooth="yes"/>
      <point x="99" y="247"/>
      <point x="78" y="234"/>
      <point x="75" y="205" type="curve"/>
    </contour>
  </outline>
</glyph>
<glyph name="exclamdown" format="2">
  <advance width="156"/>
  <unicode hex="00A1"/>
  <outline>
    <contour>
      <point x="79" y="605" type="curve" smooth="yes"/>
      <point x="52" y="605"/>
      <point x="30" y="627"/>
      <point x="30" y="654" type="curve" smooth="yes"/>
      <point x="30" y="679"/>
      <point x="52" y="702"/>
      <point x="79" y="702" type="curve" smooth="yes"/>
      <point x="104" y="702"/>
      <point x="126" y="679"/>
      <point x="126" y="654" type="curve" smooth="yes"/>
      <point x="126" y="627"/>
      <point x="104" y="605"/>
    </contour>
    <contour>
      <point x="100" y="485" type="line"/>
      <point x="116" y="0" type="line"/>
      <point x="42" y="0" type="line"/>
      <point x="58" y="505" type="line"/>
    </contour>
  </outline>
</glyph>
<glyph name="cent" format="2">
  <advance width="451"/>
  <unicode hex="00A2"/>
  <outline>
    <contour>
      <point x="297" y="469" type="line"/>
      <point x="246" y="470" type="line"/>
      <point x="246" y="595" type="line"/>
      <point x="297" y="605" type="line"/>
    </contour>
    <contour>
      <point x="297" y="9" type="line"/>
      <point x="297" y="-111" type="line"/>
      <point x="246" y="-111" type="line"/>
      <point x="246" y="6" type="line"/>
    </contour>
    <contour>
      <point x="395" y="73" type="curve"/>
      <point x="415" y="28" type="line"/>
      <point x="375" y="3"/>
      <point x="303" y="-13"/>
      <point x="262" y="-13" type="curve" smooth="yes"/>
      <point x="119" y="-13"/>
      <point x="35" y="94"/>
      <point x="35" y="245" type="curve" smooth="yes"/>
      <point x="36" y="390"/>
      <point x="126" y="498"/>
      <point x="269" y="498" type="curve" smooth="yes"/>
      <point x="308" y="498"/>
      <point x="381" y="481"/>
      <point x="420" y="456" type="curve"/>
      <point x="400" y="412" type="line"/>
      <point x="367" y="428"/>
      <point x="335" y="446"/>
      <point x="266" y="446" type="curve" smooth="yes"/>
      <point x="159" y="446"/>
      <point x="99" y="359"/>
      <point x="98" y="246" type="curve" smooth="yes"/>
      <point x="98" y="127"/>
      <point x="152" y="39"/>
      <point x="261" y="39" type="curve" smooth="yes"/>
      <point x="332" y="39"/>
      <point x="360" y="56"/>
    </contour>
  </outline>
</glyph>
<glyph name="sterling" format="2">
  <advance width="431"/>
  <unicode hex="00A3"/>
  <outline>
    <contour>
      <point x="65" y="0" type="line"/>
      <point x="60" y="50" type="line"/>
      <point x="111" y="51"/>
      <point x="128" y="85"/>
      <point x="128" y="133" type="curve" smooth="yes"/>
      <point x="128" y="330" type="line"/>
      <point x="57" y="330" type="line"/>
      <point x="55" y="376" type="line"/>
      <point x="128" y="376" type="line"/>
      <point x="128" y="545" type="line" smooth="yes"/>
      <point x="128" y="629"/>
      <point x="175" y="684"/>
      <point x="246" y="684" type="curve" smooth="yes"/>
      <point x="273" y="684"/>
      <point x="299" y="675"/>
      <point x="312" y="671" type="curve"/>
      <point x="300" y="618" type="line"/>
      <point x="293" y="622"/>
      <point x="273" y="629"/>
      <point x="260" y="629" type="curve" smooth="yes"/>
      <point x="209" y="629"/>
      <point x="191" y="594"/>
      <point x="191" y="545" type="curve" smooth="yes"/>
      <point x="191" y="376" type="line"/>
      <point x="327" y="376" type="line"/>
      <point x="349" y="330" type="line"/>
      <point x="191" y="330" type="line"/>
      <point x="191" y="154" type="line" smooth="yes"/>
      <point x="191" y="109"/>
      <point x="178" y="74"/>
      <point x="157" y="50" type="curve"/>
      <point x="415" y="50" type="line"/>
      <point x="421" y="0" type="line"/>
    </contour>
  </outline>
</glyph>
<glyph name="currency" format="2">
  <advance width="664"/>
  <unicode hex="00A4"/>
  <outline>
    <contour>
      <point x="64" y="-59" type="line"/>
      <point x="30" y="-18" type="line"/>
      <point x="133" y="87" type="line"/>
      <point x="105" y="130"/>
      <point x="89" y="185"/>
      <point x="89" y="245" type="curve" smooth="yes"/>
      <point x="89" y="302"/>
      <point x="107" y="353"/>
      <point x="135" y="394" type="curve"/>
      <point x="30" y="501" type="line"/>
      <point x="64" y="543" type="line"/>
      <point x="172" y="435" type="line"/>
      <point x="215" y="472"/>
      <point x="271" y="497"/>
      <point x="336" y="498" type="curve" smooth="yes"/>
      <point x="400" y="498"/>
      <point x="455" y="474"/>
      <point x="496" y="437" type="curve"/>
      <point x="600" y="543" type="line"/>
      <point x="634" y="501" type="line"/>
      <point x="531" y="395" type="line"/>
      <point x="560" y="354"/>
      <point x="576" y="300"/>
      <point x="576" y="239" type="curve" smooth="yes"/>
      <point x="575" y="182"/>
      <point x="558" y="131"/>
      <point x="530" y="90" type="curve"/>
      <point x="634" y="-18" type="line"/>
      <point x="600" y="-59" type="line"/>
      <point x="493" y="49" type="line"/>
      <point x="450" y="9"/>
      <point x="391" y="-13"/>
      <point x="324" y="-13" type="curve" smooth="yes"/>
      <point x="263" y="-12"/>
      <point x="209" y="10"/>
      <point x="169" y="47" type="curve"/>
    </contour>
    <contour>
      <point x="513" y="239" type="curve" smooth="yes"/>
      <point x="513" y="355"/>
      <point x="448" y="445"/>
      <point x="337" y="445" type="curve" smooth="yes"/>
      <point x="230" y="445"/>
      <point x="153" y="359"/>
      <point x="152" y="246" type="curve" smooth="yes"/>
      <point x="152" y="127"/>
      <point x="219" y="40"/>
      <point x="327" y="40" type="curve" smooth="yes"/>
      <point x="434" y="40"/>
      <point x="512" y="123"/>
    </contour>
  </outline>
</glyph>
<glyph name="yen" format="2">
  <advance width="546"/>
  <unicode hex="00A5"/>
  <outline>
    <contour>
      <point x="54" y="309" type="line"/>
      <point x="483" y="309" type="line"/>
      <point x="492" y="259" type="line"/>
      <point x="62" y="259" type="line"/>
    </contour>
    <contour>
      <point x="54" y="127" type="line"/>
      <point x="483" y="127" type="line"/>
      <point x="492" y="78" type="line"/>
      <point x="62" y="78" type="line"/>
    </contour>
    <contour>
      <point x="297" y="0" type="line"/>
      <point x="234" y="0" type="line"/>
      <point x="235" y="276" type="line"/>
      <point x="10" y="664" type="line"/>
      <point x="65" y="695" type="line"/>
      <point x="266" y="336" type="line"/>
      <point x="469" y="680" type="line"/>
      <point x="536" y="680" type="line"/>
      <point x="298" y="283" type="line"/>
    </contour>
  </outline>
</glyph>
<glyph name="brokenbar" format="2">
  <advance width="252"/>
  <unicode hex="00A6"/>
  <outline>
    <contour>
      <point x="95" y="710" type="line"/>
      <point x="157" y="706" type="line"/>
      <point x="157" y="406" type="line"/>
      <point x="95" y="410" type="line"/>
    </contour>
    <contour>
      <point x="95" y="292" type="line"/>
      <point x="157" y="288" type="line"/>
      <point x="157" y="-4" type="line"/>
      <point x="95" y="0" type="line"/>
    </contour>
  </outline>
</glyph>
<glyph name="section" format="2">
  <advance width="562"/>
  <unicode hex="00A7"/>
  <outline>
    <contour>
      <point x="439" y="104" type="curve"/>
      <point x="414" y="152" type="line"/>
      <point x="449" y="174"/>
      <point x="468" y="207"/>
      <point x="468" y="245" type="curve" smooth="yes"/>
      <point x="468" y="323"/>
      <point x="403" y="361"/>
      <point x="283" y="412" type="curve" smooth="yes"/>
      <point x="163" y="463"/>
      <point x="99" y="530"/>
      <point x="99" y="615" type="curve" smooth="yes"/>
      <point x="99" y="708"/>
      <point x="183" y="781"/>
      <point x="311" y="781" type="curve" smooth="yes"/>
      <point x="378" y="781"/>
      <point x="439" y="762"/>
      <point x="479" y="742" type="curve"/>
      <point x="457" y="695" type="line"/>
      <point x="422" y="711"/>
      <point x="382" y="729"/>
      <point x="313" y="729" type="curve" smooth="yes"/>
      <point x="217" y="729"/>
      <point x="157" y="684"/>
      <point x="157" y="615" type="curve" smooth="yes"/>
      <point x="157" y="536"/>
      <point x="223" y="502"/>
      <point x="344" y="445" type="curve" smooth="yes"/>
      <point x="465" y="388"/>
      <point x="527" y="344"/>
      <point x="527" y="245" type="curve" smooth="yes"/>
      <point x="527" y="185"/>
      <point x="496" y="135"/>
    </contour>
    <contour>
      <point x="56" y="-76" type="curve"/>
      <point x="71" y="-28" type="line"/>
      <point x="106" y="-45"/>
      <point x="170" y="-67"/>
      <point x="237" y="-67" type="curve" smooth="yes"/>
      <point x="352" y="-67"/>
      <point x="414" y="-14"/>
      <point x="414" y="55" type="curve" smooth="yes"/>
      <point x="414" y="133"/>
      <point x="349" y="171"/>
      <point x="229" y="222" type="curve" smooth="yes"/>
      <point x="109" y="273"/>
      <point x="45" y="340"/>
      <point x="45" y="425" type="curve" smooth="yes"/>
      <point x="45" y="482"/>
      <point x="77" y="532"/>
      <point x="131" y="561" type="curve"/>
      <point x="164" y="520" type="line"/>
      <point x="125" y="500"/>
      <point x="103" y="467"/>
      <point x="103" y="425" type="curve" smooth="yes"/>
      <point x="103" y="346"/>
      <point x="169" y="312"/>
      <point x="290" y="255" type="curve" smooth="yes"/>
      <point x="411" y="198"/>
      <point x="473" y="154"/>
      <point x="473" y="55" type="curve" smooth="yes"/>
      <point x="473" y="-45"/>
      <point x="386" y="-118"/>
      <point x="238" y="-118" type="curve" smooth="yes"/>
      <point x="181" y="-118"/>
      <point x="100" y="-100"/>
    </contour>
  </outline>
</glyph>
<glyph name="dieresis" format="2">
  <advance width="263"/>
  <unicode hex="00A8"/>
  <anchor x="136" y="485" name="_top"/>
  <outline>
    <contour>
      <point x="210" y="618" type="curve" smooth="yes"/>
      <point x="186" y="618"/>
      <point x="167" y="637"/>
      <point x="167" y="662" type="curve" smooth="yes"/>
      <point x="167" y="685"/>
      <point x="186" y="704"/>
      <point x="210" y="704" type="curve" smooth="yes"/>
      <point x="235" y="704"/>
      <point x="253" y="685"/>
      <point x="253" y="662" type="curve" smooth="yes"/>
      <point x="253" y="637"/>
      <point x="235" y="618"/>
    </contour>
    <contour>
      <point x="53" y="618" type="curve" smooth="yes"/>
      <point x="30" y="618"/>
      <point x="10" y="637"/>
      <point x="10" y="662" type="curve" smooth="yes"/>
      <point x="10" y="685"/>
      <point x="30" y="704"/>
      <point x="53" y="704" type="curve" smooth="yes"/>
      <point x="78" y="704"/>
      <point x="97" y="685"/>
      <point x="97" y="662" type="curve" smooth="yes"/>
      <point x="97" y="637"/>
      <point x="78" y="618"/>
    </contour>
  </outline>
</glyph>
<glyph name="copyright" format="2">
  <advance width="791"/>
  <unicode hex="00A9"/>
  <outline>
    <contour>
      <point x="756" y="336" type="curve" smooth="yes"/>
      <point x="756" y="139"/>
      <point x="617" y="-20"/>
      <point x="396" y="-20" type="curve" smooth="yes"/>
      <point x="175" y="-20"/>
      <point x="35" y="139"/>
      <point x="35" y="336" type="curve" smooth="yes"/>
      <point x="35" y="535"/>
      <point x="175" y="694"/>
      <point x="396" y="694" type="curve" smooth="yes"/>
      <point x="617" y="694"/>
      <point x="756" y="535"/>
    </contour>
    <contour>
      <point x="94" y="337" type="curve" smooth="yes"/>
      <point x="94" y="162"/>
      <point x="209" y="29"/>
      <point x="396" y="29" type="curve" smooth="yes"/>
      <point x="583" y="29"/>
      <point x="699" y="162"/>
      <point x="699" y="337" type="curve" smooth="yes"/>
      <point x="699" y="512"/>
      <point x="583" y="645"/>
      <point x="396" y="645" type="curve" smooth="yes"/>
      <point x="209" y="645"/>
      <point x="94" y="512"/>
    </contour>
    <contour>
      <point x="408" y="106" type="curve" smooth="yes"/>
      <point x="265" y="106"/>
      <point x="196" y="207"/>
      <point x="196" y="342" type="curve" smooth="yes"/>
      <point x="196" y="474"/>
      <point x="273" y="574"/>
      <point x="414" y="574" type="curve" smooth="yes"/>
      <point x="455" y="574"/>
      <point x="523" y="560"/>
      <point x="560" y="533" type="curve"/>
      <point x="540" y="488" type="line"/>
      <point x="507" y="505"/>
      <point x="483" y="522"/>
      <point x="412" y="522" type="curve" smooth="yes"/>
      <point x="305" y="522"/>
      <point x="258" y="444"/>
      <point x="258" y="344" type="curve" smooth="yes"/>
      <point x="258" y="225"/>
      <point x="297" y="157"/>
      <point x="408" y="157" type="curve" smooth="yes"/>
      <point x="476" y="157"/>
      <point x="502" y="174"/>
      <point x="535" y="191" type="curve"/>
      <point x="555" y="148" type="line"/>
      <point x="516" y="121"/>
      <point x="449" y="106"/>
    </contour>
  </outline>
</glyph>
<glyph name="ordfeminine" format="2">
  <advance width="332"/>
  <unicode hex="00AA"/>
  <outline>
    <contour>
      <point x="90" y="463" type="curve" smooth="yes"/>
      <point x="90" y="436"/>
      <point x="113" y="410"/>
      <point x="150" y="410" type="curve" smooth="yes"/>
      <point x="187" y="410"/>
      <point x="220" y="437"/>
      <point x="241" y="466" type="curve"/>
      <point x="241" y="518" type="line"/>
      <point x="164" y="518" type="line" smooth="yes"/>
      <point x="127" y="518"/>
      <point x="90" y="498"/>
    </contour>
    <contour>
      <point x="69" y="631" type="curve"/>
      <point x="57" y="673" type="line"/>
      <point x="82" y="690"/>
      <point x="133" y="702"/>
      <point x="160" y="702" type="curve" smooth="yes"/>
      <point x="245" y="702"/>
      <point x="297" y="643"/>
      <point x="297" y="580" type="curve" smooth="yes"/>
      <point x="297" y="372" type="line"/>
      <point x="255" y="372" type="line"/>
      <point x="244" y="408" type="line"/>
      <point x="225" y="387"/>
      <point x="190" y="363"/>
      <point x="150" y="363" type="curve" smooth="yes"/>
      <point x="85" y="363"/>
      <point x="35" y="406"/>
      <point x="35" y="463" type="curve" smooth="yes"/>
      <point x="35" y="524"/>
      <point x="87" y="559"/>
      <point x="155" y="559" type="curve" smooth="yes"/>
      <point x="241" y="559" type="line"/>
      <point x="241" y="577" type="line" smooth="yes"/>
      <point x="241" y="622"/>
      <point x="214" y="653"/>
      <point x="161" y="653" type="curve" smooth="yes"/>
      <point x="116" y="653"/>
      <point x="93" y="640"/>
    </contour>
  </outline>
</glyph>
<glyph name="guillemotleft" format="2">
  <advance width="363"/>
  <unicode hex="00AB"/>
  <outline>
    <contour>
      <point x="182" y="223" type="line"/>
      <point x="182" y="267" type="line"/>
      <point x="322" y="406" type="line"/>
      <point x="343" y="365" type="line"/>
      <point x="230" y="245" type="line"/>
      <point x="343" y="125" type="line"/>
      <point x="322" y="84" type="line"/>
    </contour>
    <contour>
      <point x="30" y="223" type="line"/>
      <point x="30" y="267" type="line"/>
      <point x="170" y="406" type="line"/>
      <point x="191" y="365" type="line"/>
      <point x="79" y="245" type="line"/>
      <point x="191" y="125" type="line"/>
      <point x="170" y="84" type="line"/>
    </contour>
  </outline>
</glyph>
<glyph name="registered" format="2">
  <advance width="705"/>
  <unicode hex="00AE"/>
  <outline>
    <contour>
      <point x="670" y="487" type="curve" smooth="yes"/>
      <point x="670" y="312"/>
      <point x="548" y="174"/>
      <point x="353" y="174" type="curve" smooth="yes"/>
      <point x="157" y="174"/>
      <point x="35" y="312"/>
      <point x="35" y="487" type="curve" smooth="yes"/>
      <point x="35" y="663"/>
      <point x="157" y="802"/>
      <point x="353" y="802" type="curve" smooth="yes"/>
      <point x="548" y="802"/>
      <point x="670" y="663"/>
    </contour>
    <contour>
      <point x="89" y="488" type="curve" smooth="yes"/>
      <point x="89" y="336"/>
      <point x="188" y="222"/>
      <point x="353" y="221" type="curve" smooth="yes"/>
      <point x="516" y="222"/>
      <point x="616" y="336"/>
      <point x="616" y="488" type="curve" smooth="yes"/>
      <point x="616" y="643"/>
      <point x="516" y="755"/>
      <point x="353" y="755" type="curve" smooth="yes"/>
      <point x="188" y="755"/>
      <point x="89" y="643"/>
    </contour>
    <contour>
      <point x="325" y="640" type="curve" smooth="yes"/>
      <point x="292" y="640" type="line"/>
      <point x="292" y="501" type="line"/>
      <point x="320" y="501" type="line" smooth="yes"/>
      <point x="376" y="501"/>
      <point x="424" y="510"/>
      <point x="425" y="571" type="curve" smooth="yes"/>
      <point x="425" y="636"/>
      <point x="382" y="640"/>
    </contour>
    <contour>
      <point x="511" y="304" type="line"/>
      <point x="453" y="304" type="line"/>
      <point x="363" y="463" type="line"/>
      <point x="353" y="462"/>
      <point x="343.903" y="462"/>
      <point x="334" y="462" type="curve" smooth="yes"/>
      <point x="292" y="462" type="line"/>
      <point x="292" y="304" type="line"/>
      <point x="242" y="304" type="line"/>
      <point x="242" y="680" type="line"/>
      <point x="339" y="680" type="line" smooth="yes"/>
      <point x="418" y="680"/>
      <point x="475" y="651"/>
      <point x="475" y="572" type="curve" smooth="yes"/>
      <point x="475" y="521"/>
      <point x="448" y="491"/>
      <point x="411" y="475" type="curve"/>
    </contour>
  </outline>
</glyph>
<glyph name="macron" format="2">
  <advance width="261"/>
  <unicode hex="00AF"/>
  <anchor x="140" y="485" name="_top"/>
  <outline>
    <contour>
      <point x="10" y="640" type="line"/>
      <point x="10" y="689" type="line"/>
      <point x="245" y="689" type="line"/>
      <point x="251" y="640" type="line"/>
    </contour>
  </outline>
</glyph>
<glyph name="degree" format="2">
  <advance width="233"/>
  <unicode hex="00B0"/>
  <outline>
    <contour>
      <point x="116" y="702" type="curve" smooth="yes"/>
      <point x="175" y="702"/>
      <point x="223" y="656"/>
      <point x="223" y="599" type="curve" smooth="yes"/>
      <point x="223" y="539"/>
      <point x="175" y="498"/>
      <point x="116" y="498" type="curve" smooth="yes"/>
      <point x="59" y="498"/>
      <point x="10" y="539"/>
      <point x="10" y="599" type="curve" smooth="yes"/>
      <point x="10" y="656"/>
      <point x="59" y="702"/>
    </contour>
    <contour>
      <point x="116" y="538" type="curve" smooth="yes"/>
      <point x="149" y="538"/>
      <point x="178" y="566"/>
      <point x="178" y="599" type="curve" smooth="yes"/>
      <point x="178" y="632"/>
      <point x="149" y="659"/>
      <point x="116" y="659" type="curve" smooth="yes"/>
      <point x="81" y="659"/>
      <point x="56" y="632"/>
      <point x="56" y="599" type="curve" smooth="yes"/>
      <point x="56" y="566"/>
      <point x="81" y="538"/>
    </contour>
  </outline>
</glyph>
<glyph name="plusminus" format="2">
  <advance width="492"/>
  <unicode hex="00B1"/>
  <outline>
    <contour>
      <point x="454" y="350" type="line"/>
      <point x="462" y="302" type="line"/>
      <point x="273" y="302" type="line"/>
      <point x="273" y="108" type="line"/>
      <point x="217" y="113" type="line"/>
      <point x="217" y="302" type="line"/>
      <point x="38" y="302" type="line"/>
      <point x="30" y="350" type="line"/>
      <point x="217" y="350" type="line"/>
      <point x="217" y="534" type="line"/>
      <point x="273" y="531" type="line"/>
      <point x="273" y="350" type="line"/>
    </contour>
    <contour>
      <point x="454" y="48" type="line"/>
      <point x="462" y="1" type="line"/>
      <point x="38" y="1" type="line"/>
      <point x="30" y="48" type="line"/>
    </contour>
  </outline>
</glyph>
<glyph name="twosuperior" format="2">
  <advance width="352"/>
  <unicode hex="00B2"/>
  <outline>
    <contour>
      <point x="172" y="771" type="curve" smooth="yes"/>
      <point x="280" y="771"/>
      <point x="318" y="703"/>
      <point x="318" y="647" type="curve" smooth="yes"/>
      <point x="318" y="591"/>
      <point x="281" y="545"/>
      <point x="208" y="481" type="curve" smooth="yes"/>
      <point x="89" y="379" type="line"/>
      <point x="326" y="379" type="line"/>
      <point x="332" y="336" type="line"/>
      <point x="25" y="336" type="line"/>
      <point x="25" y="379" type="line"/>
      <point x="181" y="515" type="line" smooth="yes"/>
      <point x="247.0" y="575.0"/>
      <point x="263.0" y="617.0"/>
      <point x="263" y="647" type="curve" smooth="yes"/>
      <point x="263" y="684"/>
      <point x="238" y="726"/>
      <point x="170" y="726" type="curve" smooth="yes"/>
      <point x="129" y="726"/>
      <point x="81" y="710"/>
      <point x="51" y="689" type="curve"/>
      <point x="29" y="733" type="line"/>
      <point x="65" y="754"/>
      <point x="120" y="771"/>
    </contour>
  </outline>
</glyph>
<glyph name="acute" format="2">
  <advance width="145"/>
  <unicode hex="00B4"/>
  <outline>
    <contour>
      <point x="50" y="589" type="line"/>
      <point x="10" y="602" type="line"/>
      <point x="64" y="742" type="line"/>
      <point x="135" y="742" type="line"/>
    </contour>
  </outline>
</glyph>
<glyph name="mu" format="2">
  <advance width="526"/>
  <unicode hex="00B5"/>
  <outline>
    <contour>
      <point x="133" y="-208" type="line"/>
      <point x="71" y="-219" type="line"/>
      <point x="71" y="313" type="line"/>
      <point x="133" y="312" type="line"/>
    </contour>
    <contour>
      <point x="399" y="486" type="line"/>
      <point x="461" y="486" type="line"/>
      <point x="461" y="1" type="line"/>
      <point x="410" y="1" type="line"/>
      <point x="400" y="75" type="line"/>
      <point x="359" y="27"/>
      <point x="280" y="-12"/>
      <point x="220" y="-12" type="curve" smooth="yes"/>
      <point x="116" y="-12"/>
      <point x="71" y="56"/>
      <point x="71" y="149" type="curve" smooth="yes"/>
      <point x="71" y="485" type="line"/>
      <point x="133" y="485" type="line"/>
      <point x="133" y="161" type="line" smooth="yes"/>
      <point x="133" y="94"/>
      <point x="156" y="41"/>
      <point x="227" y="41" type="curve" smooth="yes"/>
      <point x="277" y="41"/>
      <point x="354" y="83"/>
      <point x="399" y="140" type="curve"/>
    </contour>
  </outline>
</glyph>
<glyph name="paragraph" format="2">
  <advance width="813"/>
  <unicode hex="00B6"/>
  <outline>
    <contour>
      <point x="391" y="0" type="line"/>
      <point x="329" y="0" type="line"/>
      <point x="329" y="264" type="line"/>
      <point x="291" y="264" type="line" smooth="yes"/>
      <point x="150" y="264"/>
      <point x="36" y="328"/>
      <point x="35" y="475" type="curve"/>
      <point x="35" y="623"/>
      <point x="137" y="680"/>
      <point x="280" y="680" type="curve" smooth="yes"/>
      <point x="778" y="680" type="line"/>
      <point x="778" y="631" type="line"/>
      <point x="679" y="631" type="line"/>
      <point x="679" y="0" type="line"/>
      <point x="617" y="0" type="line"/>
      <point x="617" y="631" type="line"/>
      <point x="391" y="631" type="line"/>
    </contour>
  </outline>
</glyph>
<glyph name="periodcentered" format="2">
  <advance width="155"/>
  <unicode hex="00B7"/>
  <outline>
    <contour>
      <point x="78" y="214" type="curve" smooth="yes"/>
      <point x="51" y="214"/>
      <point x="30" y="237"/>
      <point x="30" y="262" type="curve" smooth="yes"/>
      <point x="30" y="289"/>
      <point x="51" y="309"/>
      <point x="78" y="309" type="curve" smooth="yes"/>
      <point x="103" y="309"/>
      <point x="125" y="289"/>
      <point x="125" y="262" type="curve" smooth="yes"/>
      <point x="125" y="237"/>
      <point x="103" y="214"/>
    </contour>
  </outline>
</glyph>
<glyph name="cedilla" format="2">
  <advance width="206"/>
  <unicode hex="00B8"/>
  <outline>
    <contour>
      <point x="52" y="-81" type="curve"/>
      <point x="89" y="13" type="line"/>
      <point x="142" y="13" type="line"/>
      <point x="116" y="-54" type="line"/>
      <point x="161" y="-59"/>
      <point x="196" y="-97"/>
      <point x="196" y="-132" type="curve" smooth="yes"/>
      <point x="196" y="-193"/>
      <point x="143" y="-221"/>
      <point x="84" y="-221" type="curve" smooth="yes"/>
      <point x="60" y="-221"/>
      <point x="27" y="-213"/>
      <point x="10" y="-202" type="curve"/>
      <point x="25" y="-160" type="line"/>
      <point x="37" y="-165"/>
      <point x="63" y="-174"/>
      <point x="84" y="-174" type="curve" smooth="yes"/>
      <point x="112" y="-174"/>
      <point x="142" y="-159"/>
      <point x="142" y="-134" type="curve" smooth="yes"/>
      <point x="142" y="-106"/>
      <point x="101" y="-86"/>
    </contour>
  </outline>
</glyph>
<glyph name="onesuperior" format="2">
  <advance width="247"/>
  <unicode hex="00B9"/>
  <outline>
    <contour>
      <point x="172" y="336" type="line"/>
      <point x="117" y="336" type="line"/>
      <point x="117" y="705" type="line"/>
      <point x="33" y="663" type="line"/>
      <point x="10" y="700" type="line"/>
      <point x="136" y="765" type="line"/>
      <point x="172" y="765" type="line"/>
    </contour>
  </outline>
</glyph>
<glyph name="ordmasculine" format="2">
  <advance width="382"/>
  <unicode hex="00BA"/>
  <outline>
    <contour>
      <point x="190" y="702" type="curve" smooth="yes"/>
      <point x="283" y="702"/>
      <point x="347" y="640"/>
      <point x="347" y="532" type="curve" smooth="yes"/>
      <point x="347" y="428"/>
      <point x="278" y="363"/>
      <point x="190" y="363" type="curve" smooth="yes"/>
      <point x="98" y="363"/>
      <point x="35" y="424"/>
      <point x="35" y="532" type="curve" smooth="yes"/>
      <point x="35" y="636"/>
      <point x="102" y="702"/>
    </contour>
    <contour>
      <point x="190" y="652" type="curve" smooth="yes"/>
      <point x="147" y="652"/>
      <point x="95" y="619"/>
      <point x="95" y="532" type="curve" smooth="yes"/>
      <point x="95" y="449"/>
      <point x="143" y="412"/>
      <point x="190" y="412" type="curve" smooth="yes"/>
      <point x="234" y="412"/>
      <point x="285" y="445"/>
      <point x="285" y="532" type="curve" smooth="yes"/>
      <point x="285" y="616"/>
      <point x="239" y="652"/>
    </contour>
  </outline>
</glyph>
<glyph name="guillemotright" format="2">
  <advance width="364"/>
  <unicode hex="00BB"/>
  <outline>
    <contour>
      <point x="183" y="267" type="line"/>
      <point x="183" y="223" type="line"/>
      <point x="43" y="84" type="line"/>
      <point x="20" y="125" type="line"/>
      <point x="133" y="245" type="line"/>
      <point x="20" y="365" type="line"/>
      <point x="43" y="406" type="line"/>
    </contour>
    <contour>
      <point x="334" y="267" type="line"/>
      <point x="334" y="223" type="line"/>
      <point x="195" y="84" type="line"/>
      <point x="172" y="125" type="line"/>
      <point x="286" y="245" type="line"/>
      <point x="172" y="365" type="line"/>
      <point x="195" y="406" type="line"/>
    </contour>
  </outline>
</glyph>
<glyph name="questiondown" format="2">
  <advance width="404"/>
  <unicode hex="00BF"/>
  <outline>
    <contour>
      <point x="243" y="525" type="curve" smooth="yes"/>
      <point x="218" y="525"/>
      <point x="195" y="547"/>
      <point x="195" y="574" type="curve" smooth="yes"/>
      <point x="195" y="599"/>
      <point x="218" y="622"/>
      <point x="243" y="622" type="curve" smooth="yes"/>
      <point x="270" y="622"/>
      <point x="291" y="599"/>
      <point x="291" y="574" type="curve" smooth="yes"/>
      <point x="291" y="547"/>
      <point x="270" y="525"/>
    </contour>
    <contour>
      <point x="218" y="-80" type="curve" smooth="yes"/>
      <point x="85" y="-80"/>
      <point x="30" y="-13"/>
      <point x="30" y="82" type="curve" smooth="yes"/>
      <point x="30" y="158"/>
      <point x="100" y="241"/>
      <point x="212" y="290" type="curve"/>
      <point x="219" y="483" type="line"/>
      <point x="265" y="464" type="line"/>
      <point x="273" y="258" type="line"/>
      <point x="169" y="225"/>
      <point x="96" y="160"/>
      <point x="96" y="84" type="curve" smooth="yes"/>
      <point x="96" y="4"/>
      <point x="136" y="-26"/>
      <point x="220" y="-26" type="curve" smooth="yes"/>
      <point x="292" y="-26"/>
      <point x="334" y="-2"/>
      <point x="386" y="35" type="curve"/>
      <point x="394" y="-21" type="line"/>
      <point x="343" y="-54"/>
      <point x="297" y="-80"/>
    </contour>
  </outline>
</glyph>
<glyph name="AE" format="2">
  <advance width="842"/>
  <unicode hex="00C6"/>
  <outline>
    <contour>
      <point x="434" y="0" type="line"/>
      <point x="434" y="204" type="line"/>
      <point x="193" y="204" type="line"/>
      <point x="67" y="-5" type="line"/>
      <point x="10" y="5" type="line"/>
      <point x="426" y="680" type="line"/>
      <point x="796" y="680" type="line"/>
      <point x="802" y="635" type="line"/>
      <point x="497" y="635" type="line"/>
      <point x="497" y="371" type="line"/>
      <point x="736" y="371" type="line"/>
      <point x="742" y="326" type="line"/>
      <point x="497" y="326" type="line"/>
      <point x="497" y="50" type="line"/>
      <point x="818" y="50" type="line"/>
      <point x="822" y="0" type="line"/>
    </contour>
    <contour>
      <point x="434" y="595" type="line"/>
      <point x="224" y="254" type="line"/>
      <point x="434" y="254" type="line"/>
    </contour>
  </outline>
</glyph>
<glyph name="multiply" format="2">
  <advance width="488"/>
  <unicode hex="00D7"/>
  <outline>
    <contour>
      <point x="274" y="246" type="line"/>
      <point x="458" y="464" type="line"/>
      <point x="395" y="464" type="line"/>
      <point x="244" y="292" type="line"/>
      <point x="109" y="464" type="line"/>
      <point x="46" y="464" type="line"/>
      <point x="214" y="249" type="line"/>
      <point x="30" y="31" type="line"/>
      <point x="93" y="31" type="line"/>
      <point x="244" y="203" type="line"/>
      <point x="379" y="31" type="line"/>
      <point x="442" y="31" type="line"/>
    </contour>
  </outline>
</glyph>
<glyph name="Thorn" format="2">
  <advance width="551"/>
  <unicode hex="00DE"/>
  <outline>
    <contour>
      <point x="271" y="600" type="curve" smooth="yes"/>
      <point x="157" y="600" type="line"/>
      <point x="157" y="680" type="line"/>
      <point x="95" y="680" type="line"/>
      <point x="95" y="0" type="line"/>
      <point x="157" y="0" type="line"/>
      <point x="157" y="184" type="line"/>
      <point x="260" y="184" type="line" smooth="yes"/>
      <point x="401" y="184"/>
      <point x="515" y="248"/>
      <point x="516" y="395" type="curve" smooth="yes"/>
      <point x="516" y="543"/>
      <point x="412" y="600"/>
    </contour>
    <contour>
      <point x="262" y="237" type="curve" smooth="yes"/>
      <point x="157" y="237" type="line"/>
      <point x="157" y="547" type="line"/>
      <point x="273" y="547" type="line" smooth="yes"/>
      <point x="382" y="547"/>
      <point x="453" y="511"/>
      <point x="453" y="394" type="curve" smooth="yes"/>
      <point x="452" y="281"/>
      <point x="369" y="237"/>
    </contour>
  </outline>
</glyph>
<glyph name="germandbls" format="2">
  <advance width="557"/>
  <unicode hex="00DF"/>
  <outline>
    <contour>
      <point x="75" y="0" type="line"/>
      <point x="75" y="473" type="line" smooth="yes"/>
      <point x="75" y="608"/>
      <point x="164" y="680"/>
      <point x="288" y="680" type="curve" smooth="yes"/>
      <point x="392" y="680"/>
      <point x="482" y="623"/>
      <point x="482" y="503" type="curve" smooth="yes"/>
      <point x="482" y="432"/>
      <point x="453" y="384"/>
      <point x="397" y="356" type="curve"/>
      <point x="469" y="327"/>
      <point x="517" y="275"/>
      <point x="517" y="188" type="curve" smooth="yes"/>
      <point x="517" y="45"/>
      <point x="402" y="0"/>
      <point x="261" y="0" type="curve" smooth="yes"/>
      <point x="212" y="0" type="line"/>
      <point x="212" y="52" type="line"/>
      <point x="263" y="52" type="line" smooth="yes"/>
      <point x="370" y="52"/>
      <point x="454" y="81"/>
      <point x="454" y="186" type="curve" smooth="yes"/>
      <point x="454" y="287"/>
      <point x="382" y="327"/>
      <point x="273" y="327" type="curve" smooth="yes"/>
      <point x="228" y="327" type="line"/>
      <point x="228" y="378" type="line"/>
      <point x="255" y="378" type="line" smooth="yes"/>
      <point x="375" y="378"/>
      <point x="420" y="418"/>
      <point x="420" y="502" type="curve" smooth="yes"/>
      <point x="420" y="590"/>
      <point x="358" y="627"/>
      <point x="286" y="627" type="curve" smooth="yes"/>
      <point x="187" y="627"/>
      <point x="137" y="564"/>
      <point x="137" y="473" type="curve" smooth="yes"/>
      <point x="137" y="0" type="line"/>
    </contour>
  </outline>
</glyph>
<glyph name="ae" format="2">
  <advance width="817"/>
  <unicode hex="00E6"/>
  <outline>
    <contour>
      <point x="782" y="240" type="line"/>
      <point x="782" y="247" type="line" smooth="yes"/>
      <point x="782" y="390"/>
      <point x="719" y="499"/>
      <point x="579" y="499" type="curve" smooth="yes"/>
      <point x="501" y="499"/>
      <point x="442" y="466"/>
      <point x="405" y="413" type="curve"/>
      <point x="378" y="466"/>
      <point x="320" y="498"/>
      <point x="241" y="498" type="curve" smooth="yes"/>
      <point x="201" y="498"/>
      <point x="123" y="481"/>
      <point x="86" y="456" type="curve"/>
      <point x="105" y="412" type="line"/>
      <point x="140" y="428"/>
      <point x="173" y="446"/>
      <point x="244" y="446" type="curve" smooth="yes"/>
      <point x="323" y="446"/>
      <point x="360" y="397"/>
      <point x="360" y="330" type="curve" smooth="yes"/>
      <point x="360" y="281" type="line"/>
      <point x="225" y="281" type="line" smooth="yes"/>
      <point x="124" y="282"/>
      <point x="52" y="228"/>
      <point x="52" y="136" type="curve" smooth="yes"/>
      <point x="52" y="52"/>
      <point x="106" y="-13"/>
      <point x="215" y="-13" type="curve" smooth="yes"/>
      <point x="314" y="-13"/>
      <point x="369" y="43"/>
      <point x="403" y="81" type="curve"/>
      <point x="442" y="23"/>
      <point x="509" y="-12"/>
      <point x="605" y="-12" type="curve" smooth="yes"/>
      <point x="681" y="-12"/>
      <point x="728" y="9"/>
      <point x="775" y="34" type="curve"/>
      <point x="754" y="80" type="line"/>
      <point x="704" y="54"/>
      <point x="658" y="38"/>
      <point x="602" y="38" type="curve" smooth="yes"/>
      <point x="472" y="38"/>
      <point x="423" y="124"/>
      <point x="422" y="240" type="curve"/>
    </contour>
    <contour>
      <point x="424" y="283" type="line"/>
      <point x="433" y="378"/>
      <point x="480" y="447"/>
      <point x="576" y="447" type="curve" smooth="yes"/>
      <point x="672" y="447"/>
      <point x="710" y="378"/>
      <point x="719" y="283" type="curve"/>
    </contour>
    <contour>
      <point x="359" y="240" type="line"/>
      <point x="360" y="199"/>
      <point x="366" y="161"/>
      <point x="378" y="128" type="curve"/>
      <point x="350" y="88"/>
      <point x="314" y="38"/>
      <point x="213" y="38" type="curve" smooth="yes"/>
      <point x="141" y="38"/>
      <point x="113" y="91"/>
      <point x="113" y="136" type="curve" smooth="yes"/>
      <point x="113" y="192"/>
      <point x="151" y="240"/>
      <point x="223" y="240" type="curve" smooth="yes"/>
    </contour>
  </outline>
</glyph>
<glyph name="divide" format="2">
  <advance width="497"/>
  <unicode hex="00F7"/>
  <outline>
    <contour>
      <point x="248" y="360" type="curve" smooth="yes"/>
      <point x="215" y="360"/>
      <point x="191" y="387"/>
      <point x="191" y="416" type="curve" smooth="yes"/>
      <point x="191" y="448"/>
      <point x="215" y="472"/>
      <point x="248" y="472" type="curve" smooth="yes"/>
      <point x="279" y="472"/>
      <point x="303" y="448"/>
      <point x="303" y="416" type="curve" smooth="yes"/>
      <point x="303" y="387"/>
      <point x="279" y="360"/>
    </contour>
    <contour>
      <point x="460" y="298" type="line"/>
      <point x="467" y="248" type="line"/>
      <point x="38" y="248" type="line"/>
      <point x="30" y="298" type="line"/>
    </contour>
    <contour>
      <point x="250" y="57" type="curve" smooth="yes"/>
      <point x="218" y="57"/>
      <point x="194" y="83"/>
      <point x="194" y="114" type="curve" smooth="yes"/>
      <point x="194" y="145"/>
      <point x="218" y="170"/>
      <point x="250" y="170" type="curve" smooth="yes"/>
      <point x="281" y="170"/>
      <point x="306" y="145"/>
      <point x="306" y="114" type="curve" smooth="yes"/>
      <point x="306" y="83"/>
      <point x="281" y="57"/>
    </contour>
  </outline>
</glyph>
<glyph name="oslash" format="2">
  <advance width="527"/>
  <unicode hex="00F8"/>
  <outline>
    <contour>
      <point x="143" y="49" type="line"/>
      <point x="191" y="25" type="line"/>
      <point x="393" y="419" type="line"/>
      <point x="350" y="451" type="line"/>
    </contour>
    <contour>
      <point x="492" y="240" type="curve" smooth="yes"/>
      <point x="492" y="401"/>
      <point x="410" y="498"/>
      <point x="267" y="498" type="curve" smooth="yes"/>
      <point x="124" y="498"/>
      <point x="36" y="389"/>
      <point x="35" y="245" type="curve" smooth="yes"/>
      <point x="35" y="95"/>
      <point x="117" y="-15"/>
      <point x="258" y="-13" type="curve" smooth="yes"/>
      <point x="403" y="-11"/>
      <point x="492" y="96"/>
    </contour>
    <contour>
      <point x="261" y="39" type="curve" smooth="yes"/>
      <point x="152" y="39"/>
      <point x="98" y="127"/>
      <point x="98" y="246" type="curve" smooth="yes"/>
      <point x="99" y="359"/>
      <point x="159" y="446"/>
      <point x="266" y="446" type="curve" smooth="yes"/>
      <point x="375" y="446"/>
      <point x="429" y="358"/>
      <point x="429" y="239" type="curve" smooth="yes"/>
      <point x="428" y="126"/>
      <point x="368" y="39"/>
    </contour>
  </outline>
</glyph>
<glyph name="thorn" format="2">
  <advance width="516"/>
  <unicode hex="00FE"/>
  <outline>
    <contour>
      <point x="260" y="498" type="curve" smooth="yes"/>
      <point x="213.066" y="498"/>
      <point x="168.998" y="480.236"/>
      <point x="133" y="451.648" type="curve"/>
      <point x="133" y="706" type="line"/>
      <point x="71" y="696" type="line"/>
      <point x="71" y="-219" type="line"/>
      <point x="133" y="-208" type="line"/>
      <point x="133" y="34.81" type="line"/>
      <point x="166.61" y="8.864"/>
      <point x="207.205" y="-13"/>
      <point x="256" y="-13" type="curve" smooth="yes"/>
      <point x="399" y="-13"/>
      <point x="480" y="97"/>
      <point x="481" y="242" type="curve" smooth="yes"/>
      <point x="481" y="393"/>
      <point x="403" y="498"/>
    </contour>
    <contour>
      <point x="259" y="39" type="curve" smooth="yes"/>
      <point x="198.881" y="39"/>
      <point x="163.054" y="64.052"/>
      <point x="133" y="91.006" type="curve"/>
      <point x="133" y="389.025" type="line"/>
      <point x="165.465" y="422.339"/>
      <point x="204.162" y="446"/>
      <point x="261" y="446" type="curve" smooth="yes"/>
      <point x="370" y="446"/>
      <point x="418" y="360"/>
      <point x="418" y="241" type="curve" smooth="yes"/>
      <point x="417" y="128"/>
      <point x="366" y="39"/>
    </contour>
  </outline>
</glyph>
<glyph name="Aogonek" format="2">
  <advance width="592"/>
  <unicode hex="0104"/>
  <anchor x="552" y="5" name="_bottom"/>
  <outline>
    <contour>
      <point x="533" y="9" type="curve"/>
      <point x="582" y="5" type="line"/>
      <point x="547" y="-19"/>
      <point x="521" y="-64"/>
      <point x="521" y="-102" type="curve" smooth="yes"/>
      <point x="521" y="-142"/>
      <point x="548" y="-155"/>
      <point x="573" y="-155" type="curve" smooth="yes"/>
      <point x="594" y="-155"/>
      <point x="612" y="-147"/>
      <point x="628" y="-134" type="curve"/>
      <point x="650" y="-172" type="line"/>
      <point x="633" y="-189"/>
      <point x="603" y="-202"/>
      <point x="570" y="-202" type="curve" smooth="yes"/>
      <point x="510" y="-202"/>
      <point x="466" y="-163"/>
      <point x="466" y="-106" type="curve" smooth="yes"/>
      <point x="466" y="-70"/>
      <point x="494" y="-22"/>
    </contour>
    <component base="A"/>
  </outline>
</glyph>
<glyph name="aogonek" format="2">
  <advance width="483"/>
  <unicode hex="0105"/>
  <outline>
    <contour>
      <point x="373" y="4" type="curve"/>
      <point x="422" y="0" type="line"/>
      <point x="387" y="-24"/>
      <point x="361" y="-69"/>
      <point x="361" y="-107" type="curve" smooth="yes"/>
      <point x="361" y="-147"/>
      <point x="388" y="-160"/>
      <point x="413" y="-160" type="curve" smooth="yes"/>
      <point x="434" y="-160"/>
      <point x="452" y="-152"/>
      <point x="468" y="-139" type="curve"/>
      <point x="490" y="-177" type="line"/>
      <point x="473" y="-194"/>
      <point x="443" y="-207"/>
      <point x="410" y="-207" type="curve" smooth="yes"/>
      <point x="350" y="-207"/>
      <point x="306" y="-168"/>
      <point x="306" y="-111" type="curve" smooth="yes"/>
      <point x="306" y="-75"/>
      <point x="334" y="-27"/>
    </contour>
    <component base="a"/>
  </outline>
</glyph>
<glyph name="dcaron" format="2">
  <advance width="647"/>
  <unicode hex="010F"/>
  <outline>
    <contour>
      <point x="570" y="702" type="curve" smooth="yes"/>
      <point x="595" y="702"/>
      <point x="617" y="680"/>
      <point x="617" y="647" type="curve" smooth="yes"/>
      <point x="617" y="587"/>
      <point x="574" y="523"/>
      <point x="525" y="498" type="curve"/>
      <point x="507" y="527" type="line"/>
      <point x="538" y="548"/>
      <point x="560" y="571"/>
      <point x="563" y="606" type="curve"/>
      <point x="538" y="609"/>
      <point x="521" y="630"/>
      <point x="521" y="654" type="curve" smooth="yes"/>
      <point x="521" y="679"/>
      <point x="542" y="702"/>
    </contour>
    <component base="d"/>
  </outline>
</glyph>
<glyph name="Dcroat" format="2">
  <advance width="664"/>
  <unicode hex="0110"/>
  <outline>
    <contour>
      <point x="277" y="309" type="line"/>
      <point x="29" y="309" type="line"/>
      <point x="21" y="359" type="line"/>
      <point x="269" y="359" type="line"/>
    </contour>
    <contour>
      <point x="318" y="0" type="curve" smooth="yes"/>
      <point x="95" y="0" type="line"/>
      <point x="95" y="680" type="line"/>
      <point x="327" y="680" type="line" smooth="yes"/>
      <point x="536" y="680"/>
      <point x="619" y="529"/>
      <point x="619" y="344" type="curve" smooth="yes"/>
      <point x="619" y="155"/>
      <point x="517" y="0"/>
    </contour>
    <contour>
      <point x="330" y="627" type="curve" smooth="yes"/>
      <point x="157" y="627" type="line"/>
      <point x="157" y="52" type="line"/>
      <point x="320" y="52" type="line" smooth="yes"/>
      <point x="463" y="52"/>
      <point x="559" y="168"/>
      <point x="559" y="343" type="curve" smooth="yes"/>
      <point x="559" y="504"/>
      <point x="485" y="627"/>
    </contour>
  </outline>
</glyph>
<glyph name="dcroat" format="2">
  <advance width="516"/>
  <unicode hex="0111"/>
  <outline>
    <contour>
      <point x="395" y="109" type="line"/>
      <point x="360" y="69"/>
      <point x="319" y="39"/>
      <point x="255" y="39" type="curve" smooth="yes"/>
      <point x="146" y="39"/>
      <point x="98" y="125"/>
      <point x="98" y="244" type="curve" smooth="yes"/>
      <point x="99" y="357"/>
      <point x="150" y="446"/>
      <point x="257" y="446" type="curve" smooth="yes"/>
      <point x="326" y="446"/>
      <point x="363" y="413"/>
      <point x="396" y="382" type="curve"/>
      <point x="416" y="422" type="line"/>
      <point x="377" y="458"/>
      <point x="326" y="498"/>
      <point x="260" y="498" type="curve" smooth="yes"/>
      <point x="117" y="498"/>
      <point x="36" y="388"/>
      <point x="35" y="243" type="curve" smooth="yes"/>
      <point x="35" y="92"/>
      <point x="113" y="-13"/>
      <point x="256" y="-13" type="curve" smooth="yes"/>
      <point x="318" y="-13"/>
      <point x="375" y="18"/>
      <point x="415" y="64" type="curve"/>
    </contour>
    <contour>
      <point x="441" y="566" type="line"/>
      <point x="522" y="566" type="line"/>
      <point x="515" y="611" type="line"/>
      <point x="441" y="611" type="line"/>
      <point x="441" y="705" type="line"/>
      <point x="378" y="696" type="line"/>
      <point x="378" y="611" type="line"/>
      <point x="267" y="611" type="line"/>
      <point x="274" y="566" type="line"/>
      <point x="378" y="566" type="line"/>
      <point x="378" y="73" type="line"/>
      <point x="400" y="0" type="line"/>
      <point x="441" y="0" type="line"/>
    </contour>
  </outline>
</glyph>
<glyph name="Iogonek" format="2">
  <advance width="252"/>
  <unicode hex="012E"/>
  <anchor x="128" y="0" name="_bottom"/>
  <outline>
    <contour>
      <point x="98" y="4" type="curve"/>
      <point x="157" y="0" type="line"/>
      <point x="122" y="-24"/>
      <point x="96" y="-69"/>
      <point x="96" y="-107" type="curve" smooth="yes"/>
      <point x="96" y="-147"/>
      <point x="123" y="-160"/>
      <point x="148" y="-160" type="curve" smooth="yes"/>
      <point x="169" y="-160"/>
      <point x="187" y="-152"/>
      <point x="203" y="-139" type="curve"/>
      <point x="225" y="-177" type="line"/>
      <point x="208" y="-194"/>
      <point x="178" y="-207"/>
      <point x="145" y="-207" type="curve" smooth="yes"/>
      <point x="85" y="-207"/>
      <point x="41" y="-168"/>
      <point x="41" y="-111" type="curve" smooth="yes"/>
      <point x="41" y="-75"/>
      <point x="59" y="-27"/>
    </contour>
    <component base="I"/>
  </outline>
</glyph>
<glyph name="iogonek" format="2">
  <advance width="193"/>
  <unicode hex="012F"/>
  <outline>
    <contour>
      <point x="69" y="4" type="curve"/>
      <point x="128" y="0" type="line"/>
      <point x="93" y="-24"/>
      <point x="67" y="-69"/>
      <point x="67" y="-107" type="curve" smooth="yes"/>
      <point x="67" y="-147"/>
      <point x="94" y="-160"/>
      <point x="119" y="-160" type="curve" smooth="yes"/>
      <point x="140" y="-160"/>
      <point x="158" y="-152"/>
      <point x="174" y="-139" type="curve"/>
      <point x="196" y="-177" type="line"/>
      <point x="179" y="-194"/>
      <point x="149" y="-207"/>
      <point x="116" y="-207" type="curve" smooth="yes"/>
      <point x="56" y="-207"/>
      <point x="12" y="-168"/>
      <point x="12" y="-111" type="curve" smooth="yes"/>
      <point x="12" y="-75"/>
      <point x="30" y="-27"/>
    </contour>
    <component base="dotlessi"/>
    <component base="dotaccent" xOffset="40"/>
  </outline>
</glyph>
<glyph name="dotlessi" format="2">
  <advance width="193"/>
  <unicode hex="0131"/>
  <anchor x="99" y="485" name="top"/>
  <outline>
    <contour>
      <point x="128" y="0" type="line"/>
      <point x="65" y="0" type="line"/>
      <point x="65" y="485" type="line"/>
      <point x="128" y="485" type="line"/>
    </contour>
  </outline>
</glyph>
<glyph name="lacute" format="2">
  <advance width="212"/>
  <unicode hex="013A"/>
  <outline>
    <contour>
      <point x="137" y="0" type="line"/>
      <point x="75" y="0" type="line"/>
      <point x="75" y="673" type="line"/>
      <point x="137" y="685" type="line"/>
    </contour>
    <contour>
      <point x="123" y="739" type="line"/>
      <point x="83" y="752" type="line"/>
      <point x="137" y="892" type="line"/>
      <point x="208" y="892" type="line"/>
    </contour>
  </outline>
</glyph>
<glyph name="lcaron" format="2">
  <advance width="343"/>
  <unicode hex="013E"/>
  <outline>
    <contour>
      <point x="266" y="702" type="curve" smooth="yes"/>
      <point x="291" y="702"/>
      <point x="313" y="680"/>
      <point x="313" y="647" type="curve" smooth="yes"/>
      <point x="313" y="587"/>
      <point x="270" y="523"/>
      <point x="221" y="498" type="curve"/>
      <point x="203" y="527" type="line"/>
      <point x="234" y="548"/>
      <point x="256" y="571"/>
      <point x="259" y="606" type="curve"/>
      <point x="234" y="609"/>
      <point x="217" y="630"/>
      <point x="217" y="654" type="curve" smooth="yes"/>
      <point x="217" y="679"/>
      <point x="238" y="702"/>
    </contour>
    <component base="l"/>
  </outline>
</glyph>
<glyph name="Lslash" format="2">
  <advance width="487"/>
  <unicode hex="0141"/>
  <outline>
    <contour>
      <point x="85" y="0" type="line"/>
      <point x="477" y="0" type="line"/>
      <point x="472" y="50" type="line"/>
      <point x="147" y="50" type="line"/>
      <point x="147" y="305.711" type="line"/>
      <point x="294" y="435" type="line"/>
      <point x="264" y="472" type="line"/>
      <point x="147" y="370.036" type="line"/>
      <point x="147" y="680" type="line"/>
      <point x="85" y="680" type="line"/>
      <point x="85" y="316.004" type="line"/>
      <point x="15" y="255" type="line"/>
      <point x="45" y="216" type="line"/>
      <point x="85" y="251.181" type="line"/>
    </contour>
  </outline>
</glyph>
<glyph name="lslash" format="2">
  <advance width="277"/>
  <unicode hex="0142"/>
  <outline>
    <contour>
      <point x="248" y="494" type="line"/>
      <point x="277" y="455" type="line"/>
      <point x="170" y="360" type="line"/>
      <point x="170" y="0" type="line"/>
      <point x="108" y="0" type="line"/>
      <point x="108" y="306" type="line"/>
      <point x="30" y="237" type="line"/>
      <point x="0" y="276" type="line"/>
      <point x="108" y="370" type="line"/>
      <point x="108" y="696" type="line"/>
      <point x="170" y="706" type="line"/>
      <point x="170" y="424" type="line"/>
    </contour>
  </outline>
</glyph>
<glyph name="OE" format="2">
  <advance width="911"/>
  <unicode hex="0152"/>
  <outline>
    <contour>
      <point x="529" y="657" type="curve"/>
      <point x="509" y="611" type="line"/>
      <point x="468" y="628"/>
      <point x="436" y="640"/>
      <point x="364" y="640" type="curve" smooth="yes"/>
      <point x="221" y="639"/>
      <point x="111" y="512"/>
      <point x="111" y="337" type="curve" smooth="yes"/>
      <point x="111" y="174"/>
      <point x="200" y="41"/>
      <point x="355" y="41" type="curve" smooth="yes"/>
      <point x="427" y="41"/>
      <point x="469" y="55"/>
      <point x="505" y="71" type="curve"/>
      <point x="529" y="23" type="line"/>
      <point x="492" y="3"/>
      <point x="414" y="-14"/>
      <point x="357" y="-14" type="curve" smooth="yes"/>
      <point x="149" y="-14"/>
      <point x="45" y="151"/>
      <point x="45" y="336" type="curve" smooth="yes"/>
      <point x="45" y="535"/>
      <point x="167" y="694"/>
      <point x="363" y="694" type="curve" smooth="yes"/>
      <point x="404" y="694"/>
      <point x="492" y="682"/>
    </contour>
    <contour>
      <point x="891" y="0" type="line"/>
      <point x="503" y="0" type="line"/>
      <point x="503" y="680" type="line"/>
      <point x="863" y="680" type="line"/>
      <point x="868" y="635" type="line"/>
      <point x="565" y="635" type="line"/>
      <point x="565" y="371" type="line"/>
      <point x="805" y="371" type="line"/>
      <point x="810" y="326" type="line"/>
      <point x="565" y="326" type="line"/>
      <point x="565" y="50" type="line"/>
      <point x="885" y="50" type="line"/>
    </contour>
  </outline>
</glyph>
<glyph name="oe" format="2">
  <advance width="776"/>
  <unicode hex="0153"/>
  <outline>
    <contour>
      <point x="741" y="239" type="line"/>
      <point x="741" y="245" type="line" smooth="yes"/>
      <point x="741" y="389"/>
      <point x="678" y="498"/>
      <point x="538" y="498" type="curve" smooth="yes"/>
      <point x="488" y="498"/>
      <point x="445" y="485"/>
      <point x="412" y="461" type="curve"/>
      <point x="372" y="483"/>
      <point x="305" y="498"/>
      <point x="269" y="498" type="curve" smooth="yes"/>
      <point x="126" y="498"/>
      <point x="36" y="390"/>
      <point x="35" y="245" type="curve" smooth="yes"/>
      <point x="35" y="94"/>
      <point x="119" y="-13"/>
      <point x="262" y="-13" type="curve" smooth="yes"/>
      <point x="303" y="-13"/>
      <point x="374" y="3"/>
      <point x="414" y="27" type="curve"/>
      <point x="452" y="2"/>
      <point x="502" y="-13"/>
      <point x="564" y="-13" type="curve" smooth="yes"/>
      <point x="640" y="-13"/>
      <point x="687" y="8"/>
      <point x="734" y="33" type="curve"/>
      <point x="713" y="79" type="line"/>
      <point x="663" y="53"/>
      <point x="617" y="37"/>
      <point x="561" y="37" type="curve" smooth="yes"/>
      <point x="431" y="37"/>
      <point x="382" y="123"/>
      <point x="381" y="239" type="curve"/>
    </contour>
    <contour>
      <point x="383" y="282" type="line"/>
      <point x="392" y="377"/>
      <point x="439" y="446"/>
      <point x="535" y="446" type="curve" smooth="yes"/>
      <point x="631" y="446"/>
      <point x="669" y="377"/>
      <point x="678" y="282" type="curve"/>
    </contour>
    <contour>
      <point x="98" y="246" type="curve" smooth="yes"/>
      <point x="99" y="359"/>
      <point x="159" y="446"/>
      <point x="266" y="446" type="curve" smooth="yes"/>
      <point x="317" y="446"/>
      <point x="348" y="436"/>
      <point x="374" y="425" type="curve"/>
      <point x="337" y="380"/>
      <point x="318" y="317"/>
      <point x="318" y="245" type="curve" smooth="yes"/>
      <point x="318" y="171"/>
      <point x="336" y="108"/>
      <point x="375" y="63" type="curve"/>
      <point x="347" y="50"/>
      <point x="318" y="39"/>
      <point x="261" y="39" type="curve" smooth="yes"/>
      <point x="152" y="39"/>
      <point x="98" y="127"/>
    </contour>
  </outline>
</glyph>
<glyph name="tcaron" format="2">
  <advance width="406"/>
  <unicode hex="0165"/>
  <outline>
    <contour>
      <point x="329" y="702" type="curve" smooth="yes"/>
      <point x="354" y="702"/>
      <point x="376" y="680"/>
      <point x="376" y="647" type="curve" smooth="yes"/>
      <point x="376" y="587"/>
      <point x="333" y="523"/>
      <point x="284" y="498" type="curve"/>
      <point x="266" y="527" type="line"/>
      <point x="297" y="548"/>
      <point x="319" y="571"/>
      <point x="322" y="606" type="curve"/>
      <point x="297" y="609"/>
      <point x="280" y="630"/>
      <point x="280" y="654" type="curve" smooth="yes"/>
      <point x="280" y="679"/>
      <point x="301" y="702"/>
    </contour>
    <component base="t"/>
  </outline>
</glyph>
<glyph name="uogonek" format="2">
  <advance width="516"/>
  <unicode hex="0173"/>
  <outline>
    <contour>
      <point x="402" y="4" type="curve"/>
      <point x="451" y="0" type="line"/>
      <point x="416" y="-24"/>
      <point x="390" y="-69"/>
      <point x="390" y="-107" type="curve" smooth="yes"/>
      <point x="390" y="-147"/>
      <point x="417" y="-160"/>
      <point x="442" y="-160" type="curve" smooth="yes"/>
      <point x="463" y="-160"/>
      <point x="481" y="-152"/>
      <point x="497" y="-139" type="curve"/>
      <point x="519" y="-177" type="line"/>
      <point x="502" y="-194"/>
      <point x="472" y="-207"/>
      <point x="439" y="-207" type="curve" smooth="yes"/>
      <point x="379" y="-207"/>
      <point x="335" y="-168"/>
      <point x="335" y="-111" type="curve" smooth="yes"/>
      <point x="335" y="-75"/>
      <point x="363" y="-27"/>
    </contour>
    <component base="u"/>
  </outline>
</glyph>
<glyph name="florin" format="2">
  <advance width="305"/>
  <unicode hex="0192"/>
  <outline>
    <contour>
      <point x="48" y="475" type="line"/>
      <point x="121" y="475" type="line"/>
      <point x="121" y="563" type="line" smooth="yes"/>
      <point x="121" y="647"/>
      <point x="167" y="702"/>
      <point x="239" y="702" type="curve" smooth="yes"/>
      <point x="266" y="702"/>
      <point x="292" y="694"/>
      <point x="305" y="689" type="curve"/>
      <point x="293" y="636" type="line"/>
      <point x="285" y="640"/>
      <point x="265" y="645"/>
      <point x="252" y="645" type="curve" smooth="yes"/>
      <point x="201" y="645"/>
      <point x="183" y="611"/>
      <point x="183" y="563" type="curve" smooth="yes"/>
      <point x="183" y="475" type="line"/>
      <point x="271" y="475" type="line"/>
      <point x="292" y="428" type="line"/>
      <point x="183" y="428" type="line"/>
      <point x="183" y="74" type="line" smooth="yes"/>
      <point x="183" y="-10"/>
      <point x="138" y="-65"/>
      <point x="67" y="-65" type="curve" smooth="yes"/>
      <point x="39" y="-65"/>
      <point x="12" y="-57"/>
      <point x="0" y="-53" type="curve"/>
      <point x="11" y="0" type="line"/>
      <point x="19" y="-4"/>
      <point x="39" y="-9"/>
      <point x="51" y="-9" type="curve" smooth="yes"/>
      <point x="103" y="-9"/>
      <point x="121" y="24"/>
      <point x="121" y="73" type="curve" smooth="yes"/>
      <point x="121" y="428" type="line"/>
      <point x="49" y="428" type="line"/>
    </contour>
  </outline>
</glyph>
<glyph name="circumflex" format="2">
  <advance width="282"/>
  <unicode hex="02C6"/>
  <anchor x="144" y="485" name="_top"/>
  <outline>
    <contour>
      <point x="140" y="698" type="line"/>
      <point x="65" y="589" type="line"/>
      <point x="10" y="599" type="line"/>
      <point x="110" y="742" type="line"/>
      <point x="170" y="742" type="line"/>
      <point x="272" y="599" type="line"/>
      <point x="214" y="589" type="line"/>
    </contour>
  </outline>
</glyph>
<glyph name="caron" format="2">
  <advance width="282"/>
  <unicode hex="02C7"/>
  <anchor x="141" y="485" name="_top"/>
  <outline>
    <contour>
      <point x="142" y="633" type="line"/>
      <point x="217" y="742" type="line"/>
      <point x="272" y="732" type="line"/>
      <point x="172" y="589" type="line"/>
      <point x="112" y="589" type="line"/>
      <point x="10" y="732" type="line"/>
      <point x="68" y="742" type="line"/>
    </contour>
  </outline>
</glyph>
<glyph name="uni02C9" format="2">
  <advance width="261"/>
  <unicode hex="02C9"/>
  <outline>
    <contour>
      <point x="10" y="640" type="line"/>
      <point x="10" y="689" type="line"/>
      <point x="246" y="689" type="line"/>
      <point x="251" y="640" type="line"/>
    </contour>
  </outline>
</glyph>
<glyph name="breve" format="2">
  <advance width="280"/>
  <unicode hex="02D8"/>
  <anchor x="147" y="485" name="_top"/>
  <outline>
    <contour>
      <point x="223" y="731" type="curve"/>
      <point x="270" y="731" type="line"/>
      <point x="270" y="664"/>
      <point x="232" y="602"/>
      <point x="140" y="601" type="curve" smooth="yes"/>
      <point x="48" y="602"/>
      <point x="10" y="664"/>
      <point x="10" y="731" type="curve"/>
      <point x="56" y="731" type="line"/>
      <point x="56" y="694"/>
      <point x="84" y="649"/>
      <point x="140" y="649" type="curve" smooth="yes"/>
      <point x="193" y="649"/>
      <point x="223" y="694"/>
    </contour>
  </outline>
</glyph>
<glyph name="dotaccent" format="2">
  <advance width="115"/>
  <unicode hex="02D9"/>
  <outline>
    <contour>
      <point x="58" y="618" type="curve" smooth="yes"/>
      <point x="31" y="618"/>
      <point x="10" y="639"/>
      <point x="10" y="666" type="curve" smooth="yes"/>
      <point x="10" y="691"/>
      <point x="31" y="714"/>
      <point x="58" y="714" type="curve" smooth="yes"/>
      <point x="83" y="714"/>
      <point x="105" y="691"/>
      <point x="105" y="666" type="curve" smooth="yes"/>
      <point x="105" y="639"/>
      <point x="83" y="618"/>
    </contour>
  </outline>
</glyph>
<glyph name="ring" format="2">
  <advance width="197"/>
  <unicode hex="02DA"/>
  <anchor x="99" y="485" name="_top"/>
  <outline>
    <contour>
      <point x="99" y="759" type="curve" smooth="yes"/>
      <point x="147" y="759"/>
      <point x="187" y="723"/>
      <point x="187" y="675" type="curve" smooth="yes"/>
      <point x="187" y="628"/>
      <point x="147" y="594"/>
      <point x="99" y="594" type="curve" smooth="yes"/>
      <point x="51" y="594"/>
      <point x="10" y="628"/>
      <point x="10" y="675" type="curve" smooth="yes"/>
      <point x="10" y="723"/>
      <point x="51" y="759"/>
    </contour>
    <contour>
      <point x="99" y="633" type="curve" smooth="yes"/>
      <point x="123" y="633"/>
      <point x="143" y="651"/>
      <point x="143" y="675" type="curve" smooth="yes"/>
      <point x="143" y="700"/>
      <point x="123" y="719"/>
      <point x="99" y="719" type="curve" smooth="yes"/>
      <point x="75" y="719"/>
      <point x="55" y="700"/>
      <point x="55" y="675" type="curve" smooth="yes"/>
      <point x="55" y="651"/>
      <point x="75" y="633"/>
    </contour>
  </outline>
</glyph>
<glyph name="ogonek" format="2">
  <advance width="204"/>
  <unicode hex="02DB"/>
  <anchor x="99" y="0" name="_bottom"/>
  <outline>
    <contour>
      <point x="77" y="4" type="curve"/>
      <point x="126" y="0" type="line"/>
      <point x="91" y="-24"/>
      <point x="65" y="-69"/>
      <point x="65" y="-107" type="curve" smooth="yes"/>
      <point x="65" y="-147"/>
      <point x="92" y="-160"/>
      <point x="117" y="-160" type="curve" smooth="yes"/>
      <point x="138" y="-160"/>
      <point x="156" y="-152"/>
      <point x="172" y="-139" type="curve"/>
      <point x="194" y="-177" type="line"/>
      <point x="177" y="-194"/>
      <point x="147" y="-207"/>
      <point x="114" y="-207" type="curve" smooth="yes"/>
      <point x="54" y="-207"/>
      <point x="10" y="-168"/>
      <point x="10" y="-111" type="curve" smooth="yes"/>
      <point x="10" y="-75"/>
      <point x="38" y="-27"/>
    </contour>
  </outline>
</glyph>
<glyph name="tilde" format="2">
  <advance width="305"/>
  <unicode hex="02DC"/>
  <anchor x="165" y="485" name="_top"/>
  <outline>
    <contour>
      <point x="244" y="699" type="curve"/>
      <point x="290" y="699" type="line"/>
      <point x="290" y="630"/>
      <point x="253" y="608"/>
      <point x="206" y="608" type="curve" smooth="yes"/>
      <point x="183" y="608"/>
      <point x="163" y="616"/>
      <point x="146" y="632" type="curve" smooth="yes"/>
      <point x="128" y="648"/>
      <point x="111" y="656"/>
      <point x="94" y="656" type="curve" smooth="yes"/>
      <point x="77" y="656"/>
      <point x="58" y="643"/>
      <point x="55" y="612" type="curve"/>
      <point x="10" y="612" type="line"/>
      <point x="10" y="683"/>
      <point x="48" y="703"/>
      <point x="93" y="703" type="curve" smooth="yes"/>
      <point x="121" y="703"/>
      <point x="143" y="695"/>
      <point x="158" y="680" type="curve" smooth="yes"/>
      <point x="173" y="664"/>
      <point x="189" y="656"/>
      <point x="206" y="656" type="curve" smooth="yes"/>
      <point x="223" y="656"/>
      <point x="241" y="668"/>
    </contour>
  </outline>
</glyph>
<glyph name="hungarumlaut" format="2">
  <advance width="285"/>
  <unicode hex="02DD"/>
  <anchor x="117" y="485" name="_top"/>
  <outline>
    <contour>
      <point x="50" y="589" type="line"/>
      <point x="10" y="602" type="line"/>
      <point x="64" y="742" type="line"/>
      <point x="135" y="742" type="line"/>
    </contour>
    <contour>
      <point x="190" y="589" type="line"/>
      <point x="150" y="602" type="line"/>
      <point x="204" y="742" type="line"/>
      <point x="275" y="742" type="line"/>
    </contour>
  </outline>
</glyph>
<glyph name="pi" format="2">
  <advance width="569"/>
  <unicode hex="03C0"/>
  <outline>
    <contour>
      <point x="172" y="0" type="line"/>
      <point x="109" y="0" type="line"/>
      <point x="109" y="435" type="line"/>
      <point x="10" y="435" type="line"/>
      <point x="10" y="485" type="line"/>
      <point x="559" y="485" type="line"/>
      <point x="559" y="435" type="line"/>
      <point x="459" y="435" type="line"/>
      <point x="459" y="0" type="line"/>
      <point x="396" y="0" type="line"/>
      <point x="396" y="435" type="line"/>
      <point x="172" y="435" type="line"/>
    </contour>
  </outline>
</glyph>
<glyph name="tm_Anusvara" format="2">
  <unicode hex="0B82"/>
  <outline>
    <contour>
      <point x="0" y="632" type="curve" smooth="yes"/>
      <point x="-60" y="632"/>
      <point x="-110" y="676"/>
      <point x="-110" y="737" type="curve" smooth="yes"/>
      <point x="-110" y="800"/>
      <point x="-59" y="844"/>
      <point x="0" y="844" type="curve" smooth="yes"/>
      <point x="59" y="844"/>
      <point x="111" y="800"/>
      <point x="111" y="737" type="curve" smooth="yes"/>
      <point x="111" y="676"/>
      <point x="61" y="632"/>
    </contour>
    <contour>
      <point x="0" y="679" type="curve" smooth="yes"/>
      <point x="34" y="679"/>
      <point x="59" y="703"/>
      <point x="59" y="737" type="curve" smooth="yes"/>
      <point x="59" y="772"/>
      <point x="34" y="797"/>
      <point x="0" y="797" type="curve" smooth="yes"/>
      <point x="-34" y="797"/>
      <point x="-60" y="772"/>
      <point x="-60" y="737" type="curve" smooth="yes"/>
      <point x="-60" y="703"/>
      <point x="-34" y="679"/>
    </contour>
  </outline>
</glyph>
<glyph name="tm_Visarga" format="2">
  <advance width="674"/>
  <unicode hex="0B83"/>
  <outline>
    <contour>
      <point x="336" y="315" type="curve" smooth="yes"/>
      <point x="276" y="315"/>
      <point x="226" y="359"/>
      <point x="226" y="420" type="curve" smooth="yes"/>
      <point x="226" y="483"/>
      <point x="278" y="527"/>
      <point x="336" y="527" type="curve" smooth="yes"/>
      <point x="396" y="527"/>
      <point x="447" y="483"/>
      <point x="447" y="420" type="curve" smooth="yes"/>
      <point x="447" y="359"/>
      <point x="397" y="315"/>
    </contour>
    <contour>
      <point x="337" y="362" type="curve" smooth="yes"/>
      <point x="371" y="362"/>
      <point x="397" y="386"/>
      <point x="397" y="420" type="curve" smooth="yes"/>
      <point x="397" y="455"/>
      <point x="371" y="480"/>
      <point x="337" y="480" type="curve" smooth="yes"/>
      <point x="303" y="480"/>
      <point x="278" y="455"/>
      <point x="278" y="420" type="curve" smooth="yes"/>
      <point x="278" y="386"/>
      <point x="303" y="362"/>
    </contour>
    <contour>
      <point x="164" y="-14" type="curve" smooth="yes"/>
      <point x="104" y="-14"/>
      <point x="55" y="31"/>
      <point x="55" y="92" type="curve" smooth="yes"/>
      <point x="55" y="155"/>
      <point x="106" y="198"/>
      <point x="164" y="198" type="curve" smooth="yes"/>
      <point x="224" y="198"/>
      <point x="275" y="155"/>
      <point x="275" y="92" type="curve" smooth="yes"/>
      <point x="275" y="31"/>
      <point x="226" y="-14"/>
    </contour>
    <contour>
      <point x="508" y="-14" type="curve" smooth="yes"/>
      <point x="448" y="-14"/>
      <point x="398" y="31"/>
      <point x="398" y="92" type="curve" smooth="yes"/>
      <point x="398" y="155"/>
      <point x="450" y="198"/>
      <point x="508" y="198" type="curve" smooth="yes"/>
      <point x="568" y="198"/>
      <point x="619" y="155"/>
      <point x="619" y="92" type="curve" smooth="yes"/>
      <point x="619" y="31"/>
      <point x="569" y="-14"/>
    </contour>
    <contour>
      <point x="165" y="33" type="curve" smooth="yes"/>
      <point x="199" y="33"/>
      <point x="225" y="58"/>
      <point x="225" y="92" type="curve" smooth="yes"/>
      <point x="225" y="126"/>
      <point x="199" y="151"/>
      <point x="165" y="151" type="curve" smooth="yes"/>
      <point x="131" y="151"/>
      <point x="106" y="126"/>
      <point x="106" y="92" type="curve" smooth="yes"/>
      <point x="106" y="58"/>
      <point x="131" y="33"/>
    </contour>
    <contour>
      <point x="509" y="33" type="curve" smooth="yes"/>
      <point x="543" y="33"/>
      <point x="568" y="58"/>
      <point x="568" y="92" type="curve" smooth="yes"/>
      <point x="568" y="126"/>
      <point x="543" y="151"/>
      <point x="509" y="151" type="curve" smooth="yes"/>
      <point x="475" y="151"/>
      <point x="450" y="126"/>
      <point x="450" y="92" type="curve" smooth="yes"/>
      <point x="450" y="58"/>
      <point x="475" y="33"/>
    </contour>
  </outline>
</glyph>
<glyph name="tm_A" format="2">
  <advance width="1057"/>
  <unicode hex="0B85"/>
  <outline>
    <contour>
      <point x="962" y="-126" type="line"/>
      <point x="906" y="-126" type="line"/>
      <point x="906" y="513" type="line"/>
      <point x="962" y="513" type="line"/>
    </contour>
    <contour>
      <point x="466" y="531" type="curve" smooth="yes"/>
      <point x="642" y="531"/>
      <point x="754" y="404"/>
      <point x="754" y="230" type="curve" smooth="yes"/>
      <point x="754" y="13"/>
      <point x="585" y="-144"/>
      <point x="331" y="-144" type="curve" smooth="yes"/>
      <point x="153" y="-144"/>
      <point x="35" y="-68"/>
      <point x="35" y="26" type="curve" smooth="yes"/>
      <point x="35" y="86"/>
      <point x="74" y="125"/>
      <point x="150" y="125" type="curve" smooth="yes"/>
      <point x="906" y="125" type="line"/>
      <point x="906" y="80" type="line"/>
      <point x="153" y="80" type="line" smooth="yes"/>
      <point x="110" y="80"/>
      <point x="94" y="59"/>
      <point x="94" y="26" type="curve" smooth="yes"/>
      <point x="94" y="-32"/>
      <point x="186" y="-95"/>
      <point x="331" y="-95" type="curve" smooth="yes"/>
      <point x="550" y="-95"/>
      <point x="694" y="42"/>
      <point x="694" y="230" type="curve" smooth="yes"/>
      <point x="694" y="374"/>
      <point x="607" y="482"/>
      <point x="466" y="482" type="curve" smooth="yes"/>
      <point x="355" y="482"/>
      <point x="275" y="426"/>
      <point x="275" y="329" type="curve" smooth="yes"/>
      <point x="275" y="285"/>
      <point x="306" y="254"/>
      <point x="350" y="254" type="curve" smooth="yes"/>
      <point x="395" y="254"/>
      <point x="426" y="285"/>
      <point x="426" y="329" type="curve" smooth="yes"/>
      <point x="426" y="373"/>
      <point x="395" y="403"/>
      <point x="351" y="403" type="curve" smooth="yes"/>
      <point x="307" y="403"/>
      <point x="275" y="373"/>
      <point x="275" y="329" type="curve"/>
      <point x="239" y="329" type="line"/>
      <point x="238" y="396"/>
      <point x="287" y="447"/>
      <point x="356" y="447" type="curve" smooth="yes"/>
      <point x="429" y="447"/>
      <point x="481" y="396"/>
      <point x="480" y="329" type="curve" smooth="yes"/>
      <point x="479" y="258"/>
      <point x="424" y="208"/>
      <point x="350" y="209" type="curve" smooth="yes"/>
      <point x="278" y="210"/>
      <point x="221" y="260"/>
      <point x="221" y="329" type="curve" smooth="yes"/>
      <point x="221" y="445"/>
      <point x="332" y="531"/>
    </contour>
  </outline>
</glyph>
<glyph name="tm_Aa" format="2">
  <advance width="1266"/>
  <unicode hex="0B86"/>
  <outline>
    <contour>
      <point x="936" y="80" type="line"/>
      <point x="936" y="125" type="line"/>
      <point x="150" y="125" type="line" smooth="yes"/>
      <point x="74" y="125"/>
      <point x="35" y="86"/>
      <point x="35" y="26" type="curve" smooth="yes"/>
      <point x="35" y="-68"/>
      <point x="153" y="-144"/>
      <point x="331" y="-144" type="curve" smooth="yes"/>
      <point x="585" y="-144"/>
      <point x="754" y="13"/>
      <point x="754" y="230" type="curve" smooth="yes"/>
      <point x="754" y="404"/>
      <point x="642" y="531"/>
      <point x="466" y="531" type="curve" smooth="yes"/>
      <point x="332" y="531"/>
      <point x="221" y="445"/>
      <point x="221" y="329" type="curve" smooth="yes"/>
      <point x="221" y="260"/>
      <point x="278" y="210"/>
      <point x="350" y="209" type="curve" smooth="yes"/>
      <point x="424" y="208"/>
      <point x="479" y="258"/>
      <point x="480" y="329" type="curve" smooth="yes"/>
      <point x="481" y="396"/>
      <point x="429" y="447"/>
      <point x="356" y="447" type="curve" smooth="yes"/>
      <point x="287" y="447"/>
      <point x="238" y="396"/>
      <point x="239" y="329" type="curve"/>
      <point x="275" y="329" type="line"/>
      <point x="275" y="373"/>
      <point x="307" y="403"/>
      <point x="351" y="403" type="curve" smooth="yes"/>
      <point x="395" y="403"/>
      <point x="426" y="373"/>
      <point x="426" y="329" type="curve" smooth="yes"/>
      <point x="426" y="285"/>
      <point x="395" y="254"/>
      <point x="350" y="254" type="curve" smooth="yes"/>
      <point x="306" y="254"/>
      <point x="275" y="285"/>
      <point x="275" y="329" type="curve" smooth="yes"/>
      <point x="275" y="426"/>
      <point x="355" y="482"/>
      <point x="466" y="482" type="curve" smooth="yes"/>
      <point x="607" y="482"/>
      <point x="694" y="374"/>
      <point x="694" y="230" type="curve" smooth="yes"/>
      <point x="694" y="42"/>
      <point x="550" y="-95"/>
      <point x="331" y="-95" type="curve" smooth="yes"/>
      <point x="186" y="-95"/>
      <point x="94" y="-32"/>
      <point x="94" y="26" type="curve" smooth="yes"/>
      <point x="94" y="59"/>
      <point x="110" y="80"/>
      <point x="153" y="80" type="curve" smooth="yes"/>
    </contour>
    <contour>
      <point x="1085" y="93" type="curve" smooth="yes"/>
      <point x="1032" y="93"/>
      <point x="990" y="70"/>
      <point x="962" y="34" type="curve"/>
      <point x="962" y="513" type="line"/>
      <point x="906" y="513" type="line"/>
      <point x="906" y="-126" type="line"/>
      <point x="962" y="-126" type="line"/>
      <point x="962" y="-95" type="line" smooth="yes"/>
      <point x="962" y="-14"/>
      <point x="1013" y="44"/>
      <point x="1082" y="44" type="curve" smooth="yes"/>
      <point x="1154" y="44"/>
      <point x="1196" y="-11"/>
      <point x="1196" y="-82" type="curve" smooth="yes"/>
      <point x="1196" y="-225"/>
      <point x="1067" y="-329"/>
      <point x="887" y="-329" type="curve" smooth="yes"/>
      <point x="793" y="-329"/>
      <point x="726" y="-293"/>
      <point x="726" y="-242" type="curve" smooth="yes"/>
      <point x="726" y="-203"/>
      <point x="751" y="-173"/>
      <point x="795" y="-173" type="curve" smooth="yes"/>
      <point x="816" y="-173" type="line"/>
      <point x="816" y="-128" type="line"/>
      <point x="795" y="-128" type="line" smooth="yes"/>
      <point x="717" y="-128"/>
      <point x="666" y="-177"/>
      <point x="666" y="-242" type="curve" smooth="yes"/>
      <point x="666" y="-323"/>
      <point x="761" y="-377"/>
      <point x="887" y="-377" type="curve" smooth="yes"/>
      <point x="1101" y="-377"/>
      <point x="1256" y="-253"/>
      <point x="1256" y="-82" type="curve" smooth="yes"/>
      <point x="1256" y="20"/>
      <point x="1189" y="93"/>
    </contour>
  </outline>
</glyph>
<glyph name="tm_I" format="2">
  <advance width="1036"/>
  <unicode hex="0B87"/>
  <outline>
    <contour>
      <point x="485" y="531" type="curve" smooth="yes"/>
      <point x="621" y="531"/>
      <point x="703" y="442"/>
      <point x="703" y="320" type="curve" smooth="yes"/>
      <point x="703" y="110"/>
      <point x="414" y="-198"/>
      <point x="178" y="-198" type="curve" smooth="yes"/>
      <point x="90" y="-198"/>
      <point x="35" y="-160"/>
      <point x="35" y="-95" type="curve" smooth="yes"/>
      <point x="35" y="49"/>
      <point x="224" y="152"/>
      <point x="439" y="152" type="curve" smooth="yes"/>
      <point x="623" y="152"/>
      <point x="797" y="49"/>
      <point x="797" y="-95" type="curve" smooth="yes"/>
      <point x="797" y="-160"/>
      <point x="742" y="-198"/>
      <point x="654" y="-198" type="curve" smooth="yes"/>
      <point x="365" y="-198"/>
      <point x="117" y="53"/>
      <point x="117" y="349" type="curve" smooth="yes"/>
      <point x="117" y="577"/>
      <point x="295" y="711"/>
      <point x="537" y="711" type="curve" smooth="yes"/>
      <point x="762" y="711"/>
      <point x="941" y="571"/>
      <point x="941" y="358" type="curve" smooth="yes"/>
      <point x="941" y="-148" type="line"/>
      <point x="885" y="-148" type="line"/>
      <point x="885" y="356" type="line" smooth="yes"/>
      <point x="885" y="547"/>
      <point x="735" y="662"/>
      <point x="537" y="662" type="curve" smooth="yes"/>
      <point x="324" y="662"/>
      <point x="176" y="554"/>
      <point x="176" y="349" type="curve" smooth="yes"/>
      <point x="176" y="76"/>
      <point x="405" y="-149"/>
      <point x="654" y="-149" type="curve" smooth="yes"/>
      <point x="709" y="-149"/>
      <point x="738" y="-131"/>
      <point x="738" y="-95" type="curve" smooth="yes"/>
      <point x="738" y="19"/>
      <point x="591" y="104"/>
      <point x="439" y="104" type="curve" smooth="yes"/>
      <point x="256" y="104"/>
      <point x="94" y="19"/>
      <point x="94" y="-95" type="curve" smooth="yes"/>
      <point x="94" y="-131"/>
      <point x="122" y="-149"/>
      <point x="178" y="-149" type="curve" smooth="yes"/>
      <point x="389" y="-149"/>
      <point x="644" y="131"/>
      <point x="644" y="320" type="curve" smooth="yes"/>
      <point x="644" y="414"/>
      <point x="586" y="482"/>
      <point x="485" y="482" type="curve" smooth="yes"/>
      <point x="374" y="482"/>
      <point x="312" y="426"/>
      <point x="312" y="329" type="curve" smooth="yes"/>
      <point x="312" y="285"/>
      <point x="343" y="254"/>
      <point x="387" y="254" type="curve" smooth="yes"/>
      <point x="432" y="254"/>
      <point x="463" y="285"/>
      <point x="463" y="329" type="curve" smooth="yes"/>
      <point x="463" y="373"/>
      <point x="432" y="403"/>
      <point x="388" y="403" type="curve" smooth="yes"/>
      <point x="344" y="403"/>
      <point x="312" y="373"/>
      <point x="312" y="329" type="curve"/>
      <point x="276" y="329" type="line"/>
      <point x="275" y="396"/>
      <point x="324" y="447"/>
      <point x="393" y="447" type="curve" smooth="yes"/>
      <point x="466" y="447"/>
      <point x="518" y="396"/>
      <point x="517" y="329" type="curve" smooth="yes"/>
      <point x="516" y="258"/>
      <point x="461" y="208"/>
      <point x="387" y="209" type="curve" smooth="yes"/>
      <point x="315" y="210"/>
      <point x="258" y="260"/>
      <point x="258" y="329" type="curve" smooth="yes"/>
      <point x="258" y="445"/>
      <point x="351" y="531"/>
    </contour>
  </outline>
</glyph>
<glyph name="tm_Ii" format="2">
  <advance width="740"/>
  <unicode hex="0B88"/>
  <outline>
    <contour>
      <point x="482" y="468" type="line"/>
      <point x="730" y="468" type="line"/>
      <point x="725" y="513" type="line"/>
      <point x="95" y="513" type="line"/>
      <point x="95" y="0" type="line"/>
      <point x="150" y="0" type="line"/>
      <point x="150" y="468" type="line"/>
      <point x="427" y="468" type="line"/>
      <point x="427" y="0" type="line"/>
      <point x="482" y="0" type="line"/>
    </contour>
    <contour>
      <point x="288" y="187" type="curve" smooth="yes"/>
      <point x="263" y="187"/>
      <point x="246" y="205"/>
      <point x="246" y="230" type="curve" smooth="yes"/>
      <point x="246" y="254"/>
      <point x="263" y="272"/>
      <point x="288" y="272" type="curve" smooth="yes"/>
      <point x="311" y="272"/>
      <point x="331" y="254"/>
      <point x="331" y="230" type="curve" smooth="yes"/>
      <point x="331" y="205"/>
      <point x="311" y="187"/>
    </contour>
    <contour>
      <point x="620" y="187" type="curve" smooth="yes"/>
      <point x="595" y="187"/>
      <point x="578" y="205"/>
      <point x="578" y="230" type="curve" smooth="yes"/>
      <point x="578" y="254"/>
      <point x="595" y="272"/>
      <point x="620" y="272" type="curve" smooth="yes"/>
      <point x="643" y="272"/>
      <point x="663" y="254"/>
      <point x="663" y="230" type="curve" smooth="yes"/>
      <point x="663" y="205"/>
      <point x="643" y="187"/>
    </contour>
  </outline>
</glyph>
<glyph name="tm_Uu" format="2">
  <advance width="1608"/>
  <unicode hex="0B8A"/>
  <outline>
    <contour>
      <point x="79" y="45" type="line"/>
      <point x="79" y="0" type="line"/>
      <point x="1598" y="0" type="line"/>
      <point x="1598" y="45" type="line"/>
      <point x="476" y="45" type="line"/>
      <point x="557" y="91"/>
      <point x="599" y="173"/>
      <point x="599" y="273" type="curve" smooth="yes"/>
      <point x="599" y="422"/>
      <point x="486" y="531"/>
      <point x="316" y="531" type="curve" smooth="yes"/>
      <point x="152" y="531"/>
      <point x="35" y="423"/>
      <point x="35" y="275" type="curve" smooth="yes"/>
      <point x="35" y="189"/>
      <point x="102" y="127"/>
      <point x="196" y="127" type="curve" smooth="yes"/>
      <point x="284" y="127"/>
      <point x="348" y="187"/>
      <point x="348" y="271" type="curve" smooth="yes"/>
      <point x="348" y="353"/>
      <point x="284" y="412"/>
      <point x="196" y="412" type="curve" smooth="yes"/>
      <point x="111" y="412"/>
      <point x="50" y="355"/>
      <point x="50" y="275" type="curve"/>
      <point x="92" y="275" type="line"/>
      <point x="92" y="328"/>
      <point x="135" y="366"/>
      <point x="196" y="366" type="curve" smooth="yes"/>
      <point x="251" y="366"/>
      <point x="292" y="326"/>
      <point x="292" y="271" type="curve" smooth="yes"/>
      <point x="292" y="215"/>
      <point x="251" y="175"/>
      <point x="196" y="175" type="curve" smooth="yes"/>
      <point x="135" y="175"/>
      <point x="92" y="217"/>
      <point x="92" y="275" type="curve" smooth="yes"/>
      <point x="92" y="402"/>
      <point x="187" y="482"/>
      <point x="316" y="482" type="curve" smooth="yes"/>
      <point x="452" y="482"/>
      <point x="539" y="392"/>
      <point x="539" y="273" type="curve" smooth="yes"/>
      <point x="539" y="140"/>
      <point x="443" y="45"/>
      <point x="311" y="45" type="curve" smooth="yes"/>
    </contour>
    <contour>
      <point x="739" y="300" type="curve" smooth="yes"/>
      <point x="739" y="401"/>
      <point x="816" y="482"/>
      <point x="929" y="482" type="curve" smooth="yes"/>
      <point x="1040" y="482"/>
      <point x="1120" y="404"/>
      <point x="1120" y="309" type="curve" smooth="yes"/>
      <point x="1120" y="107" type="line"/>
      <point x="1176" y="107" type="line"/>
      <point x="1176" y="468" type="line"/>
      <point x="1377" y="468" type="line"/>
      <point x="1377" y="107" type="line"/>
      <point x="1433" y="107" type="line"/>
      <point x="1433" y="468" type="line"/>
      <point x="1547" y="468" type="line"/>
      <point x="1542" y="513" type="line"/>
      <point x="1120" y="513" type="line"/>
      <point x="1120" y="443" type="line"/>
      <point x="1079" y="498"/>
      <point x="1011" y="531"/>
      <point x="929" y="531" type="curve" smooth="yes"/>
      <point x="782" y="531"/>
      <point x="682" y="429"/>
      <point x="682" y="300" type="curve" smooth="yes"/>
      <point x="682" y="177"/>
      <point x="776" y="89"/>
      <point x="906" y="89" type="curve" smooth="yes"/>
      <point x="987" y="89"/>
      <point x="1045" y="143"/>
      <point x="1045" y="218" type="curve" smooth="yes"/>
      <point x="1045" y="292"/>
      <point x="988" y="346"/>
      <point x="908" y="346" type="curve" smooth="yes"/>
      <point x="832" y="346"/>
      <point x="778" y="293"/>
      <point x="778" y="219" type="curve" smooth="yes"/>
      <point x="778" y="152"/>
      <point x="834" y="104"/>
      <point x="909" y="104" type="curve"/>
      <point x="909" y="132" type="line"/>
      <point x="860" y="132"/>
      <point x="824" y="168"/>
      <point x="824" y="218" type="curve" smooth="yes"/>
      <point x="824" y="267"/>
      <point x="860" y="303"/>
      <point x="909" y="303" type="curve" smooth="yes"/>
      <point x="959" y="303"/>
      <point x="995" y="267"/>
      <point x="995" y="218" type="curve" smooth="yes"/>
      <point x="995" y="168"/>
      <point x="959" y="132"/>
      <point x="909" y="132" type="curve" smooth="yes"/>
      <point x="810" y="132"/>
      <point x="739" y="203"/>
    </contour>
  </outline>
</glyph>
<glyph name="tm_Ee" format="2">
  <advance width="856"/>
  <unicode hex="0B8F"/>
  <outline>
    <contour>
      <point x="114" y="237" type="curve" smooth="yes"/>
      <point x="114" y="371"/>
      <point x="195" y="468"/>
      <point x="383" y="468" type="curve" smooth="yes"/>
      <point x="596" y="468" type="line"/>
      <point x="596" y="33" type="line" smooth="yes"/>
      <point x="596" y="-31"/>
      <point x="588" y="-61"/>
      <point x="545" y="-79" type="curve" smooth="yes"/>
      <point x="230" y="-210" type="line"/>
      <point x="255" y="-250" type="line"/>
      <point x="584" y="-115" type="line" smooth="yes"/>
      <point x="644" y="-90"/>
      <point x="652" y="-52"/>
      <point x="652" y="26" type="curve" smooth="yes"/>
      <point x="652" y="468" type="line"/>
      <point x="846" y="468" type="line"/>
      <point x="841" y="513" type="line"/>
      <point x="374" y="513" type="line" smooth="yes"/>
      <point x="156" y="513"/>
      <point x="55" y="397"/>
      <point x="55" y="237" type="curve" smooth="yes"/>
      <point x="55" y="89"/>
      <point x="151" y="-18"/>
      <point x="326" y="-18" type="curve" smooth="yes"/>
      <point x="424" y="-18"/>
      <point x="495" y="49"/>
      <point x="495" y="141" type="curve" smooth="yes"/>
      <point x="495" y="234"/>
      <point x="424" y="301"/>
      <point x="326" y="301" type="curve" smooth="yes"/>
      <point x="233" y="301"/>
      <point x="164" y="234"/>
      <point x="164" y="141" type="curve" smooth="yes"/>
      <point x="164" y="116"/>
      <point x="170" y="93"/>
      <point x="181" y="73" type="curve"/>
      <point x="136" y="111"/>
      <point x="114" y="168"/>
    </contour>
    <contour>
      <point x="213" y="141" type="curve" smooth="yes"/>
      <point x="213" y="208"/>
      <point x="261" y="256"/>
      <point x="326" y="256" type="curve" smooth="yes"/>
      <point x="393" y="256"/>
      <point x="441" y="208"/>
      <point x="441" y="141" type="curve" smooth="yes"/>
      <point x="441" y="75"/>
      <point x="393" y="27"/>
      <point x="326" y="27" type="curve" smooth="yes"/>
      <point x="261" y="27"/>
      <point x="213" y="75"/>
    </contour>
  </outline>
</glyph>
<glyph name="tm_Ai" format="2">
  <advance width="830"/>
  <unicode hex="0B90"/>
  <outline>
    <contour>
      <point x="702" y="-50" type="curve" smooth="yes"/>
      <point x="702" y="-111"/>
      <point x="653" y="-157"/>
      <point x="586" y="-157" type="curve" smooth="yes"/>
      <point x="505" y="-157"/>
      <point x="448" y="-96"/>
      <point x="448" y="-17" type="curve" smooth="yes"/>
      <point x="448" y="52" type="line"/>
      <point x="393" y="52" type="line"/>
      <point x="393" y="-17" type="line" smooth="yes"/>
      <point x="393" y="-96"/>
      <point x="330" y="-157"/>
      <point x="244" y="-157" type="curve" smooth="yes"/>
      <point x="168" y="-157"/>
      <point x="114" y="-103"/>
      <point x="114" y="-32" type="curve" smooth="yes"/>
      <point x="115" y="43"/>
      <point x="167" y="105"/>
      <point x="325" y="126" type="curve" smooth="yes"/>
      <point x="505" y="150" type="line" smooth="yes"/>
      <point x="707" y="177"/>
      <point x="775" y="258"/>
      <point x="775" y="358" type="curve" smooth="yes"/>
      <point x="775" y="458"/>
      <point x="702" y="531"/>
      <point x="600" y="531" type="curve" smooth="yes"/>
      <point x="514" y="531"/>
      <point x="456" y="482"/>
      <point x="421" y="412" type="curve"/>
      <point x="421" y="368" type="line"/>
      <point x="449" y="368" type="line"/>
      <point x="449" y="412" type="line"/>
      <point x="413" y="482"/>
      <point x="353" y="531"/>
      <point x="265" y="531" type="curve" smooth="yes"/>
      <point x="147" y="531"/>
      <point x="62" y="452"/>
      <point x="62" y="342" type="curve" smooth="yes"/>
      <point x="62" y="286"/>
      <point x="105" y="246"/>
      <point x="164" y="245" type="curve" smooth="yes"/>
      <point x="225" y="244"/>
      <point x="269" y="284"/>
      <point x="270" y="338" type="curve" smooth="yes"/>
      <point x="271" y="396"/>
      <point x="229" y="437"/>
      <point x="169" y="437" type="curve" smooth="yes"/>
      <point x="109" y="437"/>
      <point x="65" y="396"/>
      <point x="66" y="338" type="curve"/>
      <point x="113" y="340" type="line"/>
      <point x="112" y="371"/>
      <point x="136" y="392"/>
      <point x="169" y="392" type="curve" smooth="yes"/>
      <point x="199" y="392"/>
      <point x="220" y="370"/>
      <point x="220" y="339" type="curve" smooth="yes"/>
      <point x="219" y="311"/>
      <point x="197" y="290"/>
      <point x="167" y="290" type="curve" smooth="yes"/>
      <point x="136" y="290"/>
      <point x="113" y="311"/>
      <point x="113" y="340" type="curve" smooth="yes"/>
      <point x="113" y="421"/>
      <point x="166" y="482"/>
      <point x="265" y="482" type="curve" smooth="yes"/>
      <point x="348" y="482"/>
      <point x="407" y="422"/>
      <point x="407" y="343" type="curve" smooth="yes"/>
      <point x="407" y="274" type="line"/>
      <point x="463" y="274" type="line"/>
      <point x="463" y="343" type="line" smooth="yes"/>
      <point x="463" y="422"/>
      <point x="521" y="482"/>
      <point x="600" y="482" type="curve" smooth="yes"/>
      <point x="667" y="482"/>
      <point x="716" y="428"/>
      <point x="716" y="358" type="curve" smooth="yes"/>
      <point x="715" y="282"/>
      <point x="663" y="221"/>
      <point x="505" y="200" type="curve" smooth="yes"/>
      <point x="325" y="176" type="line" smooth="yes"/>
      <point x="123" y="149"/>
      <point x="55" y="68"/>
      <point x="55" y="-32" type="curve" smooth="yes"/>
      <point x="55" y="-132"/>
      <point x="134" y="-205"/>
      <point x="244" y="-205" type="curve" smooth="yes"/>
      <point x="338" y="-205"/>
      <point x="410" y="-156"/>
      <point x="436" y="-86" type="curve"/>
      <point x="436" y="-30" type="line"/>
      <point x="406" y="-32" type="line"/>
      <point x="406" y="-86" type="line"/>
      <point x="433" y="-156"/>
      <point x="499" y="-205"/>
      <point x="586" y="-205" type="curve" smooth="yes"/>
      <point x="687" y="-205"/>
      <point x="761" y="-140"/>
      <point x="761" y="-50" type="curve" smooth="yes"/>
      <point x="761" y="10"/>
      <point x="747" y="50"/>
      <point x="723" y="101" type="curve"/>
      <point x="667" y="95" type="line"/>
      <point x="688" y="50"/>
      <point x="702" y="-8"/>
    </contour>
  </outline>
</glyph>
<glyph name="tm_O" format="2">
  <advance width="808"/>
  <unicode hex="0B92"/>
  <outline>
    <contour>
      <point x="404" y="534" type="curve" smooth="yes"/>
      <point x="202" y="534"/>
      <point x="55" y="423"/>
      <point x="55" y="269" type="curve" smooth="yes"/>
      <point x="55" y="172"/>
      <point x="129" y="102"/>
      <point x="220" y="102" type="curve" smooth="yes"/>
      <point x="296" y="102"/>
      <point x="350" y="152"/>
      <point x="350" y="222" type="curve" smooth="yes"/>
      <point x="350" y="291"/>
      <point x="296" y="340"/>
      <point x="222" y="340" type="curve" smooth="yes"/>
      <point x="151" y="340"/>
      <point x="103" y="291"/>
      <point x="103" y="222" type="curve" smooth="yes"/>
      <point x="103" y="155"/>
      <point x="155" y="106"/>
      <point x="220" y="106" type="curve"/>
      <point x="220" y="147" type="line"/>
      <point x="176" y="147"/>
      <point x="145" y="178"/>
      <point x="145" y="222" type="curve" smooth="yes"/>
      <point x="145" y="266"/>
      <point x="177" y="296"/>
      <point x="221" y="296" type="curve" smooth="yes"/>
      <point x="264" y="296"/>
      <point x="296" y="266"/>
      <point x="296" y="222" type="curve" smooth="yes"/>
      <point x="295" y="178"/>
      <point x="263" y="147"/>
      <point x="220" y="147" type="curve" smooth="yes"/>
      <point x="163" y="147"/>
      <point x="111" y="198"/>
      <point x="111" y="269" type="curve" smooth="yes"/>
      <point x="111" y="394"/>
      <point x="234" y="485"/>
      <point x="404" y="485" type="curve" smooth="yes"/>
      <point x="571" y="485"/>
      <point x="693" y="400"/>
      <point x="694" y="282" type="curve" smooth="yes"/>
      <point x="694" y="221"/>
      <point x="669" y="175"/>
      <point x="619" y="175" type="curve" smooth="yes"/>
      <point x="570" y="175"/>
      <point x="537" y="216"/>
      <point x="536" y="269" type="curve"/>
      <point x="491" y="269" type="line"/>
      <point x="491" y="186"/>
      <point x="543" y="126"/>
      <point x="619" y="126" type="curve" smooth="yes"/>
      <point x="704" y="126"/>
      <point x="753" y="192"/>
      <point x="753" y="282" type="curve" smooth="yes"/>
      <point x="753" y="428"/>
      <point x="606" y="534"/>
    </contour>
    <contour>
      <point x="724" y="-35" type="line"/>
      <point x="724" y="10" type="line"/>
      <point x="661" y="10" type="line" smooth="yes"/>
      <point x="579" y="10"/>
      <point x="536" y="53"/>
      <point x="536" y="133" type="curve" smooth="yes"/>
      <point x="536" y="269" type="line"/>
      <point x="484" y="269" type="line"/>
      <point x="484" y="133" type="line" smooth="yes"/>
      <point x="484" y="27"/>
      <point x="546" y="-35"/>
      <point x="661" y="-35" type="curve" smooth="yes"/>
    </contour>
    <contour>
      <point x="408" y="-170" type="curve" smooth="yes"/>
      <point x="330" y="-170"/>
      <point x="273" y="-120"/>
      <point x="273" y="-50" type="curve" smooth="yes"/>
      <point x="273" y="0" type="line"/>
      <point x="217" y="0" type="line"/>
      <point x="217" y="-50" type="line" smooth="yes"/>
      <point x="217" y="-148"/>
      <point x="297" y="-219"/>
      <point x="408" y="-219" type="curve" smooth="yes"/>
      <point x="519" y="-219"/>
      <point x="599" y="-148"/>
      <point x="599" y="-50" type="curve" smooth="yes"/>
      <point x="599" y="0" type="line"/>
      <point x="544" y="19" type="line"/>
      <point x="544" y="-50" type="line" smooth="yes"/>
      <point x="544" y="-120"/>
      <point x="487" y="-170"/>
    </contour>
  </outline>
</glyph>
<glyph name="tm_Oo" format="2">
  <advance width="808"/>
  <unicode hex="0B93"/>
  <outline>
    <contour>
      <point x="491" y="269" type="line"/>
      <point x="491" y="186"/>
      <point x="543" y="126"/>
      <point x="619" y="126" type="curve" smooth="yes"/>
      <point x="704" y="126"/>
      <point x="753" y="192"/>
      <point x="753" y="282" type="curve" smooth="yes"/>
      <point x="753" y="428"/>
      <point x="606" y="534"/>
      <point x="404" y="534" type="curve" smooth="yes"/>
      <point x="202" y="534"/>
      <point x="55" y="423"/>
      <point x="55" y="269" type="curve" smooth="yes"/>
      <point x="55" y="172"/>
      <point x="129" y="102"/>
      <point x="220" y="102" type="curve" smooth="yes"/>
      <point x="296" y="102"/>
      <point x="350" y="152"/>
      <point x="350" y="222" type="curve" smooth="yes"/>
      <point x="350" y="291"/>
      <point x="296" y="340"/>
      <point x="222" y="340" type="curve" smooth="yes"/>
      <point x="151" y="340"/>
      <point x="103" y="291"/>
      <point x="103" y="222" type="curve" smooth="yes"/>
      <point x="103" y="155"/>
      <point x="155" y="106"/>
      <point x="220" y="106" type="curve"/>
      <point x="220" y="147" type="line"/>
      <point x="176" y="147"/>
      <point x="145" y="178"/>
      <point x="145" y="222" type="curve" smooth="yes"/>
      <point x="145" y="266"/>
      <point x="177" y="296"/>
      <point x="221" y="296" type="curve" smooth="yes"/>
      <point x="264" y="296"/>
      <point x="296" y="266"/>
      <point x="296" y="222" type="curve" smooth="yes"/>
      <point x="295" y="178"/>
      <point x="263" y="147"/>
      <point x="220" y="147" type="curve" smooth="yes"/>
      <point x="163" y="147"/>
      <point x="111" y="198"/>
      <point x="111" y="269" type="curve" smooth="yes"/>
      <point x="111" y="394"/>
      <point x="234" y="485"/>
      <point x="404" y="485" type="curve" smooth="yes"/>
      <point x="571" y="485"/>
      <point x="693" y="400"/>
      <point x="694" y="282" type="curve" smooth="yes"/>
      <point x="694" y="221"/>
      <point x="669" y="175"/>
      <point x="619" y="175" type="curve" smooth="yes"/>
      <point x="570" y="175"/>
      <point x="537" y="216"/>
      <point x="536" y="269" type="curve"/>
    </contour>
    <contour>
      <point x="724" y="10" type="line"/>
      <point x="661" y="10" type="line" smooth="yes"/>
      <point x="579" y="10"/>
      <point x="536" y="53"/>
      <point x="536" y="133" type="curve" smooth="yes"/>
      <point x="536" y="269" type="line"/>
      <point x="484" y="269" type="line"/>
      <point x="484" y="133" type="line" smooth="yes"/>
      <point x="484" y="72"/>
      <point x="505" y="26"/>
      <point x="544" y="-3" type="curve"/>
      <point x="544" y="-50" type="line" smooth="yes"/>
      <point x="544" y="-120"/>
      <point x="483" y="-170"/>
      <point x="399" y="-170" type="curve" smooth="yes"/>
      <point x="320" y="-170"/>
      <point x="263" y="-135"/>
      <point x="263" y="-87" type="curve" smooth="yes"/>
      <point x="263" y="-45"/>
      <point x="292" y="-14"/>
      <point x="333" y="-14" type="curve" smooth="yes"/>
      <point x="353" y="-14" type="line"/>
      <point x="353" y="31" type="line"/>
      <point x="333" y="31" type="line" smooth="yes"/>
      <point x="258" y="31"/>
      <point x="204" y="-19"/>
      <point x="204" y="-87" type="curve" smooth="yes"/>
      <point x="204" y="-164"/>
      <point x="286" y="-219"/>
      <point x="399" y="-219" type="curve" smooth="yes"/>
      <point x="515" y="-219"/>
      <point x="599" y="-148"/>
      <point x="599" y="-50" type="curve" smooth="yes"/>
      <point x="599" y="-28" type="line"/>
      <point x="618" y="-33"/>
      <point x="638" y="-35"/>
      <point x="661" y="-35" type="curve" smooth="yes"/>
      <point x="724" y="-35" type="line"/>
    </contour>
  </outline>
</glyph>
<glyph name="tm_Nga" format="2">
  <advance width="954"/>
  <unicode hex="0B99"/>
  <outline>
    <contour>
      <point x="397" y="468" type="line"/>
      <point x="590" y="468" type="line"/>
      <point x="586" y="513" type="line"/>
      <point x="95" y="513" type="line"/>
      <point x="95" y="0" type="line"/>
      <point x="150" y="0" type="line"/>
      <point x="150" y="468" type="line"/>
      <point x="341" y="468" type="line"/>
      <point x="341" y="151" type="line"/>
      <point x="397" y="151" type="line"/>
    </contour>
    <contour>
      <point x="859" y="513" type="line"/>
      <point x="803" y="513" type="line"/>
      <point x="803" y="45" type="line"/>
      <point x="341" y="45" type="line"/>
      <point x="341" y="0" type="line"/>
      <point x="859" y="0" type="line"/>
    </contour>
    <contour>
      <point x="632" y="195" type="curve" smooth="yes"/>
      <point x="632" y="108"/>
      <point x="573" y="45"/>
      <point x="471" y="45" type="curve"/>
      <point x="471" y="5" type="line"/>
      <point x="608" y="5"/>
      <point x="691" y="86"/>
      <point x="691" y="195" type="curve" smooth="yes"/>
      <point x="691" y="294"/>
      <point x="630" y="365"/>
      <point x="525" y="365" type="curve" smooth="yes"/>
      <point x="426" y="365"/>
      <point x="354" y="287"/>
      <point x="354" y="178" type="curve"/>
      <point x="397" y="178" type="line"/>
      <point x="397" y="258"/>
      <point x="449" y="317"/>
      <point x="522" y="317" type="curve" smooth="yes"/>
      <point x="595" y="317"/>
      <point x="632" y="266"/>
    </contour>
  </outline>
</glyph>
<glyph name="tm_Ca" format="2">
  <advance width="672"/>
  <unicode hex="0B9A"/>
  <outline>
    <contour>
      <point x="463" y="205" type="curve" smooth="yes"/>
      <point x="463" y="468" type="line"/>
      <point x="637" y="468" type="line"/>
      <point x="632" y="513" type="line"/>
      <point x="165" y="513" type="line"/>
      <point x="165" y="263" type="line"/>
      <point x="221" y="263" type="line"/>
      <point x="221" y="468" type="line"/>
      <point x="407" y="468" type="line"/>
      <point x="407" y="205" type="line" smooth="yes"/>
      <point x="407" y="96"/>
      <point x="345" y="31"/>
      <point x="237" y="31" type="curve" smooth="yes"/>
      <point x="158" y="31"/>
      <point x="104" y="76"/>
      <point x="104" y="135" type="curve" smooth="yes"/>
      <point x="104" y="200"/>
      <point x="150" y="248"/>
      <point x="236" y="248" type="curve" smooth="yes"/>
      <point x="637" y="248" type="line"/>
      <point x="632" y="293" type="line"/>
      <point x="234" y="293" type="line" smooth="yes"/>
      <point x="115" y="293"/>
      <point x="45" y="227"/>
      <point x="45" y="136" type="curve" smooth="yes"/>
      <point x="45" y="47"/>
      <point x="124" y="-18"/>
      <point x="237" y="-18" type="curve" smooth="yes"/>
      <point x="378" y="-18"/>
      <point x="463" y="67"/>
    </contour>
  </outline>
</glyph>
<glyph name="tm_Ja" format="2">
  <advance width="830"/>
  <unicode hex="0B9C"/>
  <anchor x="420" y="0" name="abvm1"/>
  <anchor x="870" y="0" name="abvm2"/>
  <outline>
    <contour>
      <point x="463" y="274" type="line"/>
      <point x="463" y="343" type="line" smooth="yes"/>
      <point x="463" y="422"/>
      <point x="521" y="482"/>
      <point x="600" y="482" type="curve" smooth="yes"/>
      <point x="667" y="482"/>
      <point x="716" y="428"/>
      <point x="716" y="358" type="curve" smooth="yes"/>
      <point x="715" y="282"/>
      <point x="663" y="221"/>
      <point x="505" y="200" type="curve" smooth="yes"/>
      <point x="325" y="176" type="line" smooth="yes"/>
      <point x="123" y="149"/>
      <point x="55" y="68"/>
      <point x="55" y="-32" type="curve" smooth="yes"/>
      <point x="55" y="-132"/>
      <point x="125" y="-205"/>
      <point x="235" y="-205" type="curve" smooth="yes"/>
      <point x="400" y="-205"/>
      <point x="501" y="22"/>
      <point x="630" y="22" type="curve" smooth="yes"/>
      <point x="694" y="22"/>
      <point x="716" y="-16"/>
      <point x="716" y="-64" type="curve" smooth="yes"/>
      <point x="716" y="-118"/>
      <point x="673" y="-157"/>
      <point x="604" y="-157" type="curve" smooth="yes"/>
      <point x="482" y="-157" type="line"/>
      <point x="482" y="-202" type="line"/>
      <point x="604" y="-202" type="line" smooth="yes"/>
      <point x="703" y="-202"/>
      <point x="775" y="-144"/>
      <point x="775" y="-64" type="curve" smooth="yes"/>
      <point x="775" y="14"/>
      <point x="723" y="70"/>
      <point x="630" y="70" type="curve" smooth="yes"/>
      <point x="480" y="70"/>
      <point x="370" y="-157"/>
      <point x="235" y="-157" type="curve" smooth="yes"/>
      <point x="159" y="-157"/>
      <point x="114" y="-103"/>
      <point x="114" y="-32" type="curve" smooth="yes"/>
      <point x="115" y="43"/>
      <point x="167" y="105"/>
      <point x="325" y="126" type="curve" smooth="yes"/>
      <point x="505" y="150" type="line" smooth="yes"/>
      <point x="707" y="177"/>
      <point x="775" y="258"/>
      <point x="775" y="358" type="curve" smooth="yes"/>
      <point x="775" y="458"/>
      <point x="702" y="531"/>
      <point x="600" y="531" type="curve" smooth="yes"/>
      <point x="514" y="531"/>
      <point x="456" y="482"/>
      <point x="421" y="412" type="curve"/>
      <point x="421" y="368" type="line"/>
      <point x="449" y="368" type="line"/>
      <point x="449" y="412" type="line"/>
      <point x="413" y="482"/>
      <point x="353" y="531"/>
      <point x="265" y="531" type="curve" smooth="yes"/>
      <point x="147" y="531"/>
      <point x="62" y="452"/>
      <point x="62" y="342" type="curve" smooth="yes"/>
      <point x="62" y="286"/>
      <point x="105" y="246"/>
      <point x="164" y="245" type="curve" smooth="yes"/>
      <point x="225" y="244"/>
      <point x="269" y="284"/>
      <point x="270" y="338" type="curve" smooth="yes"/>
      <point x="271" y="396"/>
      <point x="229" y="437"/>
      <point x="169" y="437" type="curve" smooth="yes"/>
      <point x="109" y="437"/>
      <point x="65" y="396"/>
      <point x="66" y="338" type="curve"/>
      <point x="113" y="340" type="line"/>
      <point x="112" y="371"/>
      <point x="136" y="392"/>
      <point x="169" y="392" type="curve" smooth="yes"/>
      <point x="199" y="392"/>
      <point x="220" y="370"/>
      <point x="220" y="339" type="curve" smooth="yes"/>
      <point x="219" y="311"/>
      <point x="197" y="290"/>
      <point x="167" y="290" type="curve" smooth="yes"/>
      <point x="136" y="290"/>
      <point x="113" y="311"/>
      <point x="113" y="340" type="curve" smooth="yes"/>
      <point x="113" y="421"/>
      <point x="166" y="482"/>
      <point x="265" y="482" type="curve" smooth="yes"/>
      <point x="348" y="482"/>
      <point x="407" y="422"/>
      <point x="407" y="343" type="curve" smooth="yes"/>
      <point x="407" y="274" type="line"/>
    </contour>
  </outline>
</glyph>
<glyph name="tm_Nya" format="2">
  <advance width="1208"/>
  <unicode hex="0B9E"/>
  <outline>
    <contour>
      <point x="347" y="237" type="curve" smooth="yes"/>
      <point x="347" y="371"/>
      <point x="428" y="468"/>
      <point x="616" y="468" type="curve" smooth="yes"/>
      <point x="727" y="468" type="line"/>
      <point x="727" y="513" type="line"/>
      <point x="607" y="513" type="line" smooth="yes"/>
      <point x="390" y="513"/>
      <point x="288" y="397"/>
      <point x="288" y="237" type="curve" smooth="yes"/>
      <point x="288" y="89"/>
      <point x="384" y="-18"/>
      <point x="560" y="-18" type="curve" smooth="yes"/>
      <point x="657" y="-18"/>
      <point x="728" y="49"/>
      <point x="728" y="141" type="curve" smooth="yes"/>
      <point x="728" y="234"/>
      <point x="657" y="301"/>
      <point x="560" y="301" type="curve" smooth="yes"/>
      <point x="466" y="301"/>
      <point x="398" y="234"/>
      <point x="398" y="141" type="curve" smooth="yes"/>
      <point x="398" y="57"/>
      <point x="466" y="-5"/>
      <point x="560" y="-5" type="curve"/>
      <point x="560" y="27" type="line"/>
      <point x="494" y="27"/>
      <point x="446" y="75"/>
      <point x="446" y="141" type="curve" smooth="yes"/>
      <point x="446" y="208"/>
      <point x="494" y="256"/>
      <point x="560" y="256" type="curve" smooth="yes"/>
      <point x="626" y="256"/>
      <point x="674" y="208"/>
      <point x="674" y="141" type="curve" smooth="yes"/>
      <point x="674" y="75"/>
      <point x="626" y="27"/>
      <point x="560" y="27" type="curve" smooth="yes"/>
      <point x="418" y="27"/>
      <point x="347" y="115"/>
    </contour>
    <contour>
      <point x="982" y="356" type="curve" smooth="yes"/>
      <point x="929" y="356"/>
      <point x="887" y="334"/>
      <point x="858" y="298" type="curve"/>
      <point x="858" y="468" type="line"/>
      <point x="1052" y="468" type="line"/>
      <point x="1047" y="513" type="line"/>
      <point x="727" y="513" type="line"/>
      <point x="727" y="468" type="line"/>
      <point x="803" y="468" type="line"/>
      <point x="803" y="0" type="line"/>
      <point x="858" y="0" type="line"/>
      <point x="858" y="169" type="line" smooth="yes"/>
      <point x="858" y="249"/>
      <point x="910" y="308"/>
      <point x="979" y="308" type="curve" smooth="yes"/>
      <point x="1061" y="308"/>
      <point x="1093" y="232"/>
      <point x="1093" y="131" type="curve" smooth="yes"/>
      <point x="1093" y="-93"/>
      <point x="905" y="-207"/>
      <point x="635" y="-207" type="curve" smooth="yes"/>
      <point x="335" y="-207"/>
      <point x="134" y="-77"/>
      <point x="134" y="168" type="curve" smooth="yes"/>
      <point x="134" y="302"/>
      <point x="194" y="446"/>
      <point x="277" y="513" type="curve"/>
      <point x="220" y="523" type="line"/>
      <point x="136" y="445"/>
      <point x="75" y="297"/>
      <point x="75" y="170" type="curve" smooth="yes"/>
      <point x="75" y="-106"/>
      <point x="301" y="-256"/>
      <point x="635" y="-256" type="curve" smooth="yes"/>
      <point x="940" y="-256"/>
      <point x="1153" y="-122"/>
      <point x="1153" y="131" type="curve" smooth="yes"/>
      <point x="1153" y="262"/>
      <point x="1096" y="356"/>
    </contour>
  </outline>
</glyph>
<glyph name="tm_Tta" format="2">
  <advance width="717"/>
  <unicode hex="0B9F"/>
  <outline>
    <contour>
      <point x="703" y="45" type="line"/>
      <point x="707" y="0" type="line"/>
      <point x="95" y="0" type="line"/>
      <point x="95" y="513" type="line"/>
      <point x="150" y="518" type="line"/>
      <point x="150" y="45" type="line"/>
    </contour>
  </outline>
</glyph>
<glyph name="tm_Ta" format="2">
  <advance width="746"/>
  <unicode hex="0BA4"/>
  <anchor x="390" y="0" name="abvm1"/>
  <anchor x="709" y="0" name="abvm2"/>
  <outline>
    <contour>
      <point x="495" y="248" type="line" smooth="yes"/>
      <point x="588" y="248"/>
      <point x="641" y="175"/>
      <point x="641" y="73" type="curve" smooth="yes"/>
      <point x="641" y="-39"/>
      <point x="555" y="-119"/>
      <point x="409" y="-119" type="curve" smooth="yes"/>
      <point x="242" y="-119" type="line" smooth="yes"/>
      <point x="143" y="-119"/>
      <point x="77" y="-165"/>
      <point x="45" y="-219" type="curve"/>
      <point x="90" y="-243" type="line"/>
      <point x="119" y="-197"/>
      <point x="177" y="-164"/>
      <point x="256" y="-164" type="curve" smooth="yes"/>
      <point x="409" y="-164" type="line" smooth="yes"/>
      <point x="589" y="-164"/>
      <point x="701" y="-65"/>
      <point x="701" y="73" type="curve" smooth="yes"/>
      <point x="701" y="201"/>
      <point x="622" y="293"/>
      <point x="494" y="293" type="curve" smooth="yes"/>
      <point x="234" y="293" type="line" smooth="yes"/>
      <point x="115" y="293"/>
      <point x="45" y="227"/>
      <point x="45" y="136" type="curve" smooth="yes"/>
      <point x="45" y="47"/>
      <point x="124" y="-18"/>
      <point x="237" y="-18" type="curve" smooth="yes"/>
      <point x="378" y="-18"/>
      <point x="463" y="67"/>
      <point x="463" y="205" type="curve" smooth="yes"/>
      <point x="463" y="468" type="line"/>
      <point x="637" y="468" type="line"/>
      <point x="632" y="513" type="line"/>
      <point x="165" y="513" type="line"/>
      <point x="165" y="263" type="line"/>
      <point x="221" y="263" type="line"/>
      <point x="221" y="468" type="line"/>
      <point x="407" y="468" type="line"/>
      <point x="407" y="205" type="line" smooth="yes"/>
      <point x="407" y="96"/>
      <point x="345" y="31"/>
      <point x="237" y="31" type="curve" smooth="yes"/>
      <point x="158" y="31"/>
      <point x="104" y="76"/>
      <point x="104" y="135" type="curve" smooth="yes"/>
      <point x="104" y="200"/>
      <point x="150" y="248"/>
      <point x="236" y="248" type="curve" smooth="yes"/>
    </contour>
  </outline>
</glyph>
<glyph name="tm_Na" format="2">
  <advance width="746"/>
  <unicode hex="0BA8"/>
  <outline>
    <contour>
      <point x="520" y="356" type="curve" smooth="yes"/>
      <point x="467" y="356"/>
      <point x="425" y="334"/>
      <point x="397" y="298" type="curve"/>
      <point x="397" y="468" type="line"/>
      <point x="590" y="468" type="line"/>
      <point x="586" y="513" type="line"/>
      <point x="95" y="513" type="line"/>
      <point x="95" y="0" type="line"/>
      <point x="150" y="0" type="line"/>
      <point x="150" y="468" type="line"/>
      <point x="341" y="468" type="line"/>
      <point x="341" y="0" type="line"/>
      <point x="397" y="0" type="line"/>
      <point x="397" y="169" type="line" smooth="yes"/>
      <point x="397" y="249"/>
      <point x="448" y="308"/>
      <point x="518" y="308" type="curve" smooth="yes"/>
      <point x="599" y="308"/>
      <point x="632" y="232"/>
      <point x="632" y="131" type="curve" smooth="yes"/>
      <point x="632" y="-14"/>
      <point x="558" y="-119"/>
      <point x="414" y="-119" type="curve" smooth="yes"/>
      <point x="292" y="-119" type="line" smooth="yes"/>
      <point x="193" y="-119"/>
      <point x="127" y="-165"/>
      <point x="95" y="-219" type="curve"/>
      <point x="140" y="-243" type="line"/>
      <point x="169" y="-197"/>
      <point x="227" y="-164"/>
      <point x="306" y="-164" type="curve" smooth="yes"/>
      <point x="414" y="-164" type="line" smooth="yes"/>
      <point x="593" y="-164"/>
      <point x="691" y="-40"/>
      <point x="691" y="131" type="curve" smooth="yes"/>
      <point x="691" y="262"/>
      <point x="635" y="356"/>
    </contour>
  </outline>
</glyph>
